<?xml version="1.0" encoding="UTF-8" standalone="no"?>
<svg
   xmlns:dc="http://purl.org/dc/elements/1.1/"
   xmlns:cc="http://creativecommons.org/ns#"
   xmlns:rdf="http://www.w3.org/1999/02/22-rdf-syntax-ns#"
   xmlns:svg="http://www.w3.org/2000/svg"
   xmlns="http://www.w3.org/2000/svg"
   xmlns:sodipodi="http://sodipodi.sourceforge.net/DTD/sodipodi-0.dtd"
   xmlns:inkscape="http://www.inkscape.org/namespaces/inkscape"
   version="1.1"
   id="svg2"
   xml:space="preserve"
   width="380"
   height="300"
   viewBox="0 0 380 300"
   sodipodi:docname="demo-card4.svg"
   inkscape:version="1.0 (4035a4fb49, 2020-05-01)"><metadata
     id="metadata8"><rdf:RDF><cc:Work
         rdf:about=""><dc:format>image/svg+xml</dc:format><dc:type
           rdf:resource="http://purl.org/dc/dcmitype/StillImage" /><dc:title></dc:title></cc:Work></rdf:RDF></metadata><defs
     id="defs6"><clipPath
       clipPathUnits="userSpaceOnUse"
       id="clipPath46"><path
         d="M 6668.36,3206.49 H 940.191 c -59.121,0 -107.039,47.92 -107.039,107.05 v 641.35 0 -612.4 c 0,-59.12 47.93,-107.05 107.051,-107.05 H 3774.91 c 7.05,0 14.01,0.69 20.8,2.04 h 2872.65 c 84.74,0 153.44,68.7 153.44,153.45 v -30.99 c 0,-84.74 -68.7,-153.45 -153.44,-153.45"
         id="path44" /></clipPath><linearGradient
       x1="0"
       y1="0"
       x2="1"
       y2="0"
       gradientUnits="userSpaceOnUse"
       gradientTransform="matrix(0,-1668.87,-1668.87,0,3827.48,4886.73)"
       spreadMethod="pad"
       id="linearGradient52"><stop
         style="stop-opacity:1;stop-color:#e8e8e7"
         offset="0"
         id="stop48" /><stop
         style="stop-opacity:1;stop-color:#cbcccc"
         offset="1"
         id="stop50" /></linearGradient><clipPath
       clipPathUnits="userSpaceOnUse"
       id="clipPath62"><path
         d="M 6668.36,2248.98 H 940.191 c -59.121,0 -107.039,47.93 -107.039,107.06 v 641.34 0 -613.54 c 0,-59.12 47.93,-107.05 107.051,-107.05 H 3774.91 v 0 h 2893.45 c 84.74,0 153.44,68.7 153.44,153.44 v -27.8 c 0,-84.74 -68.7,-153.45 -153.44,-153.45"
         id="path60" /></clipPath><linearGradient
       x1="0"
       y1="0"
       x2="1"
       y2="0"
       gradientUnits="userSpaceOnUse"
       gradientTransform="matrix(0,-1668.87,-1668.87,0,3827.48,3929.22)"
       spreadMethod="pad"
       id="linearGradient68"><stop
         style="stop-opacity:1;stop-color:#e8e8e7"
         offset="0"
         id="stop64" /><stop
         style="stop-opacity:1;stop-color:#cbcccc"
         offset="1"
         id="stop66" /></linearGradient><clipPath
       clipPathUnits="userSpaceOnUse"
       id="clipPath78"><path
         d="M 6668.36,1281.48 H 940.191 c -59.121,0 -107.039,47.93 -107.039,107.05 v 641.34 0 -606.72 c 0,-59.13 47.93,-107.06 107.051,-107.06 H 3774.91 v 0 h 2893.45 c 84.74,0 153.44,68.7 153.44,153.45 v -34.62 c 0,-84.74 -68.7,-153.44 -153.44,-153.44"
         id="path76" /></clipPath><linearGradient
       x1="0"
       y1="0"
       x2="1"
       y2="0"
       gradientUnits="userSpaceOnUse"
       gradientTransform="matrix(0,-1668.87,-1668.87,0,3827.48,2961.71)"
       spreadMethod="pad"
       id="linearGradient84"><stop
         style="stop-opacity:1;stop-color:#e8e8e7"
         offset="0"
         id="stop80" /><stop
         style="stop-opacity:1;stop-color:#cbcccc"
         offset="1"
         id="stop82" /></linearGradient><clipPath
       clipPathUnits="userSpaceOnUse"
       id="clipPath94"><path
         d="M 6668.36,313.961 H 940.191 c -59.121,0 -107.039,47.93 -107.039,107.059 v 641.34 0 -599.911 c 0,-59.117 47.93,-107.051 107.051,-107.051 H 3774.91 v 0 h 2893.45 c 84.74,0 153.44,68.704 153.44,153.454 V 467.41 c 0,-84.738 -68.7,-153.449 -153.44,-153.449"
         id="path92" /></clipPath><linearGradient
       x1="0"
       y1="0"
       x2="1"
       y2="0"
       gradientUnits="userSpaceOnUse"
       gradientTransform="matrix(0,-1668.87,-1668.87,0,3827.48,1994.21)"
       spreadMethod="pad"
       id="linearGradient100"><stop
         style="stop-opacity:1;stop-color:#e8e8e7"
         offset="0"
         id="stop96" /><stop
         style="stop-opacity:1;stop-color:#cbcccc"
         offset="1"
         id="stop98" /></linearGradient><clipPath
       clipPathUnits="userSpaceOnUse"
       id="clipPath134"><path
         d="M 3774.91,3235.44 H 940.203 c -59.121,0 -107.051,47.93 -107.051,107.05 v 612.4 28.95 c 0,59.12 47.93,107.05 107.051,107.05 h 2751.677 83.03 c 33.57,0 65.2,-15.75 85.44,-42.56 l 242.06,-320.67 c 28.81,-38.17 28.81,-90.81 0,-128.99 L 3860.35,3278 c -15.99,-21.17 -39.09,-35.46 -64.64,-40.52 -6.79,-1.35 -13.75,-2.04 -20.8,-2.04 m -61.57,635.51 c -124.68,0 -225.75,-101.07 -225.75,-225.74 0,-124.68 101.07,-225.75 225.75,-225.75 124.67,0 225.74,101.07 225.74,225.75 0,124.67 -101.07,225.74 -225.74,225.74"
         id="path132" /></clipPath><linearGradient
       x1="0"
       y1="0"
       x2="1"
       y2="0"
       gradientUnits="userSpaceOnUse"
       gradientTransform="matrix(3290.87,0,0,-3290.87,833.15,3663.17)"
       spreadMethod="pad"
       id="linearGradient140"><stop
         style="stop-opacity:1;stop-color:#f3611a"
         offset="0"
         id="stop136" /><stop
         style="stop-opacity:1;stop-color:#f49017"
         offset="1"
         id="stop138" /></linearGradient><clipPath
       clipPathUnits="userSpaceOnUse"
       id="clipPath182"><path
         d="M 3774.91,2276.79 H 940.203 c -59.121,0 -107.051,47.93 -107.051,107.05 v 613.54 27.81 c 0,59.12 47.93,107.05 107.051,107.05 h 2751.677 83.03 c 33.57,0 65.2,-15.75 85.44,-42.56 L 4102.41,2769 c 28.81,-38.16 28.81,-90.82 0,-128.98 l -242.06,-320.67 c -20.24,-26.81 -51.87,-42.56 -85.44,-42.56 v 0 m -61.57,633.46 c -124.68,0 -225.75,-101.06 -225.75,-225.74 0,-124.68 101.07,-225.74 225.75,-225.74 124.67,0 225.74,101.06 225.74,225.74 0,124.68 -101.07,225.74 -225.74,225.74"
         id="path180" /></clipPath><linearGradient
       x1="0"
       y1="0"
       x2="1"
       y2="0"
       gradientUnits="userSpaceOnUse"
       gradientTransform="matrix(3290.87,0,0,-3290.87,833.15,2704.51)"
       spreadMethod="pad"
       id="linearGradient188"><stop
         style="stop-opacity:1;stop-color:#be2f8d"
         offset="0"
         id="stop184" /><stop
         style="stop-opacity:1;stop-color:#8d198d"
         offset="1"
         id="stop186" /></linearGradient><clipPath
       clipPathUnits="userSpaceOnUse"
       id="clipPath230"><path
         d="M 3774.91,1316.09 H 940.203 c -59.121,0 -107.051,47.93 -107.051,107.06 v 606.72 34.62 c 0,59.12 47.93,107.05 107.051,107.05 h 2751.677 83.03 c 33.57,0 65.2,-15.75 85.44,-42.56 l 242.06,-320.67 c 28.81,-38.16 28.81,-90.82 0,-128.98 l -242.06,-320.68 c -20.24,-26.8 -51.87,-42.56 -85.44,-42.56 v 0 m -61.57,633.47 c -124.68,0 -225.75,-101.06 -225.75,-225.74 0,-124.68 101.07,-225.74 225.75,-225.74 124.67,0 225.74,101.06 225.74,225.74 0,124.68 -101.07,225.74 -225.74,225.74"
         id="path228" /></clipPath><linearGradient
       x1="0"
       y1="0"
       x2="1"
       y2="0"
       gradientUnits="userSpaceOnUse"
       gradientTransform="matrix(3290.87,0,0,-3290.87,833.15,1743.82)"
       spreadMethod="pad"
       id="linearGradient236"><stop
         style="stop-opacity:1;stop-color:#3d80cb"
         offset="0"
         id="stop232" /><stop
         style="stop-opacity:1;stop-color:#2c5cb1"
         offset="1"
         id="stop234" /></linearGradient><clipPath
       clipPathUnits="userSpaceOnUse"
       id="clipPath278"><path
         d="M 3774.91,355.398 H 940.203 c -59.121,0 -107.051,47.934 -107.051,107.051 v 599.911 41.44 c 0,59.12 47.93,107.05 107.051,107.05 h 2751.677 83.03 c 33.57,0 65.2,-15.75 85.44,-42.56 l 242.06,-320.669 c 28.81,-38.172 28.81,-90.82 0,-128.992 L 3860.35,397.961 c -20.24,-26.813 -51.87,-42.563 -85.44,-42.563 v 0 m -61.57,633.473 c -124.68,0 -225.75,-101.07 -225.75,-225.742 0,-124.68 101.07,-225.75 225.75,-225.75 124.67,0 225.74,101.07 225.74,225.75 0,124.672 -101.07,225.742 -225.74,225.742"
         id="path276" /></clipPath><linearGradient
       x1="0"
       y1="0"
       x2="1"
       y2="0"
       gradientUnits="userSpaceOnUse"
       gradientTransform="matrix(3290.87,0,0,-3290.87,833.15,783.12)"
       spreadMethod="pad"
       id="linearGradient284"><stop
         style="stop-opacity:1;stop-color:#39ad92"
         offset="0"
         id="stop280" /><stop
         style="stop-opacity:1;stop-color:#338e9c"
         offset="1"
         id="stop282" /></linearGradient><clipPath
       clipPathUnits="userSpaceOnUse"
       id="clipPath308"><path
         d="m 3713.34,537.379 c -124.68,0 -225.75,101.07 -225.75,225.75 0,124.672 101.07,225.742 225.75,225.742 124.67,0 225.74,-101.07 225.74,-225.742 0,-124.68 -101.07,-225.75 -225.74,-225.75"
         id="path306" /></clipPath><linearGradient
       x1="0"
       y1="0"
       x2="1"
       y2="0"
       gradientUnits="userSpaceOnUse"
       gradientTransform="matrix(3290.87,0,0,-3290.87,833.15,783.12)"
       spreadMethod="pad"
       id="linearGradient314"><stop
         style="stop-opacity:1;stop-color:#329b84"
         offset="0"
         id="stop310" /><stop
         style="stop-opacity:1;stop-color:#2d7e8b"
         offset="1"
         id="stop312" /></linearGradient><clipPath
       clipPathUnits="userSpaceOnUse"
       id="clipPath328"><path
         d="m 3713.34,1498.08 c -124.68,0 -225.75,101.06 -225.75,225.74 0,124.68 101.07,225.74 225.75,225.74 124.67,0 225.74,-101.06 225.74,-225.74 0,-124.68 -101.07,-225.74 -225.74,-225.74"
         id="path326" /></clipPath><linearGradient
       x1="0"
       y1="0"
       x2="1"
       y2="0"
       gradientUnits="userSpaceOnUse"
       gradientTransform="matrix(3290.87,0,0,-3290.87,833.15,1743.82)"
       spreadMethod="pad"
       id="linearGradient334"><stop
         style="stop-opacity:1;stop-color:#3373be"
         offset="0"
         id="stop330" /><stop
         style="stop-opacity:1;stop-color:#2652a1"
         offset="1"
         id="stop332" /></linearGradient><clipPath
       clipPathUnits="userSpaceOnUse"
       id="clipPath348"><path
         d="m 3713.34,2458.77 c -124.68,0 -225.75,101.06 -225.75,225.74 0,124.68 101.07,225.74 225.75,225.74 124.67,0 225.74,-101.06 225.74,-225.74 0,-124.68 -101.07,-225.74 -225.74,-225.74"
         id="path346" /></clipPath><linearGradient
       x1="0"
       y1="0"
       x2="1"
       y2="0"
       gradientUnits="userSpaceOnUse"
       gradientTransform="matrix(3290.87,0,0,-3290.87,833.15,2704.51)"
       spreadMethod="pad"
       id="linearGradient354"><stop
         style="stop-opacity:1;stop-color:#ab2d7e"
         offset="0"
         id="stop350" /><stop
         style="stop-opacity:1;stop-color:#7b1e81"
         offset="1"
         id="stop352" /></linearGradient><clipPath
       clipPathUnits="userSpaceOnUse"
       id="clipPath368"><path
         d="m 3713.34,3419.46 c -124.68,0 -225.75,101.07 -225.75,225.75 0,124.67 101.07,225.74 225.75,225.74 124.67,0 225.74,-101.07 225.74,-225.74 0,-124.68 -101.07,-225.75 -225.74,-225.75"
         id="path366" /></clipPath><linearGradient
       x1="0"
       y1="0"
       x2="1"
       y2="0"
       gradientUnits="userSpaceOnUse"
       gradientTransform="matrix(3290.87,0,0,-3290.87,833.15,3663.17)"
       spreadMethod="pad"
       id="linearGradient374"><stop
         style="stop-opacity:1;stop-color:#dc581d"
         offset="0"
         id="stop370" /><stop
         style="stop-opacity:1;stop-color:#da8118"
         offset="1"
         id="stop372" /></linearGradient></defs><sodipodi:namedview
     inkscape:document-rotation="0"
     pagecolor="#ffffff"
     bordercolor="#666666"
     borderopacity="1"
     objecttolerance="10"
     gridtolerance="10"
     guidetolerance="10"
     inkscape:pageopacity="0"
     inkscape:pageshadow="2"
     inkscape:window-width="1366"
     inkscape:window-height="717"
     id="namedview4"
     showgrid="false"
     inkscape:zoom="0.88349996"
     inkscape:cx="225.56057"
     inkscape:cy="131.42197"
     inkscape:window-x="0"
     inkscape:window-y="24"
     inkscape:window-maximized="1"
     inkscape:current-layer="g12" /><g
     id="g10"
     inkscape:groupmode="layer"
     inkscape:label="ink_ext_XXXXXX"
     transform="matrix(1.3333333,0,0,-1.3333333,0,666.66667)"><g
       id="g12"
       transform="scale(0.1)"><path
         d="M -85.277948,2699.4181 H 2902.2082 V 5018.0419 H -85.277948 Z"
         style="fill:#f2f2f2;fill-opacity:1;fill-rule:nonzero;stroke:none;stroke-width:0.429787"
         id="path14" /><path
         d="m 2959.7424,4371.4065 -8.6317,-0.047 0.013,-2.3187 8.6315,0.047"
         style="fill:#d3d4d3;fill-opacity:1;fill-rule:nonzero;stroke:none;stroke-width:0.447363"
         id="path16" /><path
         d="m 2933.9126,4387.3344 -17.1985,-0.097 0.012,-2.3185 17.1984,0.097 -0.011,2.3186 m -34.3966,-0.1947 -17.1983,-0.1018 0.012,-2.3186 17.1984,0.1019 -0.012,2.3185 m -34.3966,-0.1994 -17.1983,-0.097 0.013,-2.3188 17.1984,0.098 -0.013,2.3185 m -34.3967,-0.1947 -17.1981,-0.1029 0.013,-2.3185 17.1983,0.1019 -0.013,2.3187 m -34.3967,-0.1995 -17.1982,-0.098 0.013,-2.3187 17.1983,0.099 -0.013,2.3184 m -34.3967,-0.1947 -17.1983,-0.1018 0.013,-2.3187 17.1985,0.1018 -0.013,2.3185 m -34.3925,-0.1993 -17.198,-0.097 0.012,-2.3187 17.1984,0.097 -0.012,2.3186 m -34.3966,-0.1995 -17.1984,-0.097 0.012,-2.3186 17.1985,0.1029 -0.012,2.314 m -34.3967,-0.1947 -17.1983,-0.098 0.013,-2.3186 17.1984,0.099 -0.013,2.3187 m -34.3966,-0.1994 -17.1983,-0.097 0.013,-2.3187 17.1982,0.098 -0.013,2.3186 m -34.3968,-0.1946 -17.198,-0.103 0.013,-2.3185 17.1985,0.1019 -0.013,2.3186 m -34.3967,-0.1994 -17.1983,-0.098 0.013,-2.3185 17.1983,0.097 -0.013,2.3186 m -34.3967,-0.1947 -17.194,-0.1029 0.012,-2.3185 17.1984,0.1029 -0.013,2.3187 m -34.3923,-0.1995 -17.1984,-0.097 0.012,-2.3186 17.1982,0.098 -0.012,2.3185 m -34.3968,-0.1948 -17.1983,-0.1018 0.013,-2.3185 17.194,0.1029 -0.012,2.3185 m -34.3968,-0.1994 -17.1981,-0.098 0.013,-2.3187 17.1984,0.098 -0.013,2.3184 m -34.3965,-0.1947 -17.1983,-0.1018 0.013,-2.3187 17.1982,0.1018 -0.013,2.3187 m -34.3967,-0.1994 -17.1983,-0.097 0.013,-2.3186 17.1984,0.097 -0.013,2.3186 m -34.3923,-0.1994 -17.1983,-0.098 0.012,-2.3186 17.1985,0.098 -0.011,2.3187 m -34.3966,-0.1948 -17.1984,-0.097 0.013,-2.3184 17.194,0.097 -0.012,2.3188 m -34.3966,-0.1995 -17.1985,-0.097 0.013,-2.3188 17.1941,0.097 -0.011,2.3188 m -34.3966,-0.1947 -17.1984,-0.1029 0.013,-2.3141 17.1982,0.098 -0.013,2.3188 m -34.3967,-0.1996 -17.1983,-0.098 0.013,-2.3185 17.1983,0.097 -0.013,2.3187 m -34.3964,-0.1948 -17.1986,-0.1029 0.013,-2.3138 17.1984,0.098 -0.013,2.3187 m -34.3924,-0.1995 -17.1984,-0.097 0.012,-2.3187 17.1985,0.098 -0.012,2.3185 m -34.3966,-0.1946 -17.1983,-0.1029 0.013,-2.3186 17.1939,0.1029 -0.012,2.3186 m -34.3966,-0.1995 -17.1983,-0.097 0.013,-2.3185 17.1981,0.097 -0.013,2.3188 m -34.3966,-0.1993 -17.1984,-0.098 0.013,-2.3184 17.1985,0.097 -0.013,2.3187 m -34.3965,-0.1949 -17.1984,-0.098 0.013,-2.3186 17.1984,0.097 -0.013,2.3186 m -34.3967,-0.1992 -17.1941,-0.098 0.012,-2.3187 17.1985,0.098 -0.013,2.3187 m -34.3924,-0.1949 -17.1985,-0.097 0.012,-2.3186 17.1984,0.097 -0.012,2.3185 m -34.3966,-0.1994 -17.1984,-0.097 0.013,-2.3185 17.1984,0.097 -0.013,2.3185 m -34.3968,-0.1947 -17.1983,-0.097 0.013,-2.3186 17.1982,0.098 -0.013,2.3187 m -34.3965,-0.1994 -17.1984,-0.097 0.013,-2.3187 17.1983,0.098 -0.013,2.3186 m -34.3968,-0.1947 -17.1984,-0.103 0.013,-2.3185 17.1983,0.1029 -0.013,2.3186 m -34.3923,-0.1994 -17.1984,-0.097 0.011,-2.3186 17.1983,0.098 -0.012,2.3186 m -34.3968,-0.1948 -17.1981,-0.1019 0.011,-2.3186 17.1982,0.1029 -0.012,2.3186 m -34.3966,-0.1994 -17.1984,-0.097 0.013,-2.3187 17.1984,0.097 -0.013,2.3185 m -34.3968,-0.1993 -17.1984,-0.098 0.013,-2.3187 17.1984,0.1019 -0.013,2.3139 m -34.3964,-0.1946 -17.1984,-0.098 0.013,-2.3186 17.1982,0.097 -0.013,2.3188 m -34.3968,-0.1996 -17.1983,-0.098 0.013,-2.3186 17.1983,0.1017 -0.013,2.314 m -34.3923,-0.1946 -17.1983,-0.1019 0.011,-2.3186 17.1983,0.1018 -0.012,2.3184 m -34.3965,-0.1993 -17.1984,-0.098 0.012,-2.3185 17.1984,0.098 -0.012,2.3185 m -34.3967,-0.1946 -17.1984,-0.1019 0.013,-2.3187 17.1942,0.1018 -0.012,2.3188 m -34.3967,-0.1996 -17.1982,-0.098 0.013,-2.3186 17.1982,0.097 -0.013,2.3187 m -34.3966,-0.1948 -17.1982,-0.1028 0.013,-2.3185 17.1982,0.1018 -0.013,2.3184 m -34.3967,-0.1993 -17.1938,-0.097 0.011,-2.3186 17.1984,0.097 -0.013,2.3187 m -34.3924,-0.1946 -17.1983,-0.1029 0.012,-2.3187 17.1983,0.103 -0.011,2.3186 m -34.3968,-0.1995 -17.1983,-0.097 0.013,-2.3186 17.1941,0.097 -0.011,2.3186 m -34.3965,-0.1994 -17.1984,-0.098 0.013,-2.3184 17.1984,0.1018 -0.013,2.3138 m -34.3967,-0.1945 -17.1985,-0.098 0.013,-2.3188 17.1982,0.098 -0.013,2.3188 m -34.3968,-0.1995 -17.1984,-0.098 0.013,-2.3188 17.1983,0.098 -0.013,2.3188 m -34.3968,-0.1947 -17.1939,-0.098 0.012,-2.3184 17.1983,0.097 -0.013,2.3187 m -34.3924,-0.1995 -17.1983,-0.097 0.011,-2.3186 17.1984,0.098 -0.012,2.3185 m -34.3967,-0.1946 -17.1982,-0.1029 0.013,-2.3141 17.194,0.098 -0.012,2.3186 m -34.3967,-0.1995 -17.1983,-0.097 0.013,-2.3188 17.1984,0.097 -0.013,2.3186 m -34.3967,-0.1945 -17.1982,-0.103 0.0127,-2.3187 17.1982,0.1029 -0.013,2.3186 m -34.39653,-0.1994 -17.19842,-0.098 0.0127,-2.3186 17.19843,0.098 -0.0128,2.3188 m -34.39229,-0.1995 -17.19842,-0.097 0.0109,-2.3185 17.19833,0.098 -0.0109,2.3186 m -34.3968,-0.1947 -17.19833,-0.097 0.0109,-2.3186 17.19843,0.098 -0.0109,2.3186 m -34.39675,-0.1995 -17.19839,-0.097 0.0129,-2.3188 17.19831,0.098 -0.0128,2.3184 m -34.39663,-0.1947 -17.19838,-0.098 0.013,-2.3184 17.19837,0.097 -0.0129,2.3186 m -34.39674,-0.1994 -17.19838,-0.098 0.0129,-2.3187 17.19838,0.098 -0.013,2.3184 m -34.39664,-0.1946 -17.19839,-0.097 0.0129,-2.3186 17.19827,0.097 -0.013,2.3188 m -34.39234,-0.1996 -17.19837,-0.097 0.0107,-2.3187 17.19828,0.097 -0.0107,2.3186 m -34.39665,-0.1946 -17.19826,-0.1029 0.0107,-2.3188 17.19826,0.103 -0.0107,2.3186 m -34.39664,-0.1994 -17.19827,-0.097 0.0129,-2.3187 17.19825,0.098 -0.0129,2.3187 m -34.3966,-0.1949 -17.19831,-0.1018 0.0132,-2.3186 17.1983,0.103 -0.0133,2.3185 m -34.39664,-0.1994 -17.19837,-0.098 0.0133,-2.3188 17.1984,0.098 -0.0133,2.3185 m -34.39239,-0.1993 -17.19832,-0.098 0.008,-2.3188 17.19833,0.103 -0.008,2.3139 m -34.39665,-0.1945 -17.1983,-0.098 0.008,-2.3185 17.19831,0.097 -0.008,2.3187 m -34.39664,-0.1994 -17.19832,-0.097 0.013,-2.3185 17.19834,0.1019 -0.0129,2.3141 m -34.39666,-0.1948 -17.19834,-0.097 0.0129,-2.3187 17.19832,0.098 -0.0129,2.3186 m -34.39665,-0.1995 -17.19833,-0.097 0.0129,-2.3187 17.19832,0.098 -0.013,2.3186 m -34.39668,-0.1947 -17.19833,-0.1028 0.0129,-2.3186 17.19832,0.103 -0.0129,2.3186 m -34.39665,-0.1995 -17.19402,-0.097 0.008,-2.3186 17.19834,0.099 -0.0129,2.3183 m -34.39235,-0.1945 -17.19833,-0.1029 0.008,-2.3186 17.19833,0.1019 -0.008,2.3186 m -34.39667,-0.1995 -17.19832,-0.097 0.013,-2.3187 17.19834,0.097 -0.0129,2.3187 m -34.39665,-0.1948 -17.19834,-0.1029 0.013,-2.3185 17.19833,0.1029 -0.013,2.3184 m -34.39668,-0.1993 -17.19831,-0.098 0.0129,-2.3185 17.19834,0.097 -0.013,2.3188 m -34.39665,-0.1949 -17.19832,-0.1018 0.013,-2.3187 17.19832,0.1028 -0.013,2.3184 m -34.39449,-0.1992 -17.19749,-0.097 0.0107,-2.3186 17.19876,0.097 -0.0117,2.3188 m -34.39623,-0.1995 -17.19747,-0.098 0.01165,-2.3185 17.19747,0.097 -0.0117,2.3187 m -34.396235,-0.1949 -17.197466,-0.098 0.01165,-2.3187 17.197466,0.097 -0.01165,2.3187 m -34.394922,-0.1994 -17.198764,-0.098 0.01168,-2.3186 17.199191,0.097 -0.01201,2.3186 m -34.396238,-0.1948 -17.1974686,-0.1019 0.01211,-2.3142 17.1970396,0.097 -0.01169,2.3186 m -34.396223,-0.1995 -17.197466,-0.097 0.01211,-2.3185 17.197028,0.098 -0.01169,2.3186 m -34.394509,-0.1947 -17.199193,-0.1019 0.0117,-2.3188 17.197463,0.103 -0.01,2.3185 m -34.396663,-0.1994 -17.19703,-0.098 0.01,-2.3188 17.19918,0.098 -0.0121,2.3186 m -34.39622,-0.1994 -17.19877,-0.098 0.0134,-2.3186 17.19704,0.103 -0.0116,2.3138 m -34.39623,-0.1947 -17.19746,-0.098 0.012,-2.3183 17.19703,0.097 -0.0117,2.3185 m -34.39625,-0.1992 -17.19746,-0.098 0.0117,-2.3186 17.19918,0.097 -0.0136,2.3188 m -34.39485,-0.1949 -17.19895,-0.097 0.0118,-2.3187 17.19738,0.097 -0.008,2.3186"
         style="fill:#d3d4d3;fill-opacity:1;fill-rule:nonzero;stroke:none;stroke-width:0.447363"
         id="path18" /><path
         d="m 58.346911,4587.4179 -8.631566,-0.05 0.01183,-2.3187 8.631548,0.05"
         style="fill:#d3d4d3;fill-opacity:1;fill-rule:nonzero;stroke:none;stroke-width:0.447363"
         id="path20" /><path
         d="m 2959.7424,3935.0322 -8.6317,-0.05 0.013,-2.3185 8.6315,0.049"
         style="fill:#d3d4d3;fill-opacity:1;fill-rule:nonzero;stroke:none;stroke-width:0.447363"
         id="path22" /><path
         d="m 2933.9126,3950.9602 -17.1985,-0.1029 0.012,-2.3139 17.1984,0.097 -0.011,2.3187 m -34.3966,-0.1996 -17.1983,-0.098 0.012,-2.3186 17.1984,0.097 -0.012,2.3186 m -34.3966,-0.1948 -17.1983,-0.1017 0.013,-2.3188 17.1984,0.1018 -0.013,2.3186 m -34.3967,-0.1994 -17.1981,-0.098 0.013,-2.3184 17.1983,0.097 -0.013,2.3185 m -34.3967,-0.1993 -17.1982,-0.098 0.013,-2.3186 17.1983,0.097 -0.013,2.3185 m -34.3967,-0.1946 -17.1983,-0.097 0.013,-2.3186 17.1985,0.097 -0.013,2.3186 m -34.3925,-0.1995 -17.198,-0.097 0.012,-2.3188 17.1984,0.097 -0.012,2.3186 m -34.3966,-0.1946 -17.1984,-0.098 0.012,-2.3186 17.1985,0.098 -0.012,2.3187 m -34.3967,-0.1995 -17.1983,-0.097 0.013,-2.3187 17.1984,0.098 -0.013,2.3187 m -34.3966,-0.1948 -17.1983,-0.1019 0.013,-2.3186 17.1982,0.1029 -0.013,2.3185 m -34.3968,-0.1993 -17.198,-0.098 0.013,-2.3187 17.1985,0.098 -0.013,2.3187 m -34.3967,-0.1949 -17.1983,-0.1018 0.013,-2.3188 17.1983,0.1018 -0.013,2.3186 m -34.3967,-0.1995 -17.194,-0.097 0.012,-2.3186 17.1984,0.097 -0.013,2.3185 m -34.3923,-0.1994 -17.1984,-0.098 0.012,-2.3184 17.1982,0.1028 -0.012,2.3139 m -34.3968,-0.1947 -17.1983,-0.097 0.013,-2.3186 17.194,0.098 -0.012,2.3184 m -34.3968,-0.1993 -17.1981,-0.097 0.013,-2.3185 17.1984,0.098 -0.013,2.3187 m -34.3965,-0.1949 -17.1983,-0.097 0.013,-2.3187 17.1982,0.098 -0.013,2.3186 m -34.3967,-0.1993 -17.1983,-0.098 0.013,-2.3185 17.1984,0.098 -0.013,2.3185 m -34.3923,-0.1948 -17.1983,-0.1018 0.012,-2.3186 17.1985,0.1018 -0.011,2.3188 m -34.3966,-0.1994 -17.1984,-0.097 0.013,-2.3187 17.194,0.098 -0.012,2.3187 m -34.3966,-0.1948 -17.1985,-0.103 0.013,-2.3184 17.1941,0.1017 -0.011,2.3188 m -34.3966,-0.1995 -17.1984,-0.098 0.013,-2.3188 17.1982,0.098 -0.013,2.3184 m -34.3967,-0.1992 -17.1983,-0.098 0.013,-2.3185 17.1983,0.1018 -0.013,2.3142 m -34.3964,-0.1949 -17.1986,-0.098 0.013,-2.3186 17.1984,0.097 -0.013,2.3186 m -34.3924,-0.1993 -17.1984,-0.099 0.012,-2.3183 17.1985,0.097 -0.012,2.3188 m -34.3966,-0.195 -17.1983,-0.1017 0.013,-2.3188 17.1939,0.1029 -0.012,2.3186 m -34.3966,-0.1993 -17.1983,-0.098 0.013,-2.3187 17.1981,0.098 -0.013,2.3187 m -34.3966,-0.1948 -17.1984,-0.1019 0.013,-2.3187 17.1985,0.1018 -0.013,2.3187 m -34.3965,-0.1994 -17.1984,-0.099 0.013,-2.3184 17.1984,0.098 -0.013,2.3185 m -34.3967,-0.1947 -17.1941,-0.1018 0.012,-2.3186 17.1985,0.1029 -0.013,2.3186 m -34.3924,-0.1994 -17.1985,-0.097 0.012,-2.3187 17.1984,0.098 -0.012,2.3186 m -34.3966,-0.1994 -17.1984,-0.097 0.013,-2.3186 17.1984,0.097 -0.013,2.3188 m -34.3968,-0.1949 -17.1983,-0.097 0.013,-2.3187 17.1982,0.098 -0.013,2.3186 m -34.3965,-0.1995 -17.1984,-0.097 0.013,-2.3187 17.1983,0.098 -0.013,2.3185 m -34.3968,-0.1948 -17.1984,-0.1029 0.013,-2.3184 17.1983,0.1018 -0.013,2.3187 m -34.3923,-0.1994 -17.1984,-0.097 0.011,-2.3185 17.1983,0.097 -0.012,2.3186 m -34.3968,-0.1947 -17.1981,-0.1029 0.011,-2.3186 17.1982,0.103 -0.012,2.3185 m -34.3966,-0.1994 -17.1984,-0.097 0.013,-2.3185 17.1984,0.098 -0.013,2.3186 m -34.3968,-0.1948 -17.1984,-0.1018 0.013,-2.3186 17.1984,0.1018 -0.013,2.3186 m -34.3964,-0.1995 -17.1984,-0.098 0.013,-2.3187 17.1982,0.098 -0.013,2.3183 m -34.3968,-0.1992 -17.1983,-0.098 0.013,-2.3186 17.1983,0.1029 -0.013,2.3139 m -34.3923,-0.1946 -17.1983,-0.097 0.011,-2.3187 17.1983,0.098 -0.012,2.3186 m -34.3965,-0.1996 -17.1984,-0.097 0.012,-2.3186 17.1984,0.097 -0.012,2.3185 m -34.3967,-0.1946 -17.1984,-0.1029 0.013,-2.3186 17.1942,0.1029 -0.012,2.3186 m -34.3967,-0.1994 -17.1982,-0.098 0.013,-2.3187 17.1982,0.098 -0.013,2.3187 m -34.3966,-0.1949 -17.1982,-0.1018 0.013,-2.3188 17.1982,0.1029 -0.013,2.3184 m -34.3967,-0.1992 -17.1938,-0.098 0.011,-2.3185 17.1984,0.097 -0.013,2.3187 m -34.3924,-0.1949 -17.1983,-0.1017 0.012,-2.3188 17.1983,0.1018 -0.011,2.3186 m -34.3968,-0.1993 -17.1983,-0.097 0.013,-2.3187 17.1941,0.098 -0.011,2.3186 m -34.3965,-0.1996 -17.1984,-0.097 0.013,-2.3187 17.1984,0.097 -0.013,2.3185 m -34.3967,-0.1946 -17.1985,-0.1018 0.013,-2.3139 17.1982,0.097 -0.013,2.3187 m -34.3968,-0.1994 -17.1984,-0.098 0.013,-2.3187 17.1983,0.098 -0.013,2.3185 m -34.3968,-0.1946 -17.1939,-0.1019 0.012,-2.3187 17.1983,0.1019 -0.013,2.3187 m -34.3924,-0.1996 -17.1983,-0.097 0.011,-2.3188 17.1984,0.098 -0.012,2.3185 m -34.3967,-0.1948 -17.1982,-0.1028 0.013,-2.3186 17.194,0.1018 -0.012,2.3185 m -34.3967,-0.1993 -17.1983,-0.098 0.013,-2.3187 17.1984,0.097 -0.013,2.3186 m -34.3967,-0.1994 -17.1982,-0.098 0.0127,-2.3186 17.1982,0.1028 -0.013,2.3141 m -34.39653,-0.1948 -17.19842,-0.098 0.0127,-2.3185 17.19843,0.097 -0.0128,2.3186 m -34.39229,-0.1995 -17.19842,-0.097 0.0109,-2.3188 17.19833,0.1019 -0.0109,2.3138 m -34.3968,-0.1947 -17.19833,-0.1029 0.0109,-2.3139 17.19843,0.098 -0.0109,2.3186 m -34.39675,-0.1993 -17.19839,-0.097 0.0129,-2.3187 17.19831,0.098 -0.0128,2.3186 m -34.39663,-0.1947 -17.19838,-0.1029 0.013,-2.3184 17.19837,0.1018 -0.0129,2.3188 m -34.39674,-0.1996 -17.19838,-0.098 0.0129,-2.3185 17.19838,0.097 -0.013,2.3187 m -34.39664,-0.1948 -17.19839,-0.1028 0.0129,-2.3187 17.19827,0.1029 -0.013,2.3186 m -34.39234,-0.1993 -17.19837,-0.097 0.0107,-2.3188 17.19828,0.097 -0.0107,2.3187 m -34.39665,-0.1948 -17.19826,-0.1017 0.0107,-2.3186 17.19826,0.1018 -0.0107,2.3186 m -34.39664,-0.1995 -17.19827,-0.098 0.0129,-2.3186 17.19825,0.097 -0.0129,2.3184 m -34.3966,-0.1993 -17.19831,-0.097 0.0132,-2.3186 17.1983,0.097 -0.0133,2.3186 m -34.39664,-0.1946 -17.19837,-0.1018 0.0133,-2.3187 17.1984,0.1019 -0.0133,2.3187 m -34.39239,-0.1995 -17.19832,-0.097 0.008,-2.3186 17.19833,0.097 -0.008,2.3186 m -34.39665,-0.1946 -17.1983,-0.1029 0.008,-2.3185 17.19831,0.1029 -0.008,2.3187 m -34.39664,-0.1994 -17.19832,-0.098 0.013,-2.3185 17.19834,0.098 -0.0129,2.3187 m -34.39666,-0.1948 -17.19834,-0.1018 0.0129,-2.3185 17.19832,0.1028 -0.0129,2.3186 m -34.39665,-0.1995 -17.19833,-0.097 0.0129,-2.3184 17.19832,0.097 -0.013,2.3186 m -34.39668,-0.1994 -17.19833,-0.097 0.0129,-2.3187 17.19832,0.1029 -0.0129,2.3139 m -34.39665,-0.1947 -17.19402,-0.098 0.008,-2.3184 17.19834,0.098 -0.0129,2.3187 m -34.39235,-0.1994 -17.19833,-0.098 0.008,-2.3186 17.19833,0.098 -0.008,2.3187 m -34.39667,-0.1949 -17.19832,-0.1018 0.013,-2.3185 17.19834,0.1029 -0.0129,2.3186 m -34.39665,-0.1995 -17.19834,-0.097 0.013,-2.3187 17.19833,0.098 -0.013,2.3185 m -34.39668,-0.1946 -17.19831,-0.1019 0.0129,-2.3187 17.19834,0.1019 -0.013,2.3187 m -34.39665,-0.1996 -17.19832,-0.097 0.013,-2.3186 17.19832,0.098 -0.013,2.3184 m -34.39449,-0.1946 -17.19749,-0.1019 0.0107,-2.3186 17.19876,0.1018 -0.0117,2.3188 m -34.39623,-0.1996 -17.19747,-0.097 0.01165,-2.3187 17.19747,0.097 -0.0117,2.3186 m -34.396235,-0.1993 -17.197466,-0.097 0.01165,-2.3186 17.197466,0.098 -0.01165,2.3187 m -34.394922,-0.1948 -17.198764,-0.1029 0.01168,-2.3139 17.199191,0.098 -0.01201,2.3185 m -34.396238,-0.1993 -17.1974686,-0.097 0.01211,-2.3187 17.1970396,0.098 -0.01169,2.3184 m -34.396223,-0.1946 -17.197466,-0.103 0.01211,-2.3139 17.197028,0.098 -0.01169,2.3184 m -34.394509,-0.1993 -17.199193,-0.097 0.0117,-2.3188 17.197463,0.097 -0.01,2.3186 m -34.396663,-0.1948 -17.19703,-0.1018 0.01,-2.3186 17.19918,0.1018 -0.0121,2.3185 m -34.39622,-0.1993 -17.19877,-0.098 0.0134,-2.3188 17.19704,0.098 -0.0116,2.3187 m -34.39623,-0.1949 -17.19746,-0.1029 0.012,-2.3186 17.19703,0.1018 -0.0117,2.3186 m -34.39625,-0.1994 -17.19746,-0.098 0.0117,-2.3187 17.19918,0.098 -0.0136,2.3185 m -34.39485,-0.1993 -17.19895,-0.098 0.0118,-2.3184 17.19738,0.098 -0.008,2.3185"
         style="fill:#d3d4d3;fill-opacity:1;fill-rule:nonzero;stroke:none;stroke-width:0.447363"
         id="path24" /><path
         d="m 58.346911,4151.0438 -8.631566,-0.05 0.01183,-2.3184 8.631548,0.05"
         style="fill:#d3d4d3;fill-opacity:1;fill-rule:nonzero;stroke:none;stroke-width:0.447363"
         id="path26" /><path
         d="m 2959.7424,3498.6487 -8.6317,-0.043 0.013,-2.3185 8.6315,0.043"
         style="fill:#d3d4d3;fill-opacity:1;fill-rule:nonzero;stroke:none;stroke-width:0.447363"
         id="path28" /><path
         d="m 2933.9126,3514.5813 -17.1985,-0.098 0.012,-2.3184 17.1984,0.097 -0.011,2.3187 m -34.3966,-0.1948 -17.1983,-0.1028 0.012,-2.3187 17.1984,0.103 -0.012,2.3184 m -34.3966,-0.1994 -17.1983,-0.098 0.013,-2.3185 17.1984,0.097 -0.013,2.3186 m -34.3967,-0.1995 -17.1981,-0.098 0.013,-2.3186 17.1983,0.1018 -0.013,2.314 m -34.3967,-0.1947 -17.1982,-0.097 0.013,-2.3187 17.1983,0.098 -0.013,2.3186 m -34.3967,-0.1994 -17.1983,-0.098 0.013,-2.3188 17.1985,0.098 -0.013,2.3184 m -34.3925,-0.1945 -17.198,-0.098 0.012,-2.3184 17.1984,0.098 -0.012,2.3186 m -34.3966,-0.1994 -17.1984,-0.098 0.012,-2.3188 17.1985,0.098 -0.012,2.3187 m -34.3967,-0.1949 -17.1983,-0.1029 0.013,-2.3186 17.1984,0.1029 -0.013,2.3186 m -34.3966,-0.1995 -17.1983,-0.098 0.013,-2.3185 17.1982,0.097 -0.013,2.3185 m -34.3968,-0.1947 -17.198,-0.1029 0.013,-2.3188 17.1985,0.1019 -0.013,2.3186 m -34.3967,-0.1994 -17.1983,-0.097 0.013,-2.3186 17.1983,0.098 -0.013,2.3185 m -34.3967,-0.1993 -17.194,-0.097 0.012,-2.3185 17.1984,0.1018 -0.013,2.314 m -34.3923,-0.1948 -17.1984,-0.098 0.012,-2.3187 17.1982,0.097 -0.012,2.3188 m -34.3968,-0.1992 -17.1983,-0.098 0.013,-2.3185 17.194,0.097 -0.012,2.3186 m -34.3968,-0.1947 -17.1981,-0.097 0.013,-2.3187 17.1984,0.098 -0.013,2.3188 m -34.3965,-0.1996 -17.1983,-0.098 0.013,-2.3186 17.1982,0.097 -0.013,2.3186 m -34.3967,-0.1947 -17.1983,-0.1018 0.013,-2.3141 17.1984,0.098 -0.013,2.3187 m -34.3923,-0.1995 -17.1983,-0.099 0.012,-2.3184 17.1985,0.098 -0.011,2.3186 m -34.3966,-0.1948 -17.1984,-0.1019 0.013,-2.3186 17.194,0.1017 -0.012,2.3188 m -34.3966,-0.1994 -17.1985,-0.098 0.013,-2.3187 17.1941,0.098 -0.011,2.3187 m -34.3966,-0.1995 -17.1984,-0.097 0.013,-2.3187 17.1982,0.1029 -0.013,2.3141 m -34.3967,-0.1949 -17.1983,-0.099 0.013,-2.3184 17.1983,0.097 -0.013,2.3188 m -34.3964,-0.1995 -17.1986,-0.098 0.013,-2.3187 17.1984,0.098 -0.013,2.3187 m -34.3924,-0.1948 -17.1984,-0.1029 0.012,-2.314 17.1985,0.097 -0.012,2.3188 m -34.3966,-0.1993 -17.1983,-0.098 0.013,-2.3184 17.1939,0.097 -0.012,2.3187 m -34.3966,-0.1947 -17.1983,-0.1029 0.013,-2.3185 17.1981,0.1018 -0.013,2.3188 m -34.3966,-0.1996 -17.1984,-0.097 0.013,-2.3187 17.1985,0.098 -0.013,2.3186 m -34.3965,-0.1948 -17.1984,-0.1029 0.013,-2.3188 17.1984,0.1029 -0.013,2.3185 m -34.3967,-0.1992 -17.1941,-0.098 0.012,-2.3185 17.1985,0.097 -0.013,2.3188 m -34.3924,-0.1994 -17.1985,-0.098 0.012,-2.3185 17.1984,0.097 -0.012,2.3187 m -34.3966,-0.1948 -17.1984,-0.097 0.013,-2.3187 17.1984,0.098 -0.013,2.3185 m -34.3968,-0.1994 -17.1983,-0.098 0.013,-2.3185 17.1982,0.098 -0.013,2.3186 m -34.3965,-0.1947 -17.1984,-0.097 0.013,-2.3187 17.1983,0.097 -0.013,2.3188 m -34.3968,-0.1995 -17.1984,-0.098 0.013,-2.3185 17.1983,0.097 -0.013,2.3186 m -34.3923,-0.1946 -17.1984,-0.1028 0.011,-2.3187 17.1983,0.1029 -0.012,2.3188 m -34.3968,-0.1996 -17.1981,-0.098 0.011,-2.3185 17.1982,0.097 -0.012,2.3187 m -34.3966,-0.1993 -17.1984,-0.098 0.013,-2.3187 17.1984,0.1019 -0.013,2.314 m -34.3968,-0.1948 -17.1984,-0.097 0.013,-2.3187 17.1984,0.098 -0.013,2.3187 m -34.3964,-0.1995 -17.1984,-0.097 0.013,-2.3188 17.1982,0.103 -0.013,2.3139 m -34.3968,-0.1948 -17.1983,-0.097 0.013,-2.3186 17.1983,0.097 -0.013,2.3186 m -34.3923,-0.1995 -17.1983,-0.098 0.011,-2.3185 17.1983,0.097 -0.012,2.3185 m -34.3965,-0.1947 -17.1984,-0.1018 0.012,-2.3188 17.1984,0.103 -0.012,2.3185 m -34.3967,-0.1993 -17.1984,-0.097 0.013,-2.3186 17.1942,0.098 -0.012,2.3185 m -34.3967,-0.1947 -17.1982,-0.1018 0.013,-2.3187 17.1982,0.1018 -0.013,2.3187 m -34.3966,-0.1994 -17.1982,-0.098 0.013,-2.3186 17.1982,0.098 -0.013,2.3187 m -34.3967,-0.1948 -17.1938,-0.1029 0.011,-2.3185 17.1984,0.1018 -0.013,2.3187 m -34.3924,-0.1995 -17.1983,-0.097 0.012,-2.3188 17.1983,0.097 -0.011,2.3186 m -34.3968,-0.1993 -17.1983,-0.098 0.013,-2.3186 17.1941,0.098 -0.011,2.3188 m -34.3965,-0.1948 -17.1984,-0.097 0.013,-2.3188 17.1984,0.097 -0.013,2.3188 m -34.3967,-0.1994 -17.1985,-0.098 0.013,-2.3184 17.1982,0.097 -0.013,2.3186 m -34.3968,-0.1948 -17.1984,-0.1018 0.013,-2.3186 17.1983,0.1028 -0.013,2.3186 m -34.3968,-0.1993 -17.1939,-0.098 0.012,-2.3188 17.1983,0.098 -0.013,2.3186 m -34.3924,-0.1947 -17.1983,-0.1018 0.011,-2.3187 17.1984,0.1018 -0.012,2.3188 m -34.3967,-0.1994 -17.1982,-0.098 0.013,-2.3187 17.194,0.097 -0.012,2.3188 m -34.3967,-0.1948 -17.1983,-0.1029 0.013,-2.3186 17.1984,0.1018 -0.013,2.3187 m -34.3967,-0.1995 -17.1982,-0.098 0.0127,-2.3187 17.1982,0.098 -0.013,2.3184 m -34.39653,-0.1993 -17.19842,-0.097 0.0127,-2.3186 17.19843,0.097 -0.0128,2.3188 m -34.39229,-0.1947 -17.19842,-0.1029 0.0109,-2.3139 17.19833,0.098 -0.0109,2.3188 m -34.3968,-0.1995 -17.19833,-0.099 0.0109,-2.3184 17.19843,0.097 -0.0109,2.3188 m -34.39675,-0.195 -17.19839,-0.1018 0.0129,-2.3186 17.19831,0.1028 -0.0128,2.3184 m -34.39663,-0.1993 -17.19838,-0.098 0.013,-2.3186 17.19837,0.098 -0.0129,2.3186 m -34.39674,-0.1947 -17.19838,-0.1029 0.0129,-2.3185 17.19838,0.1017 -0.013,2.3188 m -34.39664,-0.1993 -17.19839,-0.098 0.0129,-2.3185 17.19827,0.098 -0.013,2.3187 m -34.39234,-0.1948 -17.19837,-0.1028 0.0107,-2.3187 17.19828,0.1029 -0.0107,2.3188 m -34.39665,-0.1996 -17.19826,-0.098 0.0107,-2.3185 17.19826,0.098 -0.0107,2.3187 m -34.39664,-0.1993 -17.19827,-0.098 0.0129,-2.3185 17.19825,0.1018 -0.0129,2.3139 m -34.3966,-0.1946 -17.19831,-0.1018 0.0132,-2.3141 17.1983,0.098 -0.0133,2.3186 m -34.39664,-0.1994 -17.19837,-0.098 0.0133,-2.3186 17.1984,0.097 -0.0133,2.3186 m -34.39239,-0.1949 -17.19832,-0.1018 0.008,-2.3187 17.19833,0.1019 -0.008,2.3185 m -34.39665,-0.1992 -17.1983,-0.098 0.008,-2.3187 17.19831,0.097 -0.008,2.3188 m -34.39664,-0.1949 -17.19832,-0.1029 0.013,-2.3184 17.19834,0.1019 -0.0129,2.3185 m -34.39666,-0.1994 -17.19834,-0.097 0.0129,-2.3185 17.19832,0.097 -0.0129,2.3186 m -34.39665,-0.1947 -17.19833,-0.1028 0.0129,-2.3187 17.19832,0.103 -0.013,2.3187 m -34.39668,-0.1995 -17.19833,-0.098 0.0129,-2.3187 17.19832,0.097 -0.0129,2.3186 m -34.39665,-0.1995 -17.19402,-0.097 0.008,-2.3185 17.19834,0.097 -0.0129,2.3187 m -34.39235,-0.1949 -17.19833,-0.1018 0.008,-2.3186 17.19833,0.1029 -0.008,2.3185 m -34.39667,-0.1994 -17.19832,-0.097 0.013,-2.3188 17.19834,0.097 -0.0129,2.3186 m -34.39665,-0.1948 -17.19834,-0.1018 0.013,-2.3186 17.19833,0.1019 -0.013,2.3185 m -34.39668,-0.1993 -17.19831,-0.098 0.0129,-2.3188 17.19834,0.099 -0.013,2.3185 m -34.39665,-0.195 -17.19832,-0.1017 0.013,-2.3188 17.19832,0.1018 -0.013,2.3185 m -34.39449,-0.1991 -17.19749,-0.098 0.0107,-2.3184 17.19876,0.097 -0.0117,2.3187 m -34.39623,-0.1994 -17.19747,-0.098 0.01165,-2.3186 17.19747,0.1018 -0.0117,2.3139 m -34.396235,-0.1946 -17.197466,-0.1029 0.01165,-2.3139 17.197466,0.097 -0.01165,2.3183 m -34.394922,-0.1992 -17.198764,-0.098 0.01168,-2.3187 17.199191,0.098 -0.01201,2.3186 m -34.396238,-0.1948 -17.1974686,-0.1019 0.01211,-2.314 17.1970396,0.098 -0.01169,2.3185 m -34.396223,-0.1993 -17.197466,-0.098 0.01211,-2.3185 17.197028,0.097 -0.01169,2.3186 m -34.394509,-0.1948 -17.199193,-0.1019 0.0117,-2.3186 17.197463,0.1018 -0.01,2.3185 m -34.396663,-0.1992 -17.19703,-0.098 0.01,-2.3187 17.19918,0.098 -0.0121,2.3187 m -34.39622,-0.1949 -17.19877,-0.1019 0.0134,-2.3187 17.19704,0.1018 -0.0116,2.3187 m -34.39623,-0.1995 -17.19746,-0.098 0.012,-2.3186 17.19703,0.097 -0.0117,2.3187 m -34.39625,-0.1995 -17.19746,-0.097 0.0117,-2.3186 17.19918,0.1029 -0.0136,2.314 m -34.39485,-0.1948 -17.19895,-0.098 0.0118,-2.3188 17.19738,0.098 -0.008,2.3185"
         style="fill:#d3d4d3;fill-opacity:1;fill-rule:nonzero;stroke:none;stroke-width:0.447363"
         id="path30" /><path
         d="m 58.346911,3714.6602 -8.631566,-0.05 0.01183,-2.3186 8.631548,0.05"
         style="fill:#d3d4d3;fill-opacity:1;fill-rule:nonzero;stroke:none;stroke-width:0.447363"
         id="path32" /><path
         d="m 2959.7424,3062.2733 -8.6317,-0.049 0.013,-2.3187 8.6315,0.05"
         style="fill:#d3d4d3;fill-opacity:1;fill-rule:nonzero;stroke:none;stroke-width:0.447363"
         id="path34" /><path
         d="m 2933.9126,3078.207 -17.1985,-0.1007 0.012,-2.3188 17.1984,0.1018 -0.011,2.3186 m -34.3966,-0.1994 -17.1983,-0.099 0.012,-2.3188 17.1984,0.099 -0.012,2.3184 m -34.3966,-0.1994 -17.1983,-0.098 0.013,-2.3188 17.1984,0.103 -0.013,2.3131 m -34.3967,-0.1953 -17.1981,-0.096 0.013,-2.3186 17.1983,0.097 -0.013,2.3186 m -34.3967,-0.1994 -17.1982,-0.096 0.013,-2.3187 17.1983,0.096 -0.013,2.3187 m -34.3967,-0.194 -17.1983,-0.099 0.013,-2.3185 17.1985,0.099 -0.013,2.3186 m -34.3925,-0.1994 -17.198,-0.099 0.012,-2.3186 17.1984,0.099 -0.012,2.3186 m -34.3966,-0.1957 -17.1984,-0.099 0.012,-2.3187 17.1985,0.099 -0.012,2.3186 m -34.3967,-0.1989 -17.1983,-0.099 0.013,-2.3188 17.1984,0.099 -0.013,2.3186 m -34.3966,-0.1938 -17.1983,-0.1028 0.013,-2.3187 17.1982,0.1029 -0.013,2.3187 m -34.3968,-0.1994 -17.198,-0.099 0.013,-2.3187 17.1985,0.099 -0.013,2.3187 m -34.3967,-0.1959 -17.1983,-0.1007 0.013,-2.3187 17.1983,0.1019 -0.013,2.3187 m -34.3967,-0.1994 -17.194,-0.097 0.012,-2.3188 17.1984,0.098 -0.013,2.3184 m -34.3923,-0.1988 -17.1984,-0.099 0.012,-2.3185 17.1982,0.099 -0.012,2.3188 m -34.3968,-0.1957 -17.1983,-0.096 0.013,-2.3187 17.194,0.097 -0.012,2.3187 m -34.3968,-0.1994 -17.1981,-0.099 0.013,-2.3186 17.1984,0.099 -0.013,2.3187 m -34.3965,-0.194 -17.1983,-0.099 0.013,-2.3186 17.1982,0.099 -0.013,2.3185 m -34.3967,-0.1989 -17.1983,-0.099 0.013,-2.3184 17.1984,0.099 -0.013,2.3187 m -34.3923,-0.1957 -17.1983,-0.1007 0.012,-2.3188 17.1985,0.1008 -0.011,2.3187 m -34.3966,-0.1996 -17.1984,-0.098 0.013,-2.3186 17.194,0.099 -0.012,2.3184 m -34.3966,-0.1993 -17.1985,-0.099 0.013,-2.3188 17.1941,0.1028 -0.011,2.3132 m -34.3966,-0.1958 -17.1984,-0.096 0.013,-2.3187 17.1982,0.097 -0.013,2.3188 m -34.3967,-0.1991 -17.1983,-0.096 0.013,-2.3184 17.1983,0.095 -0.013,2.3186 m -34.3964,-0.1938 -17.1986,-0.099 0.013,-2.3188 17.1984,0.099 -0.013,2.3185 m -34.3924,-0.1993 -17.1984,-0.099 0.012,-2.3186 17.1985,0.099 -0.012,2.3187 m -34.3966,-0.1956 -17.1983,-0.1019 0.013,-2.3187 17.1939,0.1008 -0.012,2.3188 m -34.3966,-0.1992 -17.1983,-0.099 0.013,-2.3186 17.1981,0.099 -0.013,2.3188 m -34.3966,-0.1938 -17.1984,-0.1028 0.013,-2.3187 17.1985,0.103 -0.013,2.3185 m -34.3965,-0.1995 -17.1984,-0.099 0.013,-2.3188 17.1984,0.099 -0.013,2.3185 m -34.3967,-0.1994 -17.1941,-0.099 0.012,-2.3187 17.1985,0.1018 -0.013,2.3149 m -34.3924,-0.1957 -17.1985,-0.099 0.012,-2.3185 17.1984,0.099 -0.012,2.3188 m -34.3966,-0.1989 -17.1984,-0.099 0.013,-2.3186 17.1984,0.099 -0.013,2.3186 m -34.3968,-0.1957 -17.1983,-0.096 0.013,-2.3187 17.1982,0.097 -0.013,2.3186 m -34.3965,-0.1994 -17.1984,-0.096 0.013,-2.3185 17.1983,0.096 -0.013,2.3185 m -34.3968,-0.1938 -17.1984,-0.103 0.013,-2.3185 17.1983,0.1028 -0.013,2.3186 m -34.3923,-0.1994 -17.1984,-0.099 0.011,-2.3188 17.1983,0.099 -0.012,2.3187 m -34.3968,-0.1954 -17.1981,-0.1007 0.011,-2.3187 17.1982,0.1018 -0.012,2.3187 m -34.3966,-0.1993 -17.1984,-0.099 0.013,-2.3187 17.1984,0.099 -0.013,2.3186 m -34.3968,-0.1996 -17.1984,-0.098 0.013,-2.3188 17.1984,0.103 -0.013,2.3129 m -34.3964,-0.1957 -17.1984,-0.097 0.013,-2.3186 17.1982,0.096 -0.013,2.3184 m -34.3968,-0.1987 -17.1983,-0.097 0.013,-2.3187 17.1983,0.097 -0.013,2.3188 m -34.3923,-0.1939 -17.1983,-0.1008 0.011,-2.315 17.1983,0.099 -0.012,2.3186 m -34.3965,-0.1993 -17.1984,-0.099 0.012,-2.3187 17.1984,0.099 -0.012,2.3187 m -34.3967,-0.1957 -17.1984,-0.1018 0.013,-2.3186 17.1942,0.1018 -0.012,2.3187 m -34.3967,-0.1995 -17.1982,-0.099 0.013,-2.3185 17.1982,0.099 -0.013,2.3186 m -34.3966,-0.1939 -17.1982,-0.1018 0.013,-2.3186 17.1982,0.1028 -0.013,2.3186 m -34.3967,-0.1988 -17.1938,-0.099 0.011,-2.3185 17.1984,0.099 -0.013,2.3187 m -34.3924,-0.1994 -17.1983,-0.099 0.012,-2.3186 17.1983,0.1007 -0.011,2.315 m -34.3968,-0.1958 -17.1983,-0.099 0.013,-2.3188 17.1941,0.099 -0.011,2.3185 m -34.3965,-0.1992 -17.1984,-0.098 0.013,-2.3188 17.1984,0.098 -0.013,2.3188 m -34.3967,-0.1954 -17.1985,-0.1008 0.013,-2.3185 17.1982,0.1008 -0.013,2.3185 m -34.3968,-0.1994 -17.1984,-0.096 0.013,-2.3185 17.1983,0.095 -0.013,2.3186 m -34.3968,-0.1937 -17.1939,-0.1018 0.012,-2.3187 17.1983,0.1008 -0.013,2.3187 m -34.3924,-0.1995 -17.1983,-0.099 0.011,-2.3187 17.1984,0.099 -0.012,2.3185 m -34.3967,-0.1957 -17.1982,-0.1019 0.013,-2.3185 17.194,0.1008 -0.012,2.3185 m -34.3967,-0.1989 -17.1983,-0.099 0.013,-2.3185 17.1984,0.098 -0.013,2.3187 m -34.3967,-0.1995 -17.1982,-0.099 0.0127,-2.3186 17.1982,0.099 -0.013,2.3185 m -34.39653,-0.1937 -17.19842,-0.099 0.0127,-2.3187 17.19843,0.099 -0.0128,2.3187 m -34.39229,-0.2013 -17.19842,-0.097 0.0109,-2.3186 17.19833,0.096 -0.0109,2.3186 m -34.3968,-0.1938 -17.19833,-0.1007 0.0109,-2.3186 17.19843,0.1019 -0.0109,2.3187 m -34.39675,-0.1989 -17.19839,-0.099 0.0129,-2.3186 17.19831,0.099 -0.0128,2.3187 m -34.39663,-0.1956 -17.19838,-0.1019 0.013,-2.3186 17.19837,0.1017 -0.0129,2.3188 m -34.39674,-0.1994 -17.19838,-0.099 0.0129,-2.3186 17.19838,0.099 -0.013,2.3187 m -34.39664,-0.199 -17.19839,-0.099 0.0129,-2.3185 17.19827,0.1029 -0.013,2.3134 m -34.39234,-0.1936 -17.19837,-0.099 0.0107,-2.3186 17.19828,0.099 -0.0107,2.3188 m -34.39665,-0.1996 -17.19826,-0.099 0.0107,-2.3187 17.19826,0.1018 -0.0107,2.315 m -34.39664,-0.1957 -17.19827,-0.1008 0.0129,-2.315 17.19825,0.099 -0.0129,2.3187 m -34.3966,-0.1996 -17.19831,-0.099 0.0132,-2.3185 17.1983,0.099 -0.0133,2.3187 m -34.39664,-0.1956 -17.19837,-0.1007 0.0133,-2.3187 17.1984,0.1007 -0.0133,2.3186 m -34.39239,-0.199 -17.19832,-0.096 0.008,-2.3186 17.19833,0.097 -0.008,2.3187 m -34.39665,-0.1938 -17.1983,-0.1008 0.008,-2.3187 17.19831,0.1007 -0.008,2.3188 m -34.39664,-0.1996 -17.19832,-0.099 0.013,-2.3186 17.19834,0.099 -0.0129,2.3186 m -34.39666,-0.1957 -17.19834,-0.1007 0.0129,-2.3185 17.19832,0.1007 -0.0129,2.3185 m -34.39665,-0.1989 -17.19833,-0.099 0.0129,-2.3186 17.19832,0.099 -0.013,2.3185 m -34.39668,-0.1994 -17.19833,-0.099 0.0129,-2.3186 17.19832,0.099 -0.0129,2.3185 m -34.39665,-0.1937 -17.19402,-0.103 0.008,-2.313 17.19834,0.099 -0.0129,2.3186 m -34.39235,-0.1994 -17.19833,-0.099 0.008,-2.3185 17.19833,0.099 -0.008,2.3187 m -34.39667,-0.1956 -17.19832,-0.1007 0.013,-2.3187 17.19834,0.1008 -0.0129,2.3186 m -34.39665,-0.199 -17.19834,-0.099 0.013,-2.3187 17.19833,0.098 -0.013,2.3187 m -34.39668,-0.1956 -17.19831,-0.1008 0.0129,-2.3185 17.19834,0.1018 -0.013,2.3188 m -34.39665,-0.1995 -17.19832,-0.097 0.013,-2.3187 17.19832,0.096 -0.013,2.3187 m -34.39449,-0.1939 -17.19749,-0.1029 0.0107,-2.3185 17.19876,0.1028 -0.0117,2.3187 m -34.39623,-0.1994 -17.19747,-0.099 0.01165,-2.3187 17.19747,0.099 -0.0117,2.3185 m -34.396235,-0.1987 -17.197466,-0.099 0.01165,-2.3187 17.197466,0.099 -0.01165,2.3187 m -34.394922,-0.1958 -17.198764,-0.1018 0.01168,-2.3185 17.199191,0.1018 -0.01201,2.3187 m -34.396238,-0.1995 -17.1974686,-0.099 0.01211,-2.3185 17.1970396,0.099 -0.01169,2.3186 m -34.396223,-0.1957 -17.197466,-0.1019 0.01211,-2.3186 17.197028,0.1017 -0.01169,2.3187 m -34.394509,-0.199 -17.199193,-0.096 0.0117,-2.3186 17.197463,0.096 -0.01,2.3186 m -34.396663,-0.1938 -17.19703,-0.1008 0.01,-2.3185 17.19918,0.1018 -0.0121,2.3187 m -34.39622,-0.1993 -17.19877,-0.099 0.0134,-2.3186 17.19704,0.098 -0.0116,2.3186 m -34.39623,-0.1958 -17.19746,-0.1018 0.012,-2.3187 17.19703,0.1008 -0.0117,2.3184 m -34.39625,-0.1992 -17.19746,-0.1018 0.0117,-2.3155 17.19918,0.099 -0.0136,2.3186 m -34.39485,-0.1992 -17.19895,-0.099 0.0118,-2.3187 17.19738,0.099 -0.008,2.3185"
         style="fill:#d3d4d3;fill-opacity:1;fill-rule:nonzero;stroke:none;stroke-width:0.447363"
         id="path36" /><path
         d="m 58.346911,3278.2868 -8.631566,-0.053 0.01183,-2.3187 8.631548,0.053"
         style="fill:#d3d4d3;fill-opacity:1;fill-rule:nonzero;stroke:none;stroke-width:0.447363"
         id="path38" /><path
         d="M 2604.3692,4419.1509 H 1319.7899 v 396.6933 h 1284.5793 c 36.5718,0 66.2209,-31.858 66.2209,-71.1585 v -254.3762 c 0,-39.3009 -29.6491,-71.1586 -66.2209,-71.1586"
         style="fill:#ffffff;fill-opacity:1;fill-rule:nonzero;stroke:none;stroke-width:0.447363"
         id="path104" /><g
         id="g112"
         transform="matrix(4.3157666,0,0,4.6372477,-273.53948,2901.7748)"><text
           transform="matrix(1,0,0,-1,450.179,371.405)"
           style="font-variant:normal;font-weight:normal;font-size:6.3969px;font-family:Poppins;-inkscape-font-specification:Poppins-Regular;writing-mode:lr-tb;fill:#7a7b7c;fill-opacity:1;fill-rule:nonzero;stroke:none"
           id="text120"><tspan
             x="0 4.9384069 9.032423 13.126439 16.46562 20.431698 24.314617 26.643089 30.609167 32.937637 37.031654 39.417698 41.125671 45.449974 49.774281 51.347916 55.672222 57.245857 60.585041 64.467957 66.041595 70.135612 74.459915 76.167885 80.133965 81.707603 83.281242 85.609711 86.953064 88.661034 92.364838 96.458855 100.78316 104.12234 108.08842 109.66206 111.23569 115.32971 118.66889 120.37686 123.96552 127.9316 129.50523 131.21321 134.80188 139.12617 141.51222 143.08586 147.17987 150.51906"
             y="0"
             sodipodi:role="line"
             id="tspan114">Consectetur adipiscing elit. Phasellus vel varius </tspan><tspan
             x="0 4.0940161 6.4800596 10.362978 11.936615 13.279964 14.987937 19.926344 24.020359 26.406403 30.730707 35.055012 36.628651 38.957123 43.051136 45.43718 47.145153 50.733814 54.69989 58.793907 60.367546 64.250465 68.344482 69.918114 74.242424 75.950394 80.274696 84.368713 85.942352 90.036369 92.422409 94.130386 98.096458 102.42077 106.38684 108.71532 110.42329 111.99693 113.57056 117.89487 121.98888 123.56252 127.88683"
             y="10.168"
             sodipodi:role="line"
             id="tspan116">orci. Curabitur vehicula dolor eget ligula </tspan><tspan
             x="0 6.5888071 10.913112 12.485919 16.451996 19.791178 23.885195 28.209499 32.533802 36.858109 38.566078 42.890385 44.598358 48.922661 53.016678 55.402721 57.731194 62.055496 63.76347 67.729546 69.303185 70.876823 73.205292 74.913269 78.796181 82.890198 86.984215 91.308517 92.882156 99.470963 103.43704 107.53106 109.85953 113.95354 120.54235 121.8857"
             y="20.335199"
             sodipodi:role="line"
             id="tspan118">malesuada a porta elit condimentum. </tspan></text></g><g
         id="g122"
         transform="matrix(4.3157666,0,0,4.6372477,-273.53948,2901.7748)"><text
           transform="matrix(1,0,0,-1,450.178,382.885)"
           style="font-variant:normal;font-weight:bold;font-size:11px;font-family:Poppins;-inkscape-font-specification:Poppins-Bold;writing-mode:lr-tb;fill:#f3621a;fill-opacity:1;fill-rule:nonzero;stroke:none"
           id="text126"><tspan
             x="0 5.9510002 9.9110003 13.869974 20.645975 27.300974 31.766975 34.098976 40.598999 43.843998 48.309998 52.776779 56.020901"
             y="0"
             sodipodi:role="line"
             id="tspan124">Effect Tittle</tspan></text></g><g
         id="g128"
         transform="matrix(0.43157666,0,0,0.46372477,-273.53948,2917.8512)"><g
           id="g130"
           clip-path="url(#clipPath134)"><path
             d="M 3774.91,3235.44 H 940.203 c -59.121,0 -107.051,47.93 -107.051,107.05 v 612.4 28.95 c 0,59.12 47.93,107.05 107.051,107.05 h 2751.677 83.03 c 33.57,0 65.2,-15.75 85.44,-42.56 l 242.06,-320.67 c 28.81,-38.17 28.81,-90.81 0,-128.99 L 3860.35,3278 c -15.99,-21.17 -39.09,-35.46 -64.64,-40.52 -6.79,-1.35 -13.75,-2.04 -20.8,-2.04 m -61.57,635.51 c -124.68,0 -225.75,-101.07 -225.75,-225.74 0,-124.68 101.07,-225.75 225.75,-225.75 124.67,0 225.74,101.07 225.74,225.75 0,124.67 -101.07,225.74 -225.74,225.74"
             style="fill:url(#linearGradient140);fill-opacity:1;fill-rule:nonzero;stroke:none"
             id="path142" /></g></g><g
         id="g144"
         transform="matrix(4.3157666,0,0,4.6372477,-273.53948,2917.8512)"><text
           transform="matrix(1,0,0,-1,132.674,370.756)"
           style="font-variant:normal;font-weight:normal;font-size:6.3969px;font-family:Poppins;-inkscape-font-specification:Poppins-Regular;writing-mode:lr-tb;fill:#ffffff;fill-opacity:1;fill-rule:nonzero;stroke:none"
           id="text152"><tspan
             x="0 4.9384069 9.032423 13.126439 16.46562 20.431698 24.314617 26.643089 30.609167 32.937637 37.031654 39.417698 41.125671 45.449974 49.774281 51.347916 55.672222 57.245857 60.585041 64.467957 66.041595 70.135612 74.459915 76.167885 80.133965 81.707603 83.281242 85.609711 86.953064 88.661034 92.364838 96.458855 100.78316 104.12234 108.08842 109.66206 111.23569 115.32971 118.66889 120.37686 123.96552 127.9316 129.50523 131.21321 134.80188 139.12617 141.51222 143.08586 147.17987 150.51906"
             y="0"
             sodipodi:role="line"
             id="tspan146">Consectetur adipiscing elit. Phasellus vel varius </tspan><tspan
             x="0 4.0940161 6.4800596 10.362978 11.936615 13.279964 14.987937 19.926344 24.020359 26.406403 30.730707 35.055012 36.628651 38.957123 43.051136 45.43718 47.145153 50.733814 54.69989 58.793907 60.367546 64.250465 68.344482 69.918114 74.242424 75.950394 80.274696 84.368713 85.942352 90.036369 92.422409 94.130386 98.096458 102.42077 106.38684 108.71532 110.42329 111.99693 113.57056 117.89487 121.98888 123.56252 127.88683"
             y="10.1668"
             sodipodi:role="line"
             id="tspan148">orci. Curabitur vehicula dolor eget ligula </tspan><tspan
             x="0 6.5888071 10.913112 12.486749 16.452827 19.792009 23.886024 28.210329 32.534634 36.858936 38.56691 42.891216 44.599186 48.923492 53.017506 55.403549 57.732021 62.056328 63.764297 67.730377 69.304016 70.877655 73.206123 74.914093 78.797012 82.891029 86.985046 91.309349 92.882988 99.471794 103.43787 107.53189 109.86036 113.95438 120.54318 121.88654"
             y="20.334801"
             sodipodi:role="line"
             id="tspan150">malesuada a porta elit condimentum. </tspan></text><text
           transform="matrix(1,0,0,-1,132.674,382.2372)"
           style="font-variant:normal;font-weight:bold;font-size:11px;font-family:Poppins;-inkscape-font-specification:Poppins-Bold;writing-mode:lr-tb;fill:#ffffff;fill-opacity:1;fill-rule:nonzero;stroke:none"
           id="text156"><tspan
             x="0 9.481451 18.050802 26.564472 33.802738 41.678726 45.110371 52.711922 57.056664 62.622089 68.188499 72.533241"
             y="0"
             sodipodi:role="line"
             id="tspan154">Cause Tittle</tspan></text></g><path
         d="M 2604.3692,3973.655 H 1319.7899 v 396.6934 h 1284.5793 c 36.5718,0 66.2209,-31.8624 66.2209,-71.1586 v -254.3809 c 0,-39.2959 -29.6491,-71.1539 -66.2209,-71.1539"
         style="fill:#ffffff;fill-opacity:1;fill-rule:nonzero;stroke:none;stroke-width:0.447363"
         id="path158" /><g
         id="g160"
         transform="matrix(4.3157666,0,0,4.6372477,-273.53948,2901.7748)"><text
           transform="matrix(1,0,0,-1,450.179,275.335)"
           style="font-variant:normal;font-weight:normal;font-size:6.3969px;font-family:Poppins;-inkscape-font-specification:Poppins-Regular;writing-mode:lr-tb;fill:#7a7b7c;fill-opacity:1;fill-rule:nonzero;stroke:none"
           id="text168"><tspan
             x="0 4.9384069 9.032423 13.126439 16.46562 20.431698 24.314617 26.643089 30.609167 32.937637 37.031654 39.417698 41.125671 45.449974 49.774281 51.347916 55.672222 57.245857 60.585041 64.467957 66.041595 70.135612 74.459915 76.167885 80.133965 81.707603 83.281242 85.609711 86.953064 88.661034 92.364838 96.458855 100.78316 104.12234 108.08842 109.66206 111.23569 115.32971 118.66889 120.37686 123.96552 127.9316 129.50523 131.21321 134.80188 139.12617 141.51222 143.08586 147.17987 150.51906"
             y="0"
             sodipodi:role="line"
             id="tspan162">Consectetur adipiscing elit. Phasellus vel varius </tspan><tspan
             x="0 4.0940161 6.4800596 10.362978 11.936615 13.279964 14.987937 19.926344 24.020359 26.406403 30.730707 35.055012 36.628651 38.957123 43.051136 45.43718 47.145153 50.733814 54.69989 58.793907 60.367546 64.250465 68.344482 69.918114 74.242424 75.950394 80.274696 84.368713 85.942352 90.036369 92.422409 94.130386 98.096458 102.42077 106.38684 108.71532 110.42329 111.99693 113.57056 117.89487 121.98888 123.56252 127.88683"
             y="10.1672"
             sodipodi:role="line"
             id="tspan164">orci. Curabitur vehicula dolor eget ligula </tspan><tspan
             x="0 6.5888071 10.913112 12.485919 16.451996 19.791178 23.885195 28.209499 32.533802 36.858109 38.566078 42.890385 44.598358 48.922661 53.016678 55.402721 57.731194 62.055496 63.76347 67.729546 69.303185 70.876823 73.205292 74.913269 78.796181 82.890198 86.984215 91.308517 92.882156 99.470963 103.43704 107.53106 109.85953 113.95354 120.54235 121.8857"
             y="20.335199"
             sodipodi:role="line"
             id="tspan166">malesuada a porta elit condimentum. </tspan></text></g><g
         id="g170"
         transform="matrix(4.3157666,0,0,4.6372477,-273.53948,2901.7748)"><text
           transform="matrix(1,0,0,-1,450.178,286.816)"
           style="font-variant:normal;font-weight:bold;font-size:11px;font-family:Poppins;-inkscape-font-specification:Poppins-Bold;writing-mode:lr-tb;fill:#8c198d;fill-opacity:1;fill-rule:nonzero;stroke:none"
           id="text174"><tspan
             x="0 5.9510002 9.9110003 13.869974 20.645975 27.300974 31.766975 34.098976 40.598999 43.843998 48.309998 52.776779 56.020901"
             y="0"
             sodipodi:role="line"
             id="tspan172">Effect Tittle</tspan></text></g><g
         id="g176"
         transform="matrix(0.43157666,0,0,0.46372477,-273.53948,2917.8512)"><g
           id="g178"
           clip-path="url(#clipPath182)"><path
             d="M 3774.91,2276.79 H 940.203 c -59.121,0 -107.051,47.93 -107.051,107.05 v 613.54 27.81 c 0,59.12 47.93,107.05 107.051,107.05 h 2751.677 83.03 c 33.57,0 65.2,-15.75 85.44,-42.56 L 4102.41,2769 c 28.81,-38.16 28.81,-90.82 0,-128.98 l -242.06,-320.67 c -20.24,-26.81 -51.87,-42.56 -85.44,-42.56 v 0 m -61.57,633.46 c -124.68,0 -225.75,-101.06 -225.75,-225.74 0,-124.68 101.07,-225.74 225.75,-225.74 124.67,0 225.74,101.06 225.74,225.74 0,124.68 -101.07,225.74 -225.74,225.74"
             style="fill:url(#linearGradient188);fill-opacity:1;fill-rule:nonzero;stroke:none"
             id="path190" /></g></g><g
         id="g192"
         transform="matrix(4.3157666,0,0,4.6372477,-273.53948,2917.8512)"><text
           transform="matrix(1,0,0,-1,132.674,274.687)"
           style="font-variant:normal;font-weight:normal;font-size:6.3969px;font-family:Poppins;-inkscape-font-specification:Poppins-Regular;writing-mode:lr-tb;fill:#ffffff;fill-opacity:1;fill-rule:nonzero;stroke:none"
           id="text200"><tspan
             x="0 4.9384069 9.032423 13.126439 16.46562 20.431698 24.314617 26.643089 30.609167 32.937637 37.031654 39.417698 41.125671 45.449974 49.774281 51.347916 55.672222 57.245857 60.585041 64.467957 66.041595 70.135612 74.459915 76.167885 80.133965 81.707603 83.281242 85.609711 86.953064 88.661034 92.364838 96.458855 100.78316 104.12234 108.08842 109.66206 111.23569 115.32971 118.66889 120.37686 123.96552 127.9316 129.50523 131.21321 134.80188 139.12617 141.51222 143.08586 147.17987 150.51906"
             y="0"
             sodipodi:role="line"
             id="tspan194">Consectetur adipiscing elit. Phasellus vel varius </tspan><tspan
             x="0 4.0940161 6.4800596 10.362978 11.936615 13.279964 14.987937 19.926344 24.020359 26.406403 30.730707 35.055012 36.628651 38.957123 43.051136 45.43718 47.145153 50.733814 54.69989 58.793907 60.367546 64.250465 68.344482 69.918114 74.242424 75.950394 80.274696 84.368713 85.942352 90.036369 92.422409 94.130386 98.096458 102.42077 106.38684 108.71532 110.42329 111.99693 113.57056 117.89487 121.98888 123.56252 127.88683"
             y="10.1672"
             sodipodi:role="line"
             id="tspan196">orci. Curabitur vehicula dolor eget ligula </tspan><tspan
             x="0 6.5888071 10.913112 12.486749 16.452827 19.792009 23.886024 28.210329 32.534634 36.858936 38.56691 42.891216 44.599186 48.923492 53.017506 55.403549 57.732021 62.056328 63.764297 67.730377 69.304016 70.877655 73.206123 74.914093 78.797012 82.891029 86.985046 91.309349 92.882988 99.471794 103.43787 107.53189 109.86036 113.95438 120.54318 121.88654"
             y="20.335199"
             sodipodi:role="line"
             id="tspan198">malesuada a porta elit condimentum. </tspan></text><text
           transform="matrix(1,0,0,-1,132.674,286.1678)"
           style="font-variant:normal;font-weight:bold;font-size:11px;font-family:Poppins;-inkscape-font-specification:Poppins-Bold;writing-mode:lr-tb;fill:#ffffff;fill-opacity:1;fill-rule:nonzero;stroke:none"
           id="text204"><tspan
             x="0 9.481451 18.050802 26.564472 33.802738 41.678726 45.110371 52.711922 57.056664 62.622089 68.188499 72.533241"
             y="0"
             sodipodi:role="line"
             id="tspan202">Cause Tittle</tspan></text></g><path
         d="M 2604.3692,3528.1546 H 1319.7899 v 396.6934 h 1284.5793 c 36.5718,0 66.2209,-31.8579 66.2209,-71.1538 v -254.3809 c 0,-39.3007 -29.6491,-71.1587 -66.2209,-71.1587"
         style="fill:#ffffff;fill-opacity:1;fill-rule:nonzero;stroke:none;stroke-width:0.447363"
         id="path206" /><g
         id="g208"
         transform="matrix(4.3157666,0,0,4.6372477,-273.53948,2901.7748)"><text
           transform="matrix(1,0,0,-1,450.179,179.266)"
           style="font-variant:normal;font-weight:normal;font-size:6.3969px;font-family:Poppins;-inkscape-font-specification:Poppins-Regular;writing-mode:lr-tb;fill:#7a7b7c;fill-opacity:1;fill-rule:nonzero;stroke:none"
           id="text216"><tspan
             x="0 4.9384069 9.032423 13.126439 16.46562 20.431698 24.314617 26.643089 30.609167 32.937637 37.031654 39.417698 41.125671 45.449974 49.774281 51.347916 55.672222 57.245857 60.585041 64.467957 66.041595 70.135612 74.459915 76.167885 80.133965 81.707603 83.281242 85.609711 86.953064 88.661034 92.364838 96.458855 100.78316 104.12234 108.08842 109.66206 111.23569 115.32971 118.66889 120.37686 123.96552 127.9316 129.50523 131.21321 134.80188 139.12617 141.51222 143.08586 147.17987 150.51906"
             y="0"
             sodipodi:role="line"
             id="tspan210">Consectetur adipiscing elit. Phasellus vel varius </tspan><tspan
             x="0 4.0940161 6.4800596 10.362978 11.936615 13.279964 14.987937 19.926344 24.020359 26.406403 30.730707 35.055012 36.628651 38.957123 43.051136 45.43718 47.145153 50.733814 54.69989 58.793907 60.367546 64.250465 68.344482 69.918114 74.242424 75.950394 80.274696 84.368713 85.942352 90.036369 92.422409 94.130386 98.096458 102.42077 106.38684 108.71532 110.42329 111.99693 113.57056 117.89487 121.98888 123.56252 127.88683"
             y="10.1672"
             sodipodi:role="line"
             id="tspan212">orci. Curabitur vehicula dolor eget ligula </tspan><tspan
             x="0 6.5888071 10.913112 12.485919 16.451996 19.791178 23.885195 28.209499 32.533802 36.858109 38.566078 42.890385 44.598358 48.922661 53.016678 55.402721 57.731194 62.055496 63.76347 67.729546 69.303185 70.876823 73.205292 74.913269 78.796181 82.890198 86.984215 91.308517 92.882156 99.470963 103.43704 107.53106 109.85953 113.95354 120.54235 121.8857"
             y="20.335199"
             sodipodi:role="line"
             id="tspan214">malesuada a porta elit condimentum. </tspan></text></g><g
         id="g218"
         transform="matrix(4.3157666,0,0,4.6372477,-273.53948,2901.7748)"><text
           transform="matrix(1,0,0,-1,450.178,190.747)"
           style="font-variant:normal;font-weight:bold;font-size:11px;font-family:Poppins;-inkscape-font-specification:Poppins-Bold;writing-mode:lr-tb;fill:#3c80cb;fill-opacity:1;fill-rule:nonzero;stroke:none"
           id="text222"><tspan
             x="0 5.9510002 9.9110003 13.869974 20.645975 27.300974 31.766975 34.098976 40.598999 43.843998 48.309998 52.776779 56.020901"
             y="0"
             sodipodi:role="line"
             id="tspan220">Effect Tittle</tspan></text></g><g
         id="g224"
         transform="matrix(0.43157666,0,0,0.46372477,-273.53948,2917.8512)"><g
           id="g226"
           clip-path="url(#clipPath230)"><path
             d="M 3774.91,1316.09 H 940.203 c -59.121,0 -107.051,47.93 -107.051,107.06 v 606.72 34.62 c 0,59.12 47.93,107.05 107.051,107.05 h 2751.677 83.03 c 33.57,0 65.2,-15.75 85.44,-42.56 l 242.06,-320.67 c 28.81,-38.16 28.81,-90.82 0,-128.98 l -242.06,-320.68 c -20.24,-26.8 -51.87,-42.56 -85.44,-42.56 v 0 m -61.57,633.47 c -124.68,0 -225.75,-101.06 -225.75,-225.74 0,-124.68 101.07,-225.74 225.75,-225.74 124.67,0 225.74,101.06 225.74,225.74 0,124.68 -101.07,225.74 -225.74,225.74"
             style="fill:url(#linearGradient236);fill-opacity:1;fill-rule:nonzero;stroke:none"
             id="path238" /></g></g><g
         id="g240"
         transform="matrix(4.3157666,0,0,4.6372477,-273.53948,2917.8512)"><text
           transform="matrix(1,0,0,-1,132.674,178.618)"
           style="font-variant:normal;font-weight:normal;font-size:6.3969px;font-family:Poppins;-inkscape-font-specification:Poppins-Regular;writing-mode:lr-tb;fill:#ffffff;fill-opacity:1;fill-rule:nonzero;stroke:none"
           id="text248"><tspan
             x="0 4.9384069 9.032423 13.126439 16.46562 20.431698 24.314617 26.643089 30.609167 32.937637 37.031654 39.417698 41.125671 45.449974 49.774281 51.347916 55.672222 57.245857 60.585041 64.467957 66.041595 70.135612 74.459915 76.167885 80.133965 81.707603 83.281242 85.609711 86.953064 88.661034 92.364838 96.458855 100.78316 104.12234 108.08842 109.66206 111.23569 115.32971 118.66889 120.37686 123.96552 127.9316 129.50523 131.21321 134.80188 139.12617 141.51222 143.08586 147.17987 150.51906"
             y="0"
             sodipodi:role="line"
             id="tspan242">Consectetur adipiscing elit. Phasellus vel varius </tspan><tspan
             x="0 4.0940161 6.4800596 10.362978 11.936615 13.279964 14.987937 19.926344 24.020359 26.406403 30.730707 35.055012 36.628651 38.957123 43.051136 45.43718 47.145153 50.733814 54.69989 58.793907 60.367546 64.250465 68.344482 69.918114 74.242424 75.950394 80.274696 84.368713 85.942352 90.036369 92.422409 94.130386 98.096458 102.42077 106.38684 108.71532 110.42329 111.99693 113.57056 117.89487 121.98888 123.56252 127.88683"
             y="10.168"
             sodipodi:role="line"
             id="tspan244">orci. Curabitur vehicula dolor eget ligula </tspan><tspan
             x="0 6.5888071 10.913112 12.486749 16.452827 19.792009 23.886024 28.210329 32.534634 36.858936 38.56691 42.891216 44.599186 48.923492 53.017506 55.403549 57.732021 62.056328 63.764297 67.730377 69.304016 70.877655 73.206123 74.914093 78.797012 82.891029 86.985046 91.309349 92.882988 99.471794 103.43787 107.53189 109.86036 113.95438 120.54318 121.88654"
             y="20.335199"
             sodipodi:role="line"
             id="tspan246">malesuada a porta elit condimentum. </tspan></text><text
           transform="matrix(1,0,0,-1,132.674,190.0988)"
           style="font-variant:normal;font-weight:bold;font-size:11px;font-family:Poppins;-inkscape-font-specification:Poppins-Bold;writing-mode:lr-tb;fill:#ffffff;fill-opacity:1;fill-rule:nonzero;stroke:none"
           id="text252"><tspan
             x="0 9.481451 18.050802 26.564472 33.802738 41.678726 45.110371 52.711922 57.056664 62.622089 68.188499 72.533241"
             y="0"
             sodipodi:role="line"
             id="tspan250">Cause Tittle</tspan></text></g><path
         d="M 2604.3692,3082.6581 H 1319.7899 v 396.6942 h 1284.5793 c 36.5718,0 66.2209,-31.8578 66.2209,-71.1586 v -254.3752 c 0,-39.3007 -29.6491,-71.1604 -66.2209,-71.1604"
         style="fill:#ffffff;fill-opacity:1;fill-rule:nonzero;stroke:none;stroke-width:0.447363"
         id="path254" /><g
         id="g256"
         transform="matrix(4.3157666,0,0,4.6372477,-273.53948,2901.7748)"><text
           transform="matrix(1,0,0,-1,450.179,83.1969)"
           style="font-variant:normal;font-weight:normal;font-size:6.3969px;font-family:Poppins;-inkscape-font-specification:Poppins-Regular;writing-mode:lr-tb;fill:#7a7b7c;fill-opacity:1;fill-rule:nonzero;stroke:none"
           id="text264"><tspan
             x="0 4.9384069 9.032423 13.126439 16.46562 20.431698 24.314617 26.643089 30.609167 32.937637 37.031654 39.417698 41.125671 45.449974 49.774281 51.347916 55.672222 57.245857 60.585041 64.467957 66.041595 70.135612 74.459915 76.167885 80.133965 81.707603 83.281242 85.609711 86.953064 88.661034 92.364838 96.458855 100.78316 104.12234 108.08842 109.66206 111.23569 115.32971 118.66889 120.37686 123.96552 127.9316 129.50523 131.21321 134.80188 139.12617 141.51222 143.08586 147.17987 150.51906"
             y="0"
             sodipodi:role="line"
             id="tspan258">Consectetur adipiscing elit. Phasellus vel varius </tspan><tspan
             x="0 4.0940161 6.4800596 10.362978 11.936615 13.279964 14.987937 19.926344 24.020359 26.406403 30.730707 35.055012 36.628651 38.957123 43.051136 45.43718 47.145153 50.733814 54.69989 58.793907 60.367546 64.250465 68.344482 69.918114 74.242424 75.950394 80.274696 84.368713 85.942352 90.036369 92.422409 94.130386 98.096458 102.42077 106.38684 108.71532 110.42329 111.99693 113.57056 117.89487 121.98888 123.56252 127.88683"
             y="10.168"
             sodipodi:role="line"
             id="tspan260">orci. Curabitur vehicula dolor eget ligula </tspan><tspan
             x="0 6.5888071 10.913112 12.485919 16.451996 19.791178 23.885195 28.209499 32.533802 36.858109 38.566078 42.890385 44.598358 48.922661 53.016678 55.402721 57.731194 62.055496 63.76347 67.729546 69.303185 70.876823 73.205292 74.913269 78.796181 82.890198 86.984215 91.308517 92.882156 99.470963 103.43704 107.53106 109.85953 113.95354 120.54235 121.8857"
             y="20.334801"
             sodipodi:role="line"
             id="tspan262">malesuada a porta elit condimentum. </tspan></text></g><g
         id="g266"
         transform="matrix(4.3157666,0,0,4.6372477,-273.53948,2901.7748)"><text
           transform="matrix(1,0,0,-1,450.178,94.677)"
           style="font-variant:normal;font-weight:bold;font-size:11px;font-family:Poppins;-inkscape-font-specification:Poppins-Bold;writing-mode:lr-tb;fill:#39ad92;fill-opacity:1;fill-rule:nonzero;stroke:none"
           id="text270"><tspan
             x="0 5.9510002 9.9110003 13.869974 20.645975 27.300974 31.766975 34.098976 40.598999 43.843998 48.309998 52.776779 56.020901"
             y="0"
             sodipodi:role="line"
             id="tspan268">Effect Tittle</tspan></text></g><g
         id="g272"
         transform="matrix(0.43157666,0,0,0.46372477,-273.53948,2917.8512)"><g
           id="g274"
           clip-path="url(#clipPath278)"><path
             d="M 3774.91,355.398 H 940.203 c -59.121,0 -107.051,47.934 -107.051,107.051 v 599.911 41.44 c 0,59.12 47.93,107.05 107.051,107.05 h 2751.677 83.03 c 33.57,0 65.2,-15.75 85.44,-42.56 l 242.06,-320.669 c 28.81,-38.172 28.81,-90.82 0,-128.992 L 3860.35,397.961 c -20.24,-26.813 -51.87,-42.563 -85.44,-42.563 v 0 m -61.57,633.473 c -124.68,0 -225.75,-101.07 -225.75,-225.742 0,-124.68 101.07,-225.75 225.75,-225.75 124.67,0 225.74,101.07 225.74,225.75 0,124.672 -101.07,225.742 -225.74,225.742"
             style="fill:url(#linearGradient284);fill-opacity:1;fill-rule:nonzero;stroke:none"
             id="path286" /></g></g><g
         id="g288"
         transform="matrix(4.3157666,0,0,4.6372477,-273.53948,2917.8512)"><text
           transform="matrix(1,0,0,-1,132.674,82.548)"
           style="font-variant:normal;font-weight:normal;font-size:6.3969px;font-family:Poppins;-inkscape-font-specification:Poppins-Regular;writing-mode:lr-tb;fill:#ffffff;fill-opacity:1;fill-rule:nonzero;stroke:none"
           id="text296"><tspan
             x="0 4.9384069 9.032423 13.126439 16.46562 20.431698 24.314617 26.643089 30.609167 32.937637 37.031654 39.417698 41.125671 45.449974 49.774281 51.347916 55.672222 57.245857 60.585041 64.467957 66.041595 70.135612 74.459915 76.167885 80.133965 81.707603 83.281242 85.609711 86.953064 88.661034 92.364838 96.458855 100.78316 104.12234 108.08842 109.66206 111.23569 115.32971 118.66889 120.37686 123.96552 127.9316 129.50523 131.21321 134.80188 139.12617 141.51222 143.08586 147.17987 150.51906"
             y="0"
             sodipodi:role="line"
             id="tspan290">Consectetur adipiscing elit. Phasellus vel varius </tspan><tspan
             x="0 4.0940161 6.4800596 10.362978 11.936615 13.279964 14.987937 19.926344 24.020359 26.406403 30.730707 35.055012 36.628651 38.957123 43.051136 45.43718 47.145153 50.733814 54.69989 58.793907 60.367546 64.250465 68.344482 69.918114 74.242424 75.950394 80.274696 84.368713 85.942352 90.036369 92.422409 94.130386 98.096458 102.42077 106.38684 108.71532 110.42329 111.99693 113.57056 117.89487 121.98888 123.56252 127.88683"
             y="10.1672"
             sodipodi:role="line"
             id="tspan292">orci. Curabitur vehicula dolor eget ligula </tspan><tspan
             x="0 6.5888071 10.913112 12.486749 16.452827 19.792009 23.886024 28.210329 32.534634 36.858936 38.56691 42.891216 44.599186 48.923492 53.017506 55.403549 57.732021 62.056328 63.764297 67.730377 69.304016 70.877655 73.206123 74.914093 78.797012 82.891029 86.985046 91.309349 92.882988 99.471794 103.43787 107.53189 109.86036 113.95438 120.54318 121.88654"
             y="20.335199"
             sodipodi:role="line"
             id="tspan294">malesuada a porta elit condimentum. </tspan></text><text
           transform="matrix(1,0,0,-1,132.674,94.0288)"
           style="font-variant:normal;font-weight:bold;font-size:11px;font-family:Poppins;-inkscape-font-specification:Poppins-Bold;writing-mode:lr-tb;fill:#ffffff;fill-opacity:1;fill-rule:nonzero;stroke:none"
           id="text300"><tspan
             x="0 9.481451 18.050802 26.564472 33.802738 41.678726 45.110371 52.711922 57.056664 62.622089 68.188499 72.533241"
             y="0"
             sodipodi:role="line"
             id="tspan298">Cause Tittle</tspan></text></g><g
         id="g302"
         transform="matrix(0.43157666,0,0,0.46372477,-273.53948,2917.8512)"><g
           id="g304"
           clip-path="url(#clipPath308)"><path
             d="m 3713.34,537.379 c -124.68,0 -225.75,101.07 -225.75,225.75 0,124.672 101.07,225.742 225.75,225.742 124.67,0 225.74,-101.07 225.74,-225.742 0,-124.68 -101.07,-225.75 -225.74,-225.75"
             style="fill:url(#linearGradient314);fill-opacity:1;fill-rule:nonzero;stroke:none"
             id="path316" /></g></g><path
         d="m 1430.7913,3281.0038 c 0,-57.8135 -43.6195,-104.6822 -97.424,-104.6822 -53.8089,0 -97.4285,46.8687 -97.4285,104.6822 0,57.8172 43.6196,104.6853 97.4285,104.6853 53.8045,0 97.424,-46.8681 97.424,-104.6853"
         style="fill:#f9fcfc;fill-opacity:1;fill-rule:nonzero;stroke:none;stroke-width:0.447363"
         id="path318" /><path
         d="m 177.46679,3328.8364 c 0,1.7298 -1.30335,3.1302 -2.91313,3.1302 -1.6098,0 -2.91747,-1.4004 -2.91747,-3.1302 0,-1.73 1.30767,-3.1337 2.91747,-3.1337 1.60978,0 2.91313,1.4037 2.91313,3.1337 z m 46.3686,26.3758 c -4.8466,-5.2057 -11.81225,-6.6442 -17.9018,-4.4596 l -25.89028,-27.8198 c -3.03398,-3.2643 -7.94963,-3.2643 -10.98794,0 -3.0383,3.2604 -3.0383,8.5428 0,11.8014 l 25.91185,27.8471 c -2.00251,6.5338 -0.67757,14.037 4.1345,19.2079 4.49704,4.832 10.8326,6.4782 16.5855,4.9481 1.10484,-0.2924 1.49325,-1.767 0.69052,-2.6294 l -9.03289,-9.7016 1.37672,-8.8562 8.24311,-1.4742 9.0286,9.6964 c 0.79841,0.8622 2.17513,0.4639 2.44272,-0.7153 1.43285,-6.1863 -0.0992,-13.0063 -4.60061,-17.8448"
         style="fill:#ffffff;fill-opacity:1;fill-rule:nonzero;stroke:none;stroke-width:0.447363"
         id="path320" /><g
         id="g322"
         transform="matrix(0.43157666,0,0,0.46372477,-273.53948,2917.8512)"><g
           id="g324"
           clip-path="url(#clipPath328)"><path
             d="m 3713.34,1498.08 c -124.68,0 -225.75,101.06 -225.75,225.74 0,124.68 101.07,225.74 225.75,225.74 124.67,0 225.74,-101.06 225.74,-225.74 0,-124.68 -101.07,-225.74 -225.74,-225.74"
             style="fill:url(#linearGradient334);fill-opacity:1;fill-rule:nonzero;stroke:none"
             id="path336" /></g></g><path
         d="m 1430.7913,3726.5037 c 0,-57.8172 -43.6195,-104.6811 -97.424,-104.6811 -53.8089,0 -97.4285,46.8639 -97.4285,104.6811 0,57.8171 43.6196,104.6812 97.4285,104.6812 53.8045,0 97.424,-46.8641 97.424,-104.6812"
         style="fill:#f9fcfc;fill-opacity:1;fill-rule:nonzero;stroke:none;stroke-width:0.447363"
         id="path338" /><path
         d="m 219.675,3829.1399 -8.74375,-56.3703 c -0.31937,-1.9942 -2.28735,-3.1579 -4.00935,-2.3745 l -15.13107,6.8076 -7.71228,-10.0813 c -1.70041,-2.2352 -5.15735,-1.0203 -5.15735,2.0589 v 10.508 l 29.25227,38.2897 c 0.56969,0.7513 -0.37978,1.7251 -1.04442,1.0899 l -34.88864,-33.0405 -12.90845,5.8197 c -2.18983,0.9925 -2.46819,4.2803 -0.26758,5.6343 l 56.28621,34.8907 c 2.09746,1.3076 4.7344,-0.5982 4.32441,-3.2322"
         style="fill:#ffffff;fill-opacity:1;fill-rule:nonzero;stroke:none;stroke-width:0.447363"
         id="path340" /><g
         id="g342"
         transform="matrix(0.43157666,0,0,0.46372477,-273.53948,2917.8512)"><g
           id="g344"
           clip-path="url(#clipPath348)"><path
             d="m 3713.34,2458.77 c -124.68,0 -225.75,101.06 -225.75,225.74 0,124.68 101.07,225.74 225.75,225.74 124.67,0 225.74,-101.06 225.74,-225.74 0,-124.68 -101.07,-225.74 -225.74,-225.74"
             style="fill:url(#linearGradient354);fill-opacity:1;fill-rule:nonzero;stroke:none"
             id="path356" /></g></g><path
         d="m 1430.7913,4171.9995 c 0,-57.8172 -43.6195,-104.6814 -97.424,-104.6814 -53.8089,0 -97.4285,46.8642 -97.4285,104.6814 0,57.8172 43.6196,104.6812 97.4285,104.6812 53.8045,0 97.424,-46.864 97.424,-104.6812"
         style="fill:#f9fcfc;fill-opacity:1;fill-rule:nonzero;stroke:none;stroke-width:0.447363"
         id="path358" /><path
         d="m 187.39738,4229.0515 h 19.42525 l -0.005,-5.0037 c 0,-0.7 -0.28915,-1.7296 -0.64736,-2.3093 l -2.07589,-3.3527 c -0.63872,-1.0296 -2.08882,-1.8642 -3.23251,-1.8642 h -7.49648 c -1.14798,0 -2.59809,0.8346 -3.23683,1.8642 l -2.07155,3.3527 c -0.42728,0.6817 -0.65169,1.484 -0.65602,2.3093 z m 11.6612,43.8405 c 0,1.1546 -0.8761,2.0868 -1.94643,2.0868 -7.50077,0 -13.59897,-6.557 -13.59897,-14.612 0,-1.1547 0.86747,-2.0868 1.93779,-2.0868 1.07462,0 1.94641,0.9321 1.94641,2.0868 0,5.7548 4.35893,10.4385 9.71477,10.4385 1.07033,0 1.94643,0.932 1.94643,2.0867 z m -2.01115,10.4385 c 11.83384,0.043 21.44072,-10.2577 21.44072,-22.9637 0,-5.7919 -1.99819,-11.0737 -5.29112,-15.108 -2.00683,-2.4578 -5.14439,-7.6007 -6.34417,-11.9317 l -0.013,-0.1062 H 187.3844 l -0.013,0.1062 c -1.19977,4.331 -4.33303,9.4739 -6.33986,11.9317 -3.29726,4.0343 -5.29113,9.3161 -5.29113,15.108 0,12.1357 8.91639,22.9218 21.30694,22.9637"
         style="fill:#ffffff;fill-opacity:1;fill-rule:nonzero;stroke:none;stroke-width:0.447363"
         id="path360" /><g
         id="g362"
         transform="matrix(0.43157666,0,0,0.46372477,-273.53948,2917.8512)"><g
           id="g364"
           clip-path="url(#clipPath368)"><path
             d="m 3713.34,3419.46 c -124.68,0 -225.75,101.07 -225.75,225.75 0,124.67 101.07,225.74 225.75,225.74 124.67,0 225.74,-101.07 225.74,-225.74 0,-124.68 -101.07,-225.75 -225.74,-225.75"
             style="fill:url(#linearGradient374);fill-opacity:1;fill-rule:nonzero;stroke:none"
             id="path376" /></g></g><path
         d="m 1430.7913,4617.4998 c 0,-57.8172 -43.6195,-104.6858 -97.424,-104.6858 -53.8089,0 -97.4285,46.8686 -97.4285,104.6858 0,57.8125 43.6196,104.6812 97.4285,104.6812 53.8045,0 97.424,-46.8687 97.424,-104.6812"
         style="fill:#f9fcfc;fill-opacity:1;fill-rule:nonzero;stroke:none;stroke-width:0.447363"
         id="path378" /><path
         d="m 206.52053,4698.0116 c 0,8.2265 -6.1931,14.8764 -13.84497,14.8764 -7.65185,0 -13.84067,-6.6637 -13.84067,-14.8764 0,-8.2265 6.20175,-14.8715 13.84067,-14.8715 7.65617,0 13.84497,6.6544 13.84497,14.8715 z m 18.26433,-31.2225 -3.05987,-3.2879 c -1.00557,-1.0897 -2.65421,-1.0897 -3.6684,0 l -10.78079,11.584 c -0.48337,0.5239 -0.75527,1.2336 -0.75527,1.9754 v 1.8921 c -3.81944,-3.2045 -8.61859,-5.1102 -13.84497,-5.1102 -12.42078,0 -22.48947,10.8184 -22.48947,24.1691 0,13.3507 10.06869,24.1694 22.48947,24.1694 12.4294,0 22.49378,-10.8187 22.49378,-24.1694 0,-5.6109 -1.76948,-10.7675 -4.75598,-14.8715 h 1.76083 c 0.69483,0 1.35082,-0.2921 1.83852,-0.816 l 10.78078,-11.5841 c 1.00988,-1.0897 1.00988,-2.8565 -0.008,-3.9509"
         style="fill:#ffffff;fill-opacity:1;fill-rule:nonzero;stroke:none;stroke-width:0.447363"
         id="path380" /><g
         id="g382"
         transform="matrix(4.3157666,0,0,4.6372477,-273.53948,2917.8512)"><text
           transform="matrix(1,0,0,-1,361.486,359.773)"
           style="font-variant:normal;font-weight:normal;font-size:19.6658px;font-family:Poppins;-inkscape-font-specification:Poppins-Regular;writing-mode:lr-tb;fill:#f3621a;fill-opacity:1;fill-rule:nonzero;stroke:none"
           id="text386"><tspan
             x="0 12.349609 18.642666"
             y="0"
             sodipodi:role="line"
             id="tspan384">01.</tspan></text></g><g
         id="g388"
         transform="matrix(4.3157666,0,0,4.6372477,-273.53948,2917.8512)"><text
           transform="matrix(1,0,0,-1,358.636,263.704)"
           style="font-variant:normal;font-weight:normal;font-size:19.6658px;font-family:Poppins;-inkscape-font-specification:Poppins-Regular;writing-mode:lr-tb;fill:#8c198d;fill-opacity:1;fill-rule:nonzero;stroke:none"
           id="text392"><tspan
             x="0 12.349609 23.657444"
             y="0"
             sodipodi:role="line"
             id="tspan390">02.</tspan></text></g><g
         id="g394"
         transform="matrix(4.3157666,0,0,4.6372477,-273.53948,2917.8512)"><text
           transform="matrix(1,0,0,-1,358.636,167.635)"
           style="font-variant:normal;font-weight:normal;font-size:19.6658px;font-family:Poppins;-inkscape-font-specification:Poppins-Regular;writing-mode:lr-tb;fill:#3c80cb;fill-opacity:1;fill-rule:nonzero;stroke:none"
           id="text398"><tspan
             x="0 12.349609 23.932766"
             y="0"
             sodipodi:role="line"
             id="tspan396">03.</tspan></text></g><g
         id="g400"
         transform="matrix(4.3157666,0,0,4.6372477,-273.53948,2917.8512)"><text
           transform="matrix(1,0,0,-1,358.635,71.5641)"
           style="font-variant:normal;font-weight:normal;font-size:19.6658px;font-family:Poppins;-inkscape-font-specification:Poppins-Regular;writing-mode:lr-tb;fill:#39ad92;fill-opacity:1;fill-rule:nonzero;stroke:none"
           id="text404"><tspan
             x="0 12.349609 24.719398"
             y="0"
             sodipodi:role="line"
             id="tspan402">04.</tspan></text></g></g></g></svg>
