<?xml version="1.0" encoding="UTF-8" standalone="no"?>
<svg
   xmlns:dc="http://purl.org/dc/elements/1.1/"
   xmlns:cc="http://creativecommons.org/ns#"
   xmlns:rdf="http://www.w3.org/1999/02/22-rdf-syntax-ns#"
   xmlns:svg="http://www.w3.org/2000/svg"
   xmlns="http://www.w3.org/2000/svg"
   xmlns:sodipodi="http://sodipodi.sourceforge.net/DTD/sodipodi-0.dtd"
   xmlns:inkscape="http://www.inkscape.org/namespaces/inkscape"
   version="1.1"
   id="svg2"
   xml:space="preserve"
   width="440"
   height="325"
   viewBox="0 0 440 325"
   sodipodi:docname="demo-card2.svg"
   inkscape:version="1.0 (4035a4fb49, 2020-05-01)"><metadata
     id="metadata8"><rdf:RDF><cc:Work
         rdf:about=""><dc:format>image/svg+xml</dc:format><dc:type
           rdf:resource="http://purl.org/dc/dcmitype/StillImage" /><dc:title></dc:title></cc:Work></rdf:RDF></metadata><defs
     id="defs6"><inkscape:path-effect
       only_selected="false"
       apply_with_weight="true"
       apply_no_weight="true"
       helper_size="0"
       steps="2"
       weight="33.333333"
       lpeversion="1"
       is_visible="true"
       id="path-effect1882"
       effect="bspline" /><inkscape:path-effect
       effect="bspline"
       id="path-effect1863"
       is_visible="true"
       lpeversion="1"
       weight="33.333333"
       steps="2"
       helper_size="0"
       apply_no_weight="true"
       apply_with_weight="true"
       only_selected="false" /><clipPath
       clipPathUnits="userSpaceOnUse"
       id="clipPath20"><path
         d="M 7500,0 H 0 V 5000 H 7500 V 0 M 558.223,4624.82 V 244.832 H 7128.22 V 4624.82 H 558.223"
         id="path18" /></clipPath><linearGradient
       x1="0"
       y1="0"
       x2="1"
       y2="0"
       gradientUnits="userSpaceOnUse"
       gradientTransform="matrix(5921.31,-5833.69,-5833.69,-5921.31,811.294,5395.22)"
       spreadMethod="pad"
       id="linearGradient26"><stop
         style="stop-opacity:1;stop-color:#5357b0"
         offset="0"
         id="stop22" /><stop
         style="stop-opacity:1;stop-color:#7350ad"
         offset="1"
         id="stop24" /></linearGradient><clipPath
       clipPathUnits="userSpaceOnUse"
       id="clipPath36"><path
         d="m 558.223,244.832 h 6570 v 4379.99 h -6570 z"
         id="path34" /></clipPath></defs><sodipodi:namedview
     inkscape:document-rotation="0"
     pagecolor="#ffffff"
     bordercolor="#666666"
     borderopacity="1"
     objecttolerance="10"
     gridtolerance="10"
     guidetolerance="10"
     inkscape:pageopacity="0"
     inkscape:pageshadow="2"
     inkscape:window-width="1366"
     inkscape:window-height="717"
     id="namedview4"
     showgrid="false"
     inkscape:zoom="0.62472882"
     inkscape:cx="301.83467"
     inkscape:cy="112.21196"
     inkscape:window-x="0"
     inkscape:window-y="24"
     inkscape:window-maximized="1"
     inkscape:current-layer="g12" /><g
     id="g10"
     inkscape:groupmode="layer"
     inkscape:label="ink_ext_XXXXXX"
     transform="matrix(1.3333333,0,0,-1.3333333,0,666.66667)"><g
       id="g12"
       transform="scale(0.1)"><path
         id="path42"
         style="fill:#eff3fa;fill-opacity:1;fill-rule:nonzero;stroke:none;stroke-width:0.444282"
         d="M 3102.5354,3163.3031 H 361.85547 V 4932.1735 H 3102.5354 V 3163.3031" /><path
         id="path44"
         style="fill:#ffffff;fill-opacity:1;fill-rule:nonzero;stroke:none;stroke-width:0.444282"
         d="M 567.70076,3163.3031 H 361.85547 V 4932.1735 H 567.70076 V 3163.3031" /><path
         id="path46"
         style="fill:#ffffff;fill-opacity:1;fill-rule:nonzero;stroke:none;stroke-width:0.444282"
         d="M 3102.5354,4932.1735 V 4726.324 H 567.70076 v 205.8495 H 3102.5354" /><path
         id="path48"
         style="fill:#eff3fa;fill-opacity:1;fill-rule:nonzero;stroke:none;stroke-width:0.444282"
         d="m 567.70076,4726.324 v -5.8777 H 361.85547 v 5.8777 h 205.84529" /><path
         id="path50"
         style="fill:#eff3fa;fill-opacity:1;fill-rule:nonzero;stroke:none;stroke-width:0.444282"
         d="M 567.70076,4309.2453 H 361.85547 v 205.8449 h 205.84529 v -205.8449" /><path
         id="path52"
         style="fill:#778791;fill-opacity:1;fill-rule:nonzero;stroke:none;stroke-width:0.444282"
         d="m 465.35102,4639.2936 -22.21945,-16.154 v -27.3855 h 15.72493 v 20.0992 h 12.77 v -20.0992 h 15.99061 v 27.3855 l -22.26609,16.154" /><path
         id="path54"
         style="fill:#4c76c4;fill-opacity:1;fill-rule:nonzero;stroke:none;stroke-width:0.444282"
         d="m 443.80153,4390.5622 h 7.94512 v 15.8342 l -7.94512,-7.9482 v -7.886" /><path
         id="path56"
         style="fill:#4c76c4;fill-opacity:1;fill-rule:nonzero;stroke:none;stroke-width:0.444282"
         d="m 465.90815,4390.5622 h 7.94643 v 19.2686 l -7.94643,-7.5217 v -11.7469" /><path
         id="path58"
         style="fill:#4c76c4;fill-opacity:1;fill-rule:nonzero;stroke:none;stroke-width:0.444282"
         d="m 476.96455,4412.772 v -22.2098 h 7.94688 v 27.3812 l -1.19556,1.2173 -6.75132,-6.3887" /><path
         id="path60"
         style="fill:#4c76c4;fill-opacity:1;fill-rule:nonzero;stroke:none;stroke-width:0.444282"
         d="m 454.85306,4406.9963 v -16.4341 h 7.94644 v 9.7565 c -0.6282,0 -1.2582,0.2354 -1.74559,0.7065 l -6.20085,5.9711" /><path
         id="path62"
         style="fill:#4c76c4;fill-opacity:1;fill-rule:nonzero;stroke:none;stroke-width:0.444282"
         d="m 488.33729,4433.751 -8.52133,-1.284 c -1.74425,-0.2621 -2.46089,-2.3992 -1.22178,-3.661 l 1.59675,-1.6259 -17.3741,-16.4431 -7.52837,7.2508 c -0.98585,0.9508 -2.55462,0.9375 -3.52315,-0.031 l -12.13246,-12.1334 c -0.98409,-0.9863 -0.98409,-2.5723 0,-3.5587 0.48913,-0.4886 1.13337,-0.7374 1.7789,-0.7374 0.64376,0 1.28576,0.2488 1.77891,0.7374 l 10.38687,10.3874 7.47638,-7.2063 c 0.96988,-0.9285 2.4991,-0.9374 3.47785,-0.018 l 19.18411,18.1577 1.35683,-1.3862 c 1.35018,-1.3772 3.69332,-0.6664 4.05053,1.2264 l 1.503,7.9481 c 0.25855,1.3639 -0.91255,2.5813 -2.28894,2.377" /><path
         id="path64"
         style="fill:#778791;fill-opacity:1;fill-rule:nonzero;stroke:none;stroke-width:0.444282"
         d="m 458.36556,4228.1549 h -12.35815 c -2.07081,0 -3.74707,-1.6794 -3.74707,-3.7498 v -12.3554 c 0,-2.0704 1.67626,-3.7499 3.74707,-3.7499 h 12.35815 c 2.06858,0 3.74708,1.6795 3.74708,3.7499 v 12.3554 c 0,2.0704 -1.6785,3.7498 -3.74708,3.7498" /><path
         id="path66"
         style="fill:#778791;fill-opacity:1;fill-rule:nonzero;stroke:none;stroke-width:0.444282"
         d="m 483.54749,4228.1549 h -12.35505 c -2.06857,0 -3.74707,-1.6794 -3.74707,-3.7498 v -12.3554 c 0,-2.0704 1.6785,-3.7499 3.74707,-3.7499 h 12.35505 c 2.07391,0 3.75019,1.6795 3.75019,3.7499 v 12.3554 c 0,2.0704 -1.67628,3.7498 -3.75019,3.7498" /><path
         id="path68"
         style="fill:#778791;fill-opacity:1;fill-rule:nonzero;stroke:none;stroke-width:0.444282"
         d="m 458.36556,4204.808 h -12.35815 c -2.07081,0 -3.74707,-1.6794 -3.74707,-3.7499 v -12.3554 c 0,-2.0705 1.67626,-3.7542 3.74707,-3.7542 h 12.35815 c 2.06858,0 3.74708,1.6837 3.74708,3.7542 v 12.3554 c 0,2.0705 -1.6785,3.7499 -3.74708,3.7499" /><path
         id="path70"
         style="fill:#778791;fill-opacity:1;fill-rule:nonzero;stroke:none;stroke-width:0.444282"
         d="m 485.09359,4196.1221 h -6.48208 v 6.4776 c 0,0.6843 -0.55536,1.2396 -1.24088,1.2396 -0.68553,0 -1.24088,-0.5555 -1.24088,-1.2396 v -6.4776 h -6.4803 c -0.68553,0 -1.24088,-0.5595 -1.24088,-1.2438 0,-0.6843 0.55536,-1.2396 1.24088,-1.2396 h 6.4803 v -6.4822 c 0,-0.6843 0.55536,-1.2395 1.24088,-1.2395 0.68552,0 1.24088,0.5555 1.24088,1.2395 v 6.4822 h 6.48208 c 0.68196,0 1.2391,0.5555 1.2391,1.2396 0,0.684 -0.55716,1.2438 -1.2391,1.2438" /><path
         id="path72"
         style="fill:#778791;fill-opacity:1;fill-rule:nonzero;stroke:none;stroke-width:0.444282"
         d="m 457.83109,4018.4536 v 11.5515 l -15.21666,-15.2212 h 11.54778 c 2.02548,0 3.66888,1.6483 3.66888,3.6697" /><path
         id="path74"
         style="fill:#778791;fill-opacity:1;fill-rule:nonzero;stroke:none;stroke-width:0.444282"
         d="m 477.96063,3997.5813 h -25.89854 c -1.58609,0 -2.86873,1.2839 -2.86873,2.87 0,1.5817 1.28264,2.8702 2.86873,2.8702 h 25.89854 c 1.58832,0 2.87229,-1.2885 2.87229,-2.8702 0,-1.5861 -1.28397,-2.87 -2.87229,-2.87 z m 0,-8.9301 h -25.89854 c -1.58609,0 -2.86873,1.284 -2.86873,2.8701 0,1.586 1.28264,2.8701 2.86873,2.8701 h 25.89854 c 1.58832,0 2.87229,-1.2841 2.87229,-2.8701 0,-1.5861 -1.28397,-2.8701 -2.87229,-2.8701 z m 0,-8.93 h -25.89854 c -1.58609,0 -2.86873,1.2885 -2.86873,2.8699 0,1.5863 1.28264,2.8745 2.86873,2.8745 h 25.89854 c 1.58832,0 2.87229,-1.2882 2.87229,-2.8745 0,-1.5814 -1.28397,-2.8699 -2.87229,-2.8699 z m 4.50369,50.2839 h -15.19045 c -1.94196,0 -3.51783,-1.5729 -3.52493,-3.5144 l -0.0313,-12.1245 c -0.005,-2.6123 -2.12279,-4.7271 -4.73605,-4.7271 h -12.84424 c -1.9473,0 -3.52317,-1.5727 -3.52317,-3.5232 v -29.7446 c 0,-2.4747 2.0046,-4.4829 4.47926,-4.4829 h 35.37065 c 2.47332,0 4.47925,2.0082 4.47925,4.4829 v 49.1508 c 0,2.4747 -2.00593,4.483 -4.47925,4.483" /><path
         id="path76"
         style="fill:#778791;fill-opacity:1;fill-rule:nonzero;stroke:none;stroke-width:0.444282"
         d="m 473.55113,3589.2549 c 0,-4.7273 -3.93456,-8.5837 -8.77279,-8.5837 -4.82846,0 -8.7697,3.8564 -8.7697,8.5837 0,4.736 3.94124,8.5791 8.7697,8.5791 4.83823,0 8.77279,-3.8431 8.77279,-8.5791 z m 11.06351,6.1444 -1.38126,3.2787 2.92737,7.5262 -4.25178,4.154 -7.54391,-3.0212 -3.34945,1.3552 c 0,0 -2.95403,7.3439 -3.3601,7.3439 h -6.00315 c -0.41626,0 -3.15306,-7.3661 -3.15306,-7.3661 l -3.34101,-1.3507 -7.68787,2.87 -4.2451,-4.1672 3.08552,-7.3884 -1.37948,-3.2744 -7.50615,-3.2834 v -5.8822 c 0,-0.4133 7.52347,-3.0922 7.52347,-3.0922 l 1.37772,-3.2655 -2.92915,-7.5262 4.25355,-4.1629 7.54214,3.0302 3.34945,-1.3596 c 0,0 2.95225,-7.344 3.36188,-7.344 h 6.00315 c 0.41807,0 3.15307,7.3662 3.15307,7.3662 l 3.34944,1.3506 7.67454,-2.8701 4.25355,4.1584 -3.09087,7.3884 1.37639,3.2789 7.50926,3.2966 v 5.8778 c 0.004,0.4041 -7.51816,3.079 -7.51816,3.079" /><path
         id="path78"
         style="fill:#778791;fill-opacity:1;fill-rule:nonzero;stroke:none;stroke-width:0.444282"
         d="m 483.59058,4840.2071 h -37.62315 c -1.85178,0 -3.353,1.5016 -3.353,3.3542 0,1.8526 1.50122,3.3544 3.353,3.3544 h 37.62315 c 1.85177,0 3.353,-1.5018 3.353,-3.3544 0,-1.8526 -1.50123,-3.3542 -3.353,-3.3542" /><path
         id="path80"
         style="fill:#778791;fill-opacity:1;fill-rule:nonzero;stroke:none;stroke-width:0.444282"
         d="m 470.88189,4825.8966 h -24.91446 c -1.85178,0 -3.353,1.5017 -3.353,3.3545 0,1.8526 1.50122,3.3542 3.353,3.3542 h 24.91446 c 1.85177,0 3.35299,-1.5016 3.35299,-3.3542 0,-1.8528 -1.50122,-3.3545 -3.35299,-3.3545" /><path
         id="path82"
         style="fill:#778791;fill-opacity:1;fill-rule:nonzero;stroke:none;stroke-width:0.444282"
         d="m 483.59058,4811.5819 h -37.62315 c -1.85178,0 -3.353,1.5016 -3.353,3.3543 0,1.8527 1.50122,3.3544 3.353,3.3544 h 37.62315 c 1.85177,0 3.353,-1.5017 3.353,-3.3544 0,-1.8527 -1.50123,-3.3543 -3.353,-3.3543" /><path
         id="path84"
         style="fill:#778791;fill-opacity:1;fill-rule:nonzero;stroke:none;stroke-width:0.444282"
         d="m 469.07188,3788.1822 h -23.11334 c -1.58786,0 -2.88073,1.2349 -2.88073,2.8256 0,1.5862 1.29287,2.8789 2.88073,2.8789 h 23.11334 c 1.58786,0 2.8825,-1.2927 2.8825,-2.8789 0,-1.5907 -1.29464,-2.8256 -2.8825,-2.8256 z m -23.11334,16.3496 h 37.64092 c 1.58787,0 2.82164,-1.293 2.82164,-2.879 0,-1.5906 -1.23377,-2.8833 -2.82164,-2.8833 h -37.64092 c -1.58786,0 -2.88073,1.2927 -2.88073,2.8833 0,1.586 1.29287,2.879 2.88073,2.879 z m 0,10.5871 h 37.64092 c 1.58787,0 2.82164,-1.2927 2.82164,-2.8787 0,-1.5906 -1.23377,-2.8836 -2.82164,-2.8836 h -37.64092 c -1.58786,0 -2.88073,1.293 -2.88073,2.8836 0,1.586 1.29287,2.8787 2.88073,2.8787 z m 42.05088,7.002 h -46.51947 c -2.88295,0 -5.17723,-2.3547 -5.17723,-5.1759 v -30.5844 c 0,-2.8834 2.29428,-5.2336 5.17723,-5.2336 h 30.45733 v -13.0441 l 12.57718,13.0441 h 3.48496 c 2.8825,0 5.23585,2.3502 5.23585,5.2336 v 30.5844 c 0,2.8212 -2.35335,5.1759 -5.23585,5.1759" /><path
         id="path86"
         style="fill:#ffffff;fill-opacity:1;fill-rule:nonzero;stroke:none;stroke-width:0.444282"
         d="M 3001.4078,4049.5357 H 664.90528 c -20.12156,0 -36.43112,16.3139 -36.43112,36.431 v 534.7515 c 0,20.1216 16.30956,36.4312 36.43112,36.4312 H 3001.4078 c 20.1216,0 36.4313,-16.3096 36.4313,-36.4312 v -534.7515 c 0,-20.1171 -16.3097,-36.431 -36.4313,-36.431" /><g
         transform="matrix(4.4428226,0,0,4.4428226,66.137198,2925.3327)"
         id="g88"><text
           id="text106"
           style="font-variant:normal;font-weight:normal;font-size:7.94263px;font-family:Montserrat;-inkscape-font-specification:Montserrat-Regular;writing-mode:lr-tb;fill:#dedbf1;fill-opacity:1;fill-rule:nonzero;stroke:none"
           transform="matrix(1,0,0,-1,147.899,261.077)"><tspan
             id="tspan90"
             y="0"
             x="0">0</tspan><tspan
             id="tspan92"
             sodipodi:role="line"
             y="-15.9172"
             x="-2.8668001 0.00048942998">10</tspan><tspan
             id="tspan94"
             sodipodi:role="line"
             y="-31.835199"
             x="-4.4796901 -0.00019751">20</tspan><tspan
             id="tspan96"
             sodipodi:role="line"
             y="-47.751999"
             x="-4.4796901 -4.6680001e-05">30</tspan><tspan
             id="tspan98"
             sodipodi:role="line"
             y="-63.669998"
             x="-5.2500029 7.5429998e-05">40</tspan><tspan
             id="tspan100"
             sodipodi:role="line"
             y="-79.587196"
             x="-4.494925 0.00060357997">50</tspan><tspan
             id="tspan102"
             sodipodi:role="line"
             y="-95.505203"
             x="-4.8367219 0.00033966999">60</tspan><tspan
             id="tspan104"
             sodipodi:role="line"
             y="-111.422"
             x="-4.5187531 0.00077662">70</tspan></text></g><path
         id="path108"
         style="fill:#dedbf1;fill-opacity:1;fill-rule:nonzero;stroke:none;stroke-width:0.444282"
         d="M 770.50231,4578.7957 H 1821.6163 v 2.9383 H 770.50231 Z" /><path
         id="path110"
         style="fill:#dedbf1;fill-opacity:1;fill-rule:nonzero;stroke:none;stroke-width:0.444282"
         d="M 770.50231,4508.0793 H 1821.6163 v 2.9417 H 770.50231 Z" /><path
         id="path112"
         style="fill:#dedbf1;fill-opacity:1;fill-rule:nonzero;stroke:none;stroke-width:0.444282"
         d="M 770.50231,4437.3629 H 1821.6163 v 2.9416 H 770.50231 Z" /><path
         id="path114"
         style="fill:#dedbf1;fill-opacity:1;fill-rule:nonzero;stroke:none;stroke-width:0.444282"
         d="M 770.50231,4366.6465 H 1821.6163 v 2.9417 H 770.50231 Z" /><path
         id="path116"
         style="fill:#dedbf1;fill-opacity:1;fill-rule:nonzero;stroke:none;stroke-width:0.444282"
         d="M 770.50231,4295.9302 H 1821.6163 v 2.9415 H 770.50231 Z" /><path
         id="path118"
         style="fill:#dedbf1;fill-opacity:1;fill-rule:nonzero;stroke:none;stroke-width:0.444282"
         d="M 770.50231,4225.2182 H 1821.6163 v 2.9382 H 770.50231 Z" /><path
         id="path120"
         style="fill:#dedbf1;fill-opacity:1;fill-rule:nonzero;stroke:none;stroke-width:0.444282"
         d="M 770.50231,4154.5017 H 1821.6163 v 2.9417 H 770.50231 Z" /><path
         id="path122"
         style="fill:#dedbf1;fill-opacity:1;fill-rule:nonzero;stroke:none;stroke-width:0.444282"
         d="m 769.03169,4085.256 h 2.94166 v 551.1498 h -2.94166 z" /><path
         id="path124"
         style="fill:#dedbf1;fill-opacity:1;fill-rule:nonzero;stroke:none;stroke-width:0.444282"
         d="m 979.25275,4085.256 h 2.9399 v 551.1498 h -2.9399 z" /><path
         id="path126"
         style="fill:#dedbf1;fill-opacity:1;fill-rule:nonzero;stroke:none;stroke-width:0.444282"
         d="m 1189.4782,4085.256 h 2.9399 v 551.1498 h -2.9399 z" /><path
         id="path128"
         style="fill:#dedbf1;fill-opacity:1;fill-rule:nonzero;stroke:none;stroke-width:0.444282"
         d="m 1399.6993,4085.256 h 2.9415 v 551.1498 h -2.9415 z" /><path
         id="path130"
         style="fill:#dedbf1;fill-opacity:1;fill-rule:nonzero;stroke:none;stroke-width:0.444282"
         d="m 1609.9203,4085.256 h 2.9399 v 551.1498 h -2.9399 z" /><path
         id="path132"
         style="fill:#dedbf1;fill-opacity:1;fill-rule:nonzero;stroke:none;stroke-width:0.444282"
         d="M 1821.6163,4086.7265 H 771.97286 v 549.6793 h -2.94117 V 4083.7853 H 1821.6163 v 2.9412" /><path
         id="path134"
         style="fill:#dedbf1;fill-opacity:1;fill-rule:nonzero;stroke:none;stroke-width:0.444282"
         d="m 1820.1457,4085.256 h 2.9416 v 551.1498 h -2.9416 z" /><path
         id="path136"
         style="fill:#dedbf1;fill-opacity:1;fill-rule:nonzero;stroke:none;stroke-width:0.444282"
         d="m 1821.6163,4578.7957 h 1051.114 v 2.9383 h -1051.114 z" /><path
         id="path138"
         style="fill:#dedbf1;fill-opacity:1;fill-rule:nonzero;stroke:none;stroke-width:0.444282"
         d="m 1821.6163,4508.0793 h 1051.114 v 2.9417 h -1051.114 z" /><path
         id="path140"
         style="fill:#dedbf1;fill-opacity:1;fill-rule:nonzero;stroke:none;stroke-width:0.444282"
         d="m 1821.6163,4437.3629 h 1051.114 v 2.9416 h -1051.114 z" /><path
         id="path142"
         style="fill:#dedbf1;fill-opacity:1;fill-rule:nonzero;stroke:none;stroke-width:0.444282"
         d="m 1821.6163,4366.6465 h 1051.114 v 2.9417 h -1051.114 z" /><path
         id="path144"
         style="fill:#dedbf1;fill-opacity:1;fill-rule:nonzero;stroke:none;stroke-width:0.444282"
         d="m 1821.6163,4295.9302 h 1051.114 v 2.9415 h -1051.114 z" /><path
         id="path146"
         style="fill:#dedbf1;fill-opacity:1;fill-rule:nonzero;stroke:none;stroke-width:0.444282"
         d="m 1821.6163,4225.2182 h 1051.114 v 2.9382 h -1051.114 z" /><path
         id="path148"
         style="fill:#dedbf1;fill-opacity:1;fill-rule:nonzero;stroke:none;stroke-width:0.444282"
         d="m 1821.6163,4154.5017 h 1051.114 v 2.9417 h -1051.114 z" /><path
         id="path150"
         style="fill:#dedbf1;fill-opacity:1;fill-rule:nonzero;stroke:none;stroke-width:0.444282"
         d="m 1820.1457,4085.256 h 2.9416 v 551.1498 h -2.9416 z" /><path
         id="path152"
         style="fill:#dedbf1;fill-opacity:1;fill-rule:nonzero;stroke:none;stroke-width:0.444282"
         d="m 2030.3668,4085.256 h 2.9416 v 551.1498 h -2.9416 z" /><path
         id="path154"
         style="fill:#dedbf1;fill-opacity:1;fill-rule:nonzero;stroke:none;stroke-width:0.444282"
         d="m 2240.5922,4085.256 h 2.9417 v 551.1498 h -2.9417 z" /><path
         id="path156"
         style="fill:#dedbf1;fill-opacity:1;fill-rule:nonzero;stroke:none;stroke-width:0.444282"
         d="m 2450.8133,4085.256 h 2.9417 v 551.1498 h -2.9417 z" /><path
         id="path158"
         style="fill:#dedbf1;fill-opacity:1;fill-rule:nonzero;stroke:none;stroke-width:0.444282"
         d="m 2661.0387,4085.256 h 2.9417 v 551.1498 h -2.9417 z" /><path
         id="path160"
         style="fill:#dedbf1;fill-opacity:1;fill-rule:nonzero;stroke:none;stroke-width:0.444282"
         d="M 2872.7303,4086.7265 H 1823.0869 v 549.6793 h -2.9412 v -552.6205 h 1052.5846 v 2.9412" /><path
         id="path162"
         style="fill:#dedbf1;fill-opacity:1;fill-rule:nonzero;stroke:none;stroke-width:0.444282"
         d="m 2871.2598,4085.256 h 2.9399 v 551.1498 h -2.9399 z" /><path
         id="path164"
         style="fill:#78d3e7;fill-opacity:1;fill-rule:nonzero;stroke:none;stroke-width:0.444282"
         d="m 1622.7822,4580.2842 c 0,-6.2912 -5.1003,-11.3914 -11.3913,-11.3914 -6.2866,0 -11.387,5.1002 -11.387,11.3914 0,6.2909 5.1004,11.3868 11.387,11.3868 6.291,0 11.3913,-5.0959 11.3913,-11.3868" /><path
         id="path166"
         style="fill:#78d3e7;fill-opacity:1;fill-rule:nonzero;stroke:none;stroke-width:0.444282"
         d="m 1833.0032,4297.4008 c 0,-6.2866 -5.0959,-11.387 -11.3869,-11.387 -6.2911,0 -11.3913,5.1004 -11.3913,11.387 0,6.2909 5.1002,11.3914 11.3913,11.3914 6.291,0 11.3869,-5.1005 11.3869,-11.3914" /><path
         id="path168"
         style="fill:#78d3e7;fill-opacity:1;fill-rule:nonzero;stroke:none;stroke-width:0.444282"
         d="m 2043.2287,4438.8469 c 0,-6.2911 -5.1004,-11.3914 -11.3913,-11.3914 -6.2866,0 -11.3871,5.1003 -11.3871,11.3914 0,6.2909 5.1005,11.3868 11.3871,11.3868 6.2909,0 11.3913,-5.0959 11.3913,-11.3868" /><path
         id="path170"
         style="fill:#78d3e7;fill-opacity:1;fill-rule:nonzero;stroke:none;stroke-width:0.444282"
         d="m 2253.4542,4580.262 c 0,-6.2867 -5.1002,-11.3871 -11.3914,-11.3871 -6.291,0 -11.3913,5.1004 -11.3913,11.3871 0,6.2911 5.1003,11.3914 11.3913,11.3914 6.2912,0 11.3914,-5.1003 11.3914,-11.3914" /><path
         id="path172"
         style="fill:#78d3e7;fill-opacity:1;fill-rule:nonzero;stroke:none;stroke-width:0.444282"
         d="m 2673.8963,4368.1171 c 0,-6.2909 -5.1004,-11.3914 -11.387,-11.3914 -6.291,0 -11.3914,5.1005 -11.3914,11.3914 0,6.2911 5.1004,11.3913 11.3914,11.3913 6.2866,0 11.387,-5.1002 11.387,-11.3913" /><path
         id="path174"
         style="fill:#78d3e7;fill-opacity:1;fill-rule:nonzero;stroke:none;stroke-width:0.444282"
         d="m 2463.6752,4368.126 c 0,-6.2867 -5.1004,-11.3869 -11.3913,-11.3869 -6.2912,0 -11.3871,5.1002 -11.3871,11.3869 0,6.291 5.0959,11.3915 11.3871,11.3915 6.2909,0 11.3913,-5.1005 11.3913,-11.3915" /><path
         id="path176"
         style="fill:#78d3e7;fill-opacity:1;fill-rule:nonzero;stroke:none;stroke-width:0.444282"
         d="m 1412.5567,4225.8225 c 0,-6.2911 -5.0959,-11.3915 -11.3869,-11.3915 -6.2911,0 -11.3913,5.1004 -11.3913,11.3915 0,6.291 5.1002,11.3869 11.3913,11.3869 6.291,0 11.3869,-5.0959 11.3869,-11.3869" /><path
         id="path178"
         style="fill:#78d3e7;fill-opacity:1;fill-rule:nonzero;stroke:none;stroke-width:0.444282"
         d="m 1202.3356,4366.4822 c 0,-6.2911 -5.1001,-11.3914 -11.3868,-11.3914 -6.2911,0 -11.3913,5.1003 -11.3913,11.3914 0,6.291 5.1002,11.3913 11.3913,11.3913 6.2867,0 11.3868,-5.1003 11.3868,-11.3913" /><path
         id="path180"
         style="fill:#78d3e7;fill-opacity:1;fill-rule:nonzero;stroke:none;stroke-width:0.444282"
         d="m 992.1148,4509.5633 c 0,-6.291 -5.1004,-11.387 -11.39151,-11.387 -6.291,0 -11.38692,5.096 -11.38692,11.387 0,6.291 5.09592,11.3914 11.38692,11.3914 6.29111,0 11.39151,-5.1004 11.39151,-11.3914" /><path
         id="path182"
         style="fill:#f79310;fill-opacity:1;fill-rule:nonzero;stroke:none;stroke-width:0.444282"
         d="m 1412.5567,4509.5501 c 0,-6.2912 -5.0959,-11.3915 -11.3869,-11.3915 -6.2911,0 -11.3913,5.1003 -11.3913,11.3915 0,6.2909 5.1002,11.3868 11.3913,11.3868 6.291,0 11.3869,-5.0959 11.3869,-11.3868" /><path
         id="path184"
         style="fill:#f79310;fill-opacity:1;fill-rule:nonzero;stroke:none;stroke-width:0.444282"
         d="m 1622.7822,4297.4008 c 0,-6.2866 -5.1003,-11.387 -11.3913,-11.387 -6.2866,0 -11.387,5.1004 -11.387,11.387 0,6.2909 5.1004,11.3914 11.387,11.3914 6.291,0 11.3913,-5.1005 11.3913,-11.3914" /><path
         id="path186"
         style="fill:#f79310;fill-opacity:1;fill-rule:nonzero;stroke:none;stroke-width:0.444282"
         d="m 1833.0032,4509.5633 c 0,-6.291 -5.0959,-11.387 -11.3869,-11.387 -6.2911,0 -11.3913,5.096 -11.3913,11.387 0,6.291 5.1002,11.3914 11.3913,11.3914 6.291,0 11.3869,-5.1004 11.3869,-11.3914" /><path
         id="path188"
         style="fill:#f79310;fill-opacity:1;fill-rule:nonzero;stroke:none;stroke-width:0.444282"
         d="m 2043.2287,4226.6888 c 0,-6.2866 -5.1004,-11.3869 -11.3913,-11.3869 -6.2866,0 -11.3871,5.1003 -11.3871,11.3869 0,6.2911 5.1005,11.3913 11.3871,11.3913 6.2909,0 11.3913,-5.1002 11.3913,-11.3913" /><path
         id="path190"
         style="fill:#f79310;fill-opacity:1;fill-rule:nonzero;stroke:none;stroke-width:0.444282"
         d="m 2253.4542,4368.1171 c 0,-6.2909 -5.1002,-11.387 -11.3914,-11.387 -6.291,0 -11.3913,5.0961 -11.3913,11.387 0,6.2911 5.1003,11.3913 11.3913,11.3913 6.2912,0 11.3914,-5.1002 11.3914,-11.3913" /><path
         id="path192"
         style="fill:#f79310;fill-opacity:1;fill-rule:nonzero;stroke:none;stroke-width:0.444282"
         d="m 2463.6752,4438.8336 c 0,-6.291 -5.1004,-11.3915 -11.3913,-11.3915 -6.2912,0 -11.3871,5.1005 -11.3871,11.3915 0,6.2909 5.0959,11.3869 11.3871,11.3869 6.2909,0 11.3913,-5.096 11.3913,-11.3869" /><path
         id="path194"
         style="fill:#f79310;fill-opacity:1;fill-rule:nonzero;stroke:none;stroke-width:0.444282"
         d="m 2673.8963,4580.2842 c 0,-6.2912 -5.1004,-11.3914 -11.387,-11.3914 -6.291,0 -11.3914,5.1002 -11.3914,11.3914 0,6.2909 5.1004,11.3868 11.3914,11.3868 6.2866,0 11.387,-5.0959 11.387,-11.3868" /><path
         id="path196"
         style="fill:#f79310;fill-opacity:1;fill-rule:nonzero;stroke:none;stroke-width:0.444282"
         d="m 1202.3356,4155.9724 c 0,-6.291 -5.1001,-11.3914 -11.3868,-11.3914 -6.2911,0 -11.3913,5.1004 -11.3913,11.3914 0,6.291 5.1002,11.3868 11.3913,11.3868 6.2867,0 11.3868,-5.0958 11.3868,-11.3868" /><path
         id="path198"
         style="fill:#f79310;fill-opacity:1;fill-rule:nonzero;stroke:none;stroke-width:0.444282"
         d="m 992.1148,4366.4822 c 0,-6.2911 -5.1004,-11.3914 -11.39151,-11.3914 -6.291,0 -11.38692,5.1003 -11.38692,11.3914 0,6.291 5.09592,11.3913 11.38692,11.3913 6.29111,0 11.39151,-5.1003 11.39151,-11.3913" /><path
         id="path200"
         style="fill:#41bea8;fill-opacity:1;fill-rule:nonzero;stroke:none;stroke-width:0.444282"
         d="m 1202.3356,4509.5501 c 0,-6.2912 -5.1001,-11.3915 -11.3868,-11.3915 -6.2911,0 -11.3913,5.1003 -11.3913,11.3915 0,6.2909 5.1002,11.3868 11.3913,11.3868 6.2867,0 11.3868,-5.0959 11.3868,-11.3868" /><path
         id="path202"
         style="fill:#41bea8;fill-opacity:1;fill-rule:nonzero;stroke:none;stroke-width:0.444282"
         d="m 1412.5612,4297.4008 c 0,-6.2866 -5.1004,-11.387 -11.3914,-11.387 -6.2911,0 -11.3913,5.1004 -11.3913,11.387 0,6.2909 5.1002,11.3914 11.3913,11.3914 6.291,0 11.3914,-5.1005 11.3914,-11.3914" /><path
         id="path204"
         style="fill:#41bea8;fill-opacity:1;fill-rule:nonzero;stroke:none;stroke-width:0.444282"
         d="m 1622.7822,4438.8336 c 0,-6.291 -5.1003,-11.3915 -11.3913,-11.3915 -6.2866,0 -11.387,5.1005 -11.387,11.3915 0,6.2909 5.1004,11.3869 11.387,11.3869 6.291,0 11.3913,-5.096 11.3913,-11.3869" /><path
         id="path206"
         style="fill:#41bea8;fill-opacity:1;fill-rule:nonzero;stroke:none;stroke-width:0.444282"
         d="m 1833.0032,4155.9724 c 0,-6.291 -5.0959,-11.3914 -11.3869,-11.3914 -6.2911,0 -11.3913,5.1004 -11.3913,11.3914 0,6.291 5.1002,11.3868 11.3913,11.3868 6.291,0 11.3869,-5.0958 11.3869,-11.3868" /><path
         id="path208"
         style="fill:#41bea8;fill-opacity:1;fill-rule:nonzero;stroke:none;stroke-width:0.444282"
         d="m 2043.2287,4368.1171 c 0,-6.2909 -5.1004,-11.387 -11.3913,-11.387 -6.2912,0 -11.3871,5.0961 -11.3871,11.387 0,6.2911 5.0959,11.3913 11.3871,11.3913 6.2909,0 11.3913,-5.1002 11.3913,-11.3913" /><path
         id="path210"
         style="fill:#41bea8;fill-opacity:1;fill-rule:nonzero;stroke:none;stroke-width:0.444282"
         d="m 2253.4498,4226.6888 c 0,-6.2866 -5.0958,-11.3869 -11.387,-11.3869 -6.291,0 -11.3913,5.1003 -11.3913,11.3869 0,6.2911 5.1003,11.3913 11.3913,11.3913 6.2912,0 11.387,-5.1002 11.387,-11.3913" /><path
         id="path212"
         style="fill:#41bea8;fill-opacity:1;fill-rule:nonzero;stroke:none;stroke-width:0.444282"
         d="m 2463.6752,4297.4008 c 0,-6.2866 -5.1004,-11.387 -11.3913,-11.387 -6.2912,0 -11.3871,5.1004 -11.3871,11.387 0,6.2909 5.0959,11.3914 11.3871,11.3914 6.2909,0 11.3913,-5.1005 11.3913,-11.3914" /><path
         id="path214"
         style="fill:#41bea8;fill-opacity:1;fill-rule:nonzero;stroke:none;stroke-width:0.444282"
         d="m 2673.8963,4509.5633 c 0,-6.291 -5.0959,-11.387 -11.387,-11.387 -6.291,0 -11.3914,5.096 -11.3914,11.387 0,6.291 5.1004,11.3914 11.3914,11.3914 6.2911,0 11.387,-5.1004 11.387,-11.3914" /><path
         id="path216"
         style="fill:#78d3e7;fill-opacity:1;fill-rule:nonzero;stroke:none;stroke-width:0.444282"
         d="m 772.14165,4365.6779 208.58164,140.3444 208.58161,-140.3354 -0.01,0.01 212.8068,-144.0541 209.5589,353.3465 209.2615,-281.5861 212.5534,143.0101 208.204,140.06 209.3725,-211.2919 h 212.6713 l 211.0874,213.0204 -4.1763,4.1362 -209.359,-211.274 h -207.7731 l -211.0697,213.0024 -212.2425,-142.7746 -207.8974,-139.8779 -211.1851,284.1763 -210.8831,-355.5769 -207.6353,140.5531 -211.87374,142.548 -211.86486,-142.5524 3.28323,-4.8782" /><path
         id="path218"
         style="fill:#41bea8;fill-opacity:1;fill-rule:nonzero;stroke:none;stroke-width:0.444282"
         d="m 769.56487,4223.8987 212.47351,-71.4718 209.49242,352.3515 209.2614,-211.1719 209.9145,141.2196 210.5896,-283.3543 210.9188,212.86 209.4078,-140.8907 212.2604,71.3961 208.626,210.532 208.1329,-210.0344 4.1763,4.1363 -212.3092,214.2552 -211.8249,-213.7576 -208.1862,-70.0278 -211.0385,141.9836 -209.5236,-211.4516 -209.8566,282.368 -210.532,-141.6416 -211.1852,213.1178 -210.95403,-354.7993 -207.96859,69.9567 -1.87481,-5.5758" /><path
         id="path220"
         style="fill:#f79310;fill-opacity:1;fill-rule:nonzero;stroke:none;stroke-width:0.444282"
         d="m 772.86145,4083.5011 208.18175,280.1242 210.4876,-212.4246 210.2254,353.5777 209.6347,-211.5539 209.9054,211.8249 209.8568,-282.3681 212.2204,142.7745 210.2255,70.7166 208.9103,140.5485 208.5817,-140.3265 c 1.346,-0.9063 3.1722,-0.551 4.0784,0.7954 0.9064,1.3505 0.551,3.1765 -0.7953,4.0829 l -211.8648,142.5345 -211.536,-142.3124 -210.2257,-70.7164 -208.2216,-140.0867 -210.5899,283.3588 -210.5452,-212.4691 -210.8075,212.7357 -210.2211,-353.5776 -209.95885,211.887 -212.26475,-285.6157 c -0.96855,-1.3061 -0.69749,-3.1454 0.60865,-4.1139 1.30175,-0.9687 3.14554,-0.6977 4.11408,0.6042" /><path
         id="path222"
         style="fill:#ffffff;fill-opacity:1;fill-rule:nonzero;stroke:none;stroke-width:0.444282"
         d="M 1159.658,3214.7653 H 648.16913 c -10.87597,0 -19.69497,8.818 -19.69497,19.6941 v 737.3668 c 0,10.876 8.819,19.6951 19.69497,19.6951 H 1159.658 c 10.8805,0 19.6951,-8.8191 19.6951,-19.6951 v -737.3668 c 0,-10.8761 -8.8146,-19.6941 -19.6951,-19.6941" /><path
         id="path224"
         style="fill:#ededf6;fill-opacity:1;fill-rule:nonzero;stroke:none;stroke-width:0.444282"
         d="m 804.05895,3488.5939 h -59.9915 v 429.9585 h 59.9915 v -429.9585" /><path
         id="path226"
         style="fill:#f79310;fill-opacity:1;fill-rule:nonzero;stroke:none;stroke-width:0.444282"
         d="m 804.05895,3488.5939 h -59.9915 v 107.4895 h 59.9915 v -107.4895" /><path
         id="path228"
         style="fill:#ededf6;fill-opacity:1;fill-rule:nonzero;stroke:none;stroke-width:0.444282"
         d="m 894.90573,3488.5939 h -59.99141 v 429.9585 h 59.99141 v -429.9585" /><path
         id="path230"
         style="fill:#41bea8;fill-opacity:1;fill-rule:nonzero;stroke:none;stroke-width:0.444282"
         d="m 894.90573,3488.5939 h -59.99141 v 322.4644 h 59.99141 v -322.4644" /><path
         id="path232"
         style="fill:#78d3e7;fill-opacity:1;fill-rule:nonzero;stroke:none;stroke-width:0.444282"
         d="m 985.7481,3488.5939 h -59.98693 v 429.954 h 59.98693 v -429.954" /><path
         id="path234"
         style="fill:#ededf6;fill-opacity:1;fill-rule:nonzero;stroke:none;stroke-width:0.444282"
         d="m 1076.5949,3488.5939 h -59.9869 v 429.9585 h 59.9869 v -429.9585" /><path
         id="path236"
         style="fill:#3775b9;fill-opacity:1;fill-rule:nonzero;stroke:none;stroke-width:0.444282"
         d="m 1076.5949,3488.5939 h -59.9869 v 214.9748 h 59.9869 v -214.9748" /><path
         id="path238"
         style="fill:#dedbf1;fill-opacity:1;fill-rule:nonzero;stroke:none;stroke-width:0.444282"
         d="m 709.01365,3918.5524 v -431.4292 h 367.58125 v 2.9412 H 711.9548 v 428.488 h -2.94115" /><path
         id="path240"
         style="fill:#f79310;fill-opacity:1;fill-rule:nonzero;stroke:none;stroke-width:0.444282"
         d="m 749.44778,3393.7795 c 0,-10.7605 -8.72129,-19.4818 -19.4818,-19.4818 -10.7561,0 -19.48179,8.7213 -19.48179,19.4818 0,10.756 8.72569,19.4818 19.48179,19.4818 10.76051,0 19.4818,-8.7258 19.4818,-19.4818" /><path
         id="path242"
         style="fill:#41bea8;fill-opacity:1;fill-rule:nonzero;stroke:none;stroke-width:0.444282"
         d="m 964.72469,3393.7795 c 0,-10.7605 -8.72121,-19.4818 -19.48172,-19.4818 -10.76057,0 -19.4818,8.7213 -19.4818,19.4818 0,10.756 8.72123,19.4818 19.4818,19.4818 10.76051,0 19.48172,-8.7258 19.48172,-19.4818" /><path
         id="path244"
         style="fill:#78d3e7;fill-opacity:1;fill-rule:nonzero;stroke:none;stroke-width:0.444282"
         d="m 749.44778,3279.4622 c 0,-10.762 -8.72129,-19.4827 -19.4818,-19.4827 -10.7561,0 -19.48179,8.7207 -19.48179,19.4827 0,10.76 8.72569,19.4809 19.48179,19.4809 10.76051,0 19.4818,-8.7209 19.4818,-19.4809" /><path
         id="path246"
         style="fill:#3775b9;fill-opacity:1;fill-rule:nonzero;stroke:none;stroke-width:0.444282"
         d="m 964.72469,3279.4622 c 0,-10.762 -8.72121,-19.4827 -19.48172,-19.4827 -10.76057,0 -19.4818,8.7207 -19.4818,19.4827 0,10.76 8.72123,19.4809 19.4818,19.4809 10.76051,0 19.48172,-8.7209 19.48172,-19.4809" /><g
         transform="matrix(4.4428226,0,0,4.4428226,66.137198,2925.3327)"
         id="g248"><text
           id="text252"
           style="font-variant:normal;font-weight:600;font-size:10.4563px;font-family:Montserrat;-inkscape-font-specification:Montserrat-SemiBold;writing-mode:lr-tb;fill:#778791;fill-opacity:1;fill-rule:nonzero;stroke:none"
           transform="matrix(1,0,0,-1,156.193,101.054)"><tspan
             id="tspan250"
             sodipodi:role="line"
             y="0"
             x="0 6.0855665">25</tspan></text><text
           id="text256"
           style="font-variant:normal;font-weight:600;font-size:6.61886px;font-family:Montserrat;-inkscape-font-specification:Montserrat-SemiBold;writing-mode:lr-tb;fill:#778791;fill-opacity:1;fill-rule:nonzero;stroke:none"
           transform="matrix(1,0,0,-1,168.3852,101.054)"><tspan
             id="tspan254"
             y="0"
             x="0">%</tspan></text><text
           id="text260"
           style="font-variant:normal;font-weight:600;font-size:10.4563px;font-family:Montserrat;-inkscape-font-specification:Montserrat-SemiBold;writing-mode:lr-tb;fill:#778791;fill-opacity:1;fill-rule:nonzero;stroke:none"
           transform="matrix(1,0,0,-1,207.6551,101.054)"><tspan
             id="tspan258"
             sodipodi:role="line"
             y="0"
             x="0 6.1689534">75</tspan></text><text
           id="text264"
           style="font-variant:normal;font-weight:600;font-size:6.61886px;font-family:Montserrat;-inkscape-font-specification:Montserrat-SemiBold;writing-mode:lr-tb;fill:#778791;fill-opacity:1;fill-rule:nonzero;stroke:none"
           transform="matrix(1,0,0,-1,219.9301,101.054)"><tspan
             id="tspan262"
             y="0"
             x="0">%</tspan></text><text
           id="text268"
           style="font-variant:normal;font-weight:600;font-size:10.4563px;font-family:Montserrat;-inkscape-font-specification:Montserrat-SemiBold;writing-mode:lr-tb;fill:#778791;fill-opacity:1;fill-rule:nonzero;stroke:none"
           transform="matrix(1,0,0,-1,156.193,75.322)"><tspan
             id="tspan266"
             sodipodi:role="line"
             y="0"
             x="0 3.9838502 11.02094">100</tspan></text><text
           id="text272"
           style="font-variant:normal;font-weight:600;font-size:6.61886px;font-family:Montserrat;-inkscape-font-specification:Montserrat-SemiBold;writing-mode:lr-tb;fill:#778791;fill-opacity:1;fill-rule:nonzero;stroke:none"
           transform="matrix(1,0,0,-1,174.2512,75.322)"><tspan
             id="tspan270"
             y="0"
             x="0">%</tspan></text><text
           id="text276"
           style="font-variant:normal;font-weight:600;font-size:10.4563px;font-family:Montserrat;-inkscape-font-specification:Montserrat-SemiBold;writing-mode:lr-tb;fill:#778791;fill-opacity:1;fill-rule:nonzero;stroke:none"
           transform="matrix(1,0,0,-1,207.6551,75.322)"><tspan
             id="tspan274"
             sodipodi:role="line"
             y="0"
             x="0 6.1064792">50</tspan></text><text
           id="text280"
           style="font-variant:normal;font-weight:600;font-size:6.61886px;font-family:Montserrat;-inkscape-font-specification:Montserrat-SemiBold;writing-mode:lr-tb;fill:#778791;fill-opacity:1;fill-rule:nonzero;stroke:none"
           transform="matrix(1,0,0,-1,220.7981,75.322)"><tspan
             id="tspan278"
             y="0"
             x="0">%</tspan></text></g><path
         id="path282"
         style="fill:#ffffff;fill-opacity:1;fill-rule:nonzero;stroke:none;stroke-width:0.444282"
         d="M 3008.8629,3214.7653 H 1874.5392 c -16.0031,0 -28.9761,12.9726 -28.9761,28.9757 v 718.8041 c 0,16.0031 12.973,28.9762 28.9761,28.9762 h 1134.3237 c 16.003,0 28.9762,-12.9731 28.9762,-28.9762 V 3243.741 c 0,-16.0031 -12.9732,-28.9757 -28.9762,-28.9757" /><path
         id="path284"
         style="fill:#f79310;fill-opacity:1;fill-rule:nonzero;stroke:none;stroke-width:0.444282"
         d="m 1917.5856,3848.3068 c 0,-9.13 -7.4016,-16.5316 -16.536,-16.5316 -9.1301,0 -16.5364,7.4016 -16.5364,16.5316 0,9.1345 7.4063,16.5363 16.5364,16.5363 9.1344,0 16.536,-7.4018 16.536,-16.5363" /><g
         transform="matrix(4.4428226,0,0,4.4428226,66.137198,2925.3327)"
         id="g286"><text
           id="text292"
           style="font-variant:normal;font-weight:300;font-size:7.94263px;font-family:Montserrat;-inkscape-font-specification:Montserrat-Light;writing-mode:lr-tb;fill:#b0b0ae;fill-opacity:1;fill-rule:nonzero;stroke:none"
           transform="matrix(1,0,0,-1,423.834,205.575)"><tspan
             id="tspan288"
             sodipodi:role="line"
             y="0"
             x="0 4.5751982 9.499629 12.517209 17.258421 25.709379 29.277733 31.35076 36.712036 40.508614 45.822231 54.27319 57.841545 63.20282 68.127251 70.200279 75.12471 78.254105 81.823433 85.62001 87.693039 90.854202 94.422554 99.053108 107.51208 112.25329 115.49351 117.08204 120.65039 124.9873 129.91174 135.25713 139.05371 143.79492 148.25098 151.2617 156.00291 159.16409 164.47771 169.21892 172.34831 175.91667 180.55533 185.9166 187.98962 193.35091 195.42393 199.2205 203.62866 205.70169 211.05519 216.47206">Lorem ipsum dolor sit amet, consectetuer adipiscing</tspan><tspan
             id="tspan290"
             sodipodi:role="line"
             y="9.5308599"
             x="0 4.7412128 6.8142395 8.8872662 12.127485 13.716011 15.757267 19.553844 24.295057 29.656332 31.697588 37.058865 39.131889 43.762444 52.213402 54.254658 59.608154 64.532585 69.877975 75.191597 83.642555 92.014603 96.208313 98.249565 103.59496 105.66798 111.02926 116.37465 118.41591 123.15712 128.47073 130.54376 134.34035 142.7993 147.72374 153.08501 155.12627 158.28743 160.36046 165.71396 170.12212 172.19514 177.55643 182.87004 188.21542 191.45564">elit, sed diam nonummy nibh euismod tincidunt.</tspan></text></g><path
         id="path294"
         style="fill:#cbd1dd;fill-opacity:1;fill-rule:nonzero;stroke:none;stroke-width:0.444282"
         d="m 2963.9193,3849.724 c 0,-3.1233 -2.5323,-5.6556 -5.6557,-5.6556 -3.1277,0 -5.6602,2.5323 -5.6602,5.6556 0,3.1235 2.5325,5.6558 5.6602,5.6558 3.1234,0 5.6557,-2.5323 5.6557,-5.6558" /><path
         id="path296"
         style="fill:#cbd1dd;fill-opacity:1;fill-rule:nonzero;stroke:none;stroke-width:0.444282"
         d="m 2983.0634,3849.724 c 0,-3.1233 -2.5324,-5.6556 -5.6558,-5.6556 -3.1233,0 -5.6556,2.5323 -5.6556,5.6556 0,3.1235 2.5323,5.6558 5.6556,5.6558 3.1234,0 5.6558,-2.5323 5.6558,-5.6558" /><path
         id="path298"
         style="fill:#cbd1dd;fill-opacity:1;fill-rule:nonzero;stroke:none;stroke-width:0.444282"
         d="m 3002.212,3849.724 c 0,-3.1233 -2.5326,-5.6556 -5.6557,-5.6556 -3.1278,0 -5.6603,2.5323 -5.6603,5.6556 0,3.1235 2.5325,5.6558 5.6603,5.6558 3.1231,0 5.6557,-2.5323 5.6557,-5.6558" /><path
         id="path300"
         style="fill:#e2eaf2;fill-opacity:1;fill-rule:nonzero;stroke:none;stroke-width:0.444282"
         d="M 1881.2078,3740.5729 H 3002.212 v 3.3441 H 1881.2078 Z" /><path
         id="path302"
         style="fill:#41bea8;fill-opacity:1;fill-rule:nonzero;stroke:none;stroke-width:0.444282"
         d="m 1917.5856,3688.7784 c 0,-9.1299 -7.4016,-16.5361 -16.536,-16.5361 -9.1301,0 -16.5364,7.4062 -16.5364,16.5361 0,9.1344 7.4063,16.5363 16.5364,16.5363 9.1344,0 16.536,-7.4019 16.536,-16.5363" /><g
         transform="matrix(4.4428226,0,0,4.4428226,66.137198,2925.3327)"
         id="g304"><text
           id="text310"
           style="font-variant:normal;font-weight:300;font-size:7.94263px;font-family:Montserrat;-inkscape-font-specification:Montserrat-Light;writing-mode:lr-tb;fill:#b0b0ae;fill-opacity:1;fill-rule:nonzero;stroke:none"
           transform="matrix(1,0,0,-1,423.834,169.667)"><tspan
             id="tspan306"
             sodipodi:role="line"
             y="0"
             x="0 4.5751982 9.499629 12.517209 17.258421 25.709379 29.277733 31.35076 36.712036 40.508614 45.822231 54.27319 57.841545 63.20282 68.127251 70.200279 75.12471 78.254105 81.823433 85.62001 87.693039 90.854202 94.422554 99.053108 107.51208 112.25329 115.49351 117.08204 120.65039 124.9873 129.91174 135.25713 139.05371 143.79492 148.25098 151.2617 156.00291 159.16409 164.47771 169.21892 172.34831 175.91667 180.55533 185.9166 187.98962 193.35091 195.42393 199.2205 203.62866 205.70169 211.05519 216.47206">Lorem ipsum dolor sit amet, consectetuer adipiscing</tspan><tspan
             id="tspan308"
             sodipodi:role="line"
             y="9.53125"
             x="0 4.7412128 6.8142395 8.8872662 12.127485 13.716011 15.757267 19.553844 24.295057 29.656332 31.697588 37.058865 39.131889 43.762444 52.213402 54.254658 59.608154 64.532585 69.877975 75.191597 83.642555 92.014603 96.208313 98.249565 103.59496 105.66798 111.02926 116.37465 118.41591 123.15712 128.47073 130.54376 134.34035 142.7993 147.72374 153.08501 155.12627 158.28743 160.36046 165.71396 170.12212 172.19514 177.55643 182.87004 188.21542 191.45564">elit, sed diam nonummy nibh euismod tincidunt.</tspan></text></g><path
         id="path312"
         style="fill:#cbd1dd;fill-opacity:1;fill-rule:nonzero;stroke:none;stroke-width:0.444282"
         d="m 2963.9193,3690.1958 c 0,-3.1234 -2.5323,-5.6558 -5.6557,-5.6558 -3.1277,0 -5.6602,2.5324 -5.6602,5.6558 0,3.1232 2.5325,5.6556 5.6602,5.6556 3.1234,0 5.6557,-2.5324 5.6557,-5.6556" /><path
         id="path314"
         style="fill:#cbd1dd;fill-opacity:1;fill-rule:nonzero;stroke:none;stroke-width:0.444282"
         d="m 2983.0634,3690.1958 c 0,-3.1234 -2.5324,-5.6558 -5.6558,-5.6558 -3.1233,0 -5.6556,2.5324 -5.6556,5.6558 0,3.1232 2.5323,5.6556 5.6556,5.6556 3.1234,0 5.6558,-2.5324 5.6558,-5.6556" /><path
         id="path316"
         style="fill:#cbd1dd;fill-opacity:1;fill-rule:nonzero;stroke:none;stroke-width:0.444282"
         d="m 3002.212,3690.1958 c 0,-3.1234 -2.5326,-5.6558 -5.6557,-5.6558 -3.1278,0 -5.6603,2.5324 -5.6603,5.6558 0,3.1232 2.5325,5.6556 5.6603,5.6556 3.1231,0 5.6557,-2.5324 5.6557,-5.6556" /><path
         id="path318"
         style="fill:#e2eaf2;fill-opacity:1;fill-rule:nonzero;stroke:none;stroke-width:0.444282"
         d="M 1881.2078,3581.0445 H 3002.212 v 3.3459 H 1881.2078 Z" /><path
         id="path320"
         style="fill:#78d3e7;fill-opacity:1;fill-rule:nonzero;stroke:none;stroke-width:0.444282"
         d="m 1917.5856,3529.2501 c 0,-9.1344 -7.4016,-16.5363 -16.536,-16.5363 -9.1301,0 -16.5364,7.4019 -16.5364,16.5363 0,9.1298 7.4063,16.5361 16.5364,16.5361 9.1344,0 16.536,-7.4063 16.536,-16.5361" /><g
         transform="matrix(4.4428226,0,0,4.4428226,66.137198,2925.3327)"
         id="g322"><text
           id="text328"
           style="font-variant:normal;font-weight:300;font-size:7.94263px;font-family:Montserrat;-inkscape-font-specification:Montserrat-Light;writing-mode:lr-tb;fill:#b0b0ae;fill-opacity:1;fill-rule:nonzero;stroke:none"
           transform="matrix(1,0,0,-1,423.834,133.76)"><tspan
             id="tspan324"
             sodipodi:role="line"
             y="0"
             x="0 4.5751982 9.499629 12.517209 17.258421 25.709379 29.277733 31.35076 36.712036 40.508614 45.822231 54.27319 57.841545 63.20282 68.127251 70.200279 75.12471 78.254105 81.823433 85.62001 87.693039 90.854202 94.422554 99.053108 107.51208 112.25329 115.49351 117.08204 120.65039 124.9873 129.91174 135.25713 139.05371 143.79492 148.25098 151.2617 156.00291 159.16409 164.47771 169.21892 172.34831 175.91667 180.55533 185.9166 187.98962 193.35091 195.42393 199.2205 203.62866 205.70169 211.05519 216.47206">Lorem ipsum dolor sit amet, consectetuer adipiscing</tspan><tspan
             id="tspan326"
             sodipodi:role="line"
             y="9.53125"
             x="0 4.7412128 6.8142395 8.8872662 12.127485 13.716011 15.757267 19.553844 24.295057 29.656332 31.697588 37.058865 39.131889 43.762444 52.213402 54.254658 59.608154 64.532585 69.877975 75.191597 83.642555 92.014603 96.208313 98.249565 103.59496 105.66798 111.02926 116.37465 118.41591 123.15712 128.47073 130.54376 134.34035 142.7993 147.72374 153.08501 155.12627 158.28743 160.36046 165.71396 170.12212 172.19514 177.55643 182.87004 188.21542 191.45564">elit, sed diam nonummy nibh euismod tincidunt.</tspan></text></g><path
         id="path330"
         style="fill:#cbd1dd;fill-opacity:1;fill-rule:nonzero;stroke:none;stroke-width:0.444282"
         d="m 2963.9193,3530.6629 c 0,-3.1233 -2.5323,-5.6557 -5.6557,-5.6557 -3.1277,0 -5.6602,2.5324 -5.6602,5.6557 0,3.1277 2.5325,5.6601 5.6602,5.6601 3.1234,0 5.6557,-2.5324 5.6557,-5.6601" /><path
         id="path332"
         style="fill:#cbd1dd;fill-opacity:1;fill-rule:nonzero;stroke:none;stroke-width:0.444282"
         d="m 2983.0634,3530.6629 c 0,-3.1233 -2.5324,-5.6557 -5.6558,-5.6557 -3.1233,0 -5.6556,2.5324 -5.6556,5.6557 0,3.1277 2.5323,5.6601 5.6556,5.6601 3.1234,0 5.6558,-2.5324 5.6558,-5.6601" /><path
         id="path334"
         style="fill:#cbd1dd;fill-opacity:1;fill-rule:nonzero;stroke:none;stroke-width:0.444282"
         d="m 3002.212,3530.6629 c 0,-3.1233 -2.5326,-5.6557 -5.6557,-5.6557 -3.1278,0 -5.6603,2.5324 -5.6603,5.6557 0,3.1277 2.5325,5.6601 5.6603,5.6601 3.1231,0 5.6557,-2.5324 5.6557,-5.6601" /><path
         id="path336"
         style="fill:#e2eaf2;fill-opacity:1;fill-rule:nonzero;stroke:none;stroke-width:0.444282"
         d="M 1881.2078,3421.516 H 3002.212 v 3.3409 H 1881.2078 Z" /><path
         id="path338"
         style="fill:#3775b9;fill-opacity:1;fill-rule:nonzero;stroke:none;stroke-width:0.444282"
         d="m 1917.5856,3369.7173 c 0,-9.1302 -7.4016,-16.5319 -16.536,-16.5319 -9.1301,0 -16.5364,7.4017 -16.5364,16.5319 0,9.1343 7.4063,16.5361 16.5364,16.5361 9.1344,0 16.536,-7.4018 16.536,-16.5361" /><g
         transform="matrix(4.4428226,0,0,4.4428226,66.137198,2925.3327)"
         id="g340"><text
           id="text346"
           style="font-variant:normal;font-weight:300;font-size:7.94263px;font-family:Montserrat;-inkscape-font-specification:Montserrat-Light;writing-mode:lr-tb;fill:#b0b0ae;fill-opacity:1;fill-rule:nonzero;stroke:none"
           transform="matrix(1,0,0,-1,423.834,97.8531)"><tspan
             id="tspan342"
             sodipodi:role="line"
             y="0"
             x="0 4.5751982 9.499629 12.517209 17.258421 25.709379 29.277733 31.35076 36.712036 40.508614 45.822231 54.27319 57.841545 63.20282 68.127251 70.200279 75.12471 78.254105 81.823433 85.62001 87.693039 90.854202 94.422554 99.053108 107.51208 112.25329 115.49351 117.08204 120.65039 124.9873 129.91174 135.25713 139.05371 143.79492 148.25098 151.2617 156.00291 159.16409 164.47771 169.21892 172.34831 175.91667 180.55533 185.9166 187.98962 193.35091 195.42393 199.2205 203.62866 205.70169 211.05519 216.47206">Lorem ipsum dolor sit amet, consectetuer adipiscing</tspan><tspan
             id="tspan344"
             sodipodi:role="line"
             y="9.5320301"
             x="0 4.7412128 6.8142395 8.8872662 12.127485 13.716011 15.757267 19.553844 24.295057 29.656332 31.697588 37.058865 39.131889 43.762444 52.213402 54.254658 59.608154 64.532585 69.877975 75.191597 83.642555 92.014603 96.208313 98.249565 103.59496 105.66798 111.02926 116.37465 118.41591 123.15712 128.47073 130.54376 134.34035 142.7993 147.72374 153.08501 155.12627 158.28743 160.36046 165.71396 170.12212 172.19514 177.55643 182.87004 188.21542 191.45564">elit, sed diam nonummy nibh euismod tincidunt.</tspan></text></g><path
         id="path348"
         style="fill:#cbd1dd;fill-opacity:1;fill-rule:nonzero;stroke:none;stroke-width:0.444282"
         d="m 2963.9193,3371.1344 c 0,-3.1228 -2.5323,-5.6552 -5.6557,-5.6552 -3.1277,0 -5.6602,2.5324 -5.6602,5.6552 0,3.1234 2.5325,5.6558 5.6602,5.6558 3.1234,0 5.6557,-2.5324 5.6557,-5.6558" /><path
         id="path350"
         style="fill:#cbd1dd;fill-opacity:1;fill-rule:nonzero;stroke:none;stroke-width:0.444282"
         d="m 2983.0634,3371.1344 c 0,-3.1228 -2.5324,-5.6552 -5.6558,-5.6552 -3.1233,0 -5.6556,2.5324 -5.6556,5.6552 0,3.1234 2.5323,5.6558 5.6556,5.6558 3.1234,0 5.6558,-2.5324 5.6558,-5.6558" /><path
         id="path352"
         style="fill:#cbd1dd;fill-opacity:1;fill-rule:nonzero;stroke:none;stroke-width:0.444282"
         d="m 3002.212,3371.1344 c 0,-3.1228 -2.5326,-5.6552 -5.6557,-5.6552 -3.1278,0 -5.6603,2.5324 -5.6603,5.6552 0,3.1234 2.5325,5.6558 5.6603,5.6558 3.1231,0 5.6557,-2.5324 5.6557,-5.6558" /><path
         id="path354"
         style="fill:#e2eaf2;fill-opacity:1;fill-rule:nonzero;stroke:none;stroke-width:0.444282"
         d="M 1881.2078,3261.9822 H 3002.212 v 3.3461 H 1881.2078 Z" /><g
         transform="matrix(4.4428226,0,0,4.4428226,66.137198,2925.3327)"
         id="g356"><text
           id="text360"
           style="font-variant:normal;font-weight:600;font-size:11.753px;font-family:Montserrat;-inkscape-font-specification:Montserrat-SemiBold;writing-mode:lr-tb;fill:#778791;fill-opacity:1;fill-rule:nonzero;stroke:none"
           transform="matrix(1,0,0,-1,408.537,223.555)"><tspan
             id="tspan358"
             sodipodi:role="line"
             y="0"
             x="0 9.5199299 19.299208 26.37344 30.122646 37.609943 41.35915 49.726334 58.118931 65.194237 68.942268 78.838295 88.358231">NOTIFICATIONS</tspan></text></g><path
         id="path362"
         style="fill:#eff3fa;fill-opacity:1;fill-rule:nonzero;stroke:none;stroke-width:0.444282"
         d="m 2896.7126,4742.2249 h -5.8822 v 174.0034 h 5.8822 v -174.0034" /><path
         id="path364"
         style="fill:#778791;fill-opacity:1;fill-rule:nonzero;stroke:none;stroke-width:0.444282"
         d="m 3051.0742,4829.2511 c 0,-29.7758 -24.138,-53.9137 -53.9137,-53.9137 -29.7714,0 -53.9093,24.1379 -53.9093,53.9137 0,29.7713 24.1379,53.9092 53.9093,53.9092 29.7757,0 53.9137,-24.1379 53.9137,-53.9092" /><path
         id="path366"
         style="fill:#ffffff;fill-opacity:1;fill-rule:nonzero;stroke:none;stroke-width:0.444282"
         d="m 3012.8082,4844.872 c 0,-8.6414 -7.0064,-15.6476 -15.6477,-15.6476 -8.6369,0 -15.6433,7.0062 -15.6433,15.6476 0,8.6368 7.0064,15.6432 15.6433,15.6432 8.6413,0 15.6477,-7.0064 15.6477,-15.6432" /><path
         id="path368"
         style="fill:#ffffff;fill-opacity:1;fill-rule:nonzero;stroke:none;stroke-width:0.444282"
         d="m 3022.1958,4801.479 v -14.0572 c -7.3529,-4.4117 -15.8786,-6.9396 -25.053,-6.9396 -9.1168,0 -17.7047,2.5279 -24.9954,6.8819 v 14.1149 c 0,13.8215 11.1737,24.9952 24.9954,24.9952 6.8818,0 13.1728,-2.7634 17.7001,-7.295 4.5318,-4.5273 7.3529,-10.7605 7.3529,-17.7002" /><g
         transform="matrix(4.4428226,0,0,4.4428226,66.137198,2925.3327)"
         id="g370"><text
           id="text374"
           style="font-variant:normal;font-weight:500;font-size:8.62767px;font-family:Montserrat;-inkscape-font-specification:Montserrat-Medium;writing-mode:lr-tb;fill:#778791;fill-opacity:1;fill-rule:nonzero;stroke:none"
           transform="matrix(1,0,0,-1,572.263,427.913)"><tspan
             id="tspan372"
             sodipodi:role="line"
             y="0"
             x="0 5.0644422 10.543013 13.976598 19.256731 28.376179 30.697021 33.104141 38.988213 43.310677 49.151608">Lorem ipsum</tspan></text><text
           id="text378"
           style="font-variant:normal;font-weight:normal;font-size:5.21524px;font-family:Montserrat;-inkscape-font-specification:Montserrat-Regular;writing-mode:lr-tb;fill:#778791;fill-opacity:1;fill-rule:nonzero;stroke:none"
           transform="matrix(1,0,0,-1,572.26417,420.53019)"><tspan
             id="tspan376"
             sodipodi:role="line"
             y="0"
             x="0 4.3077884 7.5782809 8.9806433 12.250599 14.34191 15.708302 18.258554 19.661455 21.778843 23.145235 26.222227 31.766191 34.915611">Dolor sit amet</tspan></text></g><path
         id="path380"
         style="fill:#ffffff;fill-opacity:1;fill-rule:nonzero;stroke:none;stroke-width:0.444282"
         d="m 1768.2047,3214.7653 h -511.4888 c -10.8804,0 -19.6951,8.818 -19.6951,19.6941 v 737.3668 c 0,10.876 8.8147,19.6951 19.6951,19.6951 h 511.4888 c 10.876,0 19.6951,-8.8191 19.6951,-19.6951 v -737.3668 c 0,-10.8761 -8.8191,-19.6941 -19.6951,-19.6941" /><path
         id="path382"
         style="fill:#ededf6;fill-opacity:1;fill-rule:nonzero;stroke:none;stroke-width:0.444282"
         d="m 1693.4364,3692.8881 c 0,-97.2889 -78.8646,-176.1536 -176.149,-176.1536 -97.2889,0 -176.1534,78.8647 -176.1534,176.1536 0,97.2844 78.8645,176.1491 176.1534,176.1491 97.2844,0 176.149,-78.8647 176.149,-176.1491" /><path
         id="path384"
         style="fill:#78d3e7;fill-opacity:1;fill-rule:nonzero;stroke:none;stroke-width:0.444282"
         d="m 1718.3295,3692.9148 c 0,-69.7479 -35.4625,-131.1211 -89.3629,-167.259 l -111.6704,167.259 v 200.9754 c 110.9997,0 201.0333,-89.9759 201.0333,-200.9754" /><path
         id="path386"
         style="fill:#ffffff;fill-opacity:1;fill-rule:nonzero;stroke:none;stroke-width:0.444282"
         d="m 1607.7522,3692.8881 c 0,-49.9684 -40.5009,-90.4692 -90.4648,-90.4692 -49.9684,0 -90.4692,40.5008 -90.4692,90.4692 0,49.9639 40.5008,90.4646 90.4692,90.4646 49.9639,0 90.4648,-40.5007 90.4648,-90.4646" /><g
         transform="matrix(4.4428226,0,0,4.4428226,66.137198,2925.3327)"
         id="g388"><text
           id="text392"
           style="font-variant:normal;font-weight:600;font-size:13.5743px;font-family:Montserrat;-inkscape-font-specification:Montserrat-SemiBold;writing-mode:lr-tb;fill:#778791;fill-opacity:1;fill-rule:nonzero;stroke:none"
           transform="matrix(1,0,0,-1,315.403,168.115)"><tspan
             id="tspan390"
             sodipodi:role="line"
             y="0"
             x="0 9.1762762">45</tspan></text><text
           id="text396"
           style="font-variant:normal;font-weight:600;font-size:8.59263px;font-family:Montserrat;-inkscape-font-specification:Montserrat-SemiBold;writing-mode:lr-tb;fill:#778791;fill-opacity:1;fill-rule:nonzero;stroke:none"
           transform="matrix(1,0,0,-1,332.5069,168.115)"><tspan
             id="tspan394"
             y="0"
             x="0">%</tspan></text></g><g
         transform="matrix(4.4428226,0,0,4.4428226,66.137198,2925.3327)"
         id="g398"><text
           id="text406"
           style="font-variant:normal;font-weight:300;font-size:7.94263px;font-family:Montserrat;-inkscape-font-specification:Montserrat-Light;writing-mode:lr-tb;fill:#b0b0ae;fill-opacity:1;fill-rule:nonzero;stroke:none"
           transform="matrix(1,0,0,-1,270.384,110.234)"><tspan
             id="tspan400"
             sodipodi:role="line"
             y="0"
             x="0 4.5751982 9.499629 12.517697 17.259447 25.710405 27.586866 29.659893 35.021168 38.817745 44.131363 52.582321 54.458782 59.820061 64.744492 66.817513 71.741943 74.871346 76.747803 80.54438 82.617409 85.778572 87.655037 92.285591 100.74412 105.48586 108.7261 110.31464">Lorem ipsum dolor sit amet,</tspan><tspan
             id="tspan402"
             sodipodi:role="line"
             y="9.5308599"
             x="0 4.3369193 9.2613497 14.60674 18.403316 23.145067 27.600639 30.610895 35.352646 38.513813 43.827431 48.569183 51.698578 53.871426 58.509621 63.870895 65.943924 71.305199 73.378227 77.174805 81.582962 83.655991 89.009529 94.426407 96.599251 101.341 103.41403 105.48705 108.72779 110.31631">consectetuer adipiscing elit,</tspan><tspan
             id="tspan404"
             sodipodi:role="line"
             y="19.06172"
             x="0 3.7965772 8.5383272 13.899603 19.17304 24.534315 26.607342 31.237896 39.687878 44.9618 50.314831 55.239262 60.584652 65.89827 74.349228 82.720818 86.914528 92.187965 97.533356 99.606377 104.96766 110.31304">sed diam nonummy nibh</tspan></text></g><path
         id="path408"
         style="fill:#dedbf1;fill-opacity:1;fill-rule:nonzero;stroke:none;stroke-width:0.444282"
         d="m 1374.4197,4772.9116 v 1.4706 H 680.7928 c -14.48359,0.01 -27.58548,5.8689 -37.07974,15.3633 -9.49435,9.4942 -15.35892,22.5961 -15.35892,37.0798 0,14.4835 5.86457,27.5854 15.35892,37.0798 9.49426,9.4942 22.59615,15.3589 37.07974,15.3632 h 693.6269 c 14.4836,-0.01 27.5854,-5.869 37.0796,-15.3632 9.4899,-9.4944 15.3589,-22.5963 15.3589,-37.0798 0,-14.4837 -5.869,-27.5856 -15.3589,-37.0798 -9.4942,-9.4944 -22.596,-15.359 -37.0796,-15.3633 v -1.4706 -1.4661 c 30.5843,0 55.3796,24.7909 55.3796,55.3798 0,30.5888 -24.7953,55.3797 -55.3796,55.3797 H 680.7928 c -30.58438,0 -55.37974,-24.7909 -55.37974,-55.3797 0,-30.5889 24.79536,-55.3798 55.37974,-55.3798 h 693.6269 v 1.4661" /><path
         id="path410"
         style="fill:#778791;fill-opacity:1;fill-rule:nonzero;stroke:none;stroke-width:0.444282"
         d="m 1354.3291,4830.0329 c 0,6.5532 5.3314,11.8846 11.8844,11.8846 6.5578,0 11.8892,-5.3314 11.8892,-11.8846 0,-6.6109 -5.3314,-11.9423 -11.8892,-11.9423 -6.553,0 -11.8844,5.3314 -11.8844,11.9423 z m 34.654,-18.9841 -8.5836,8.5835 c 2.146,2.919 3.461,6.4955 3.461,10.4006 0,9.7031 -7.9392,17.5848 -17.647,17.5848 -9.7607,0 -17.6422,-7.8817 -17.6422,-17.5848 0,-9.7609 7.8815,-17.6424 17.6422,-17.6424 3.7054,0 7.1442,1.1597 9.9875,3.1233 l 8.6236,-8.6236 c 0.573,-0.5731 1.3284,-0.8574 2.0792,-0.8574 0.751,0 1.5062,0.2844 2.0793,0.8574 1.1463,1.1508 1.1463,3.0123 0,4.1586" /><g
         transform="matrix(4.4428226,0,0,4.4428226,66.137198,2925.3327)"
         id="g412"><text
           id="text416"
           style="font-variant:normal;font-weight:300;font-size:7.94263px;font-family:Montserrat;-inkscape-font-specification:Montserrat-Light;writing-mode:lr-tb;fill:#d8d7d5;fill-opacity:1;fill-rule:nonzero;stroke:none"
           transform="matrix(1,0,0,-1,139.369,425.652)"><tspan
             id="tspan414"
             sodipodi:role="line"
             y="0"
             x="0 4.8370619 9.4596224 14.090176 17.108719 21.445164">Search</tspan></text></g><path
         style="fill:#ffe119;fill-opacity:0.0941985;stroke:none;stroke-width:7.42813px;stroke-linecap:butt;stroke-linejoin:miter;stroke-opacity:1"
         d="m 1291.6418,4920.9904 c -85.3989,-23.8142 -226.0611,-85.4632 -327.83904,-130.9328 -101.77795,-45.4695 -164.66927,-74.7593 -221.87999,-103.2766 -57.21071,-28.5172 -108.73475,-56.2609 -172.56233,-102.2293 -63.82758,-45.9683 -139.93896,-110.1528 -211.90137,-201.4139 -71.96241,-91.2611 -139.75535,-209.5692 -181.57536,-278.6243 -41.82002,-69.0551 -57.6736,-88.8721 -69.56671,-114.6558 -11.89311,-25.7838 -19.819888,-57.4909 -31.711152,-91.1707 -11.891264,-33.6798 -27.74477,-69.3502 -35.663917,-97.0643 -7.919147,-27.7141 -7.919147,-47.432 -7.919147,-83.0529 0,-35.621 0,-87.1451 21.824041,-150.566 21.82404,-63.421 65.421305,-138.7254 93.170805,-184.3021 27.74949,-45.5766 39.6397,-61.4302 49.53925,-77.2867 9.89954,-15.8565 17.82633,-31.7101 38.03807,-55.7765 20.21173,-24.0665 52.67857,-56.361 77.27312,-85.0687 24.59455,-28.7077 41.33422,-53.8171 81.55063,-90.2453 40.2164,-36.4282 103.88354,-84.1984 151.56619,-108.0524 47.68266,-23.8539 79.38977,-23.8539 107.14238,-27.8326 27.7526,-3.9786 51.53583,-11.9062 101.07313,-15.8552 49.5373,-3.9489 124.84349,-3.9489 200.14874,-3.9489 75.30526,0 150.60966,0 237.92366,35.8253 87.3141,35.8252 186.6983,107.4657 238.4056,149.347 51.7072,41.8812 55.7659,54.0576 65.7295,68.0948 9.9635,14.0372 25.8171,29.8908 57.5279,57.6375 31.7108,27.7467 79.2714,67.3806 112.9495,105.0171 33.6782,37.6365 53.4952,73.3071 79.2668,105.0291 25.7717,31.7221 57.4788,59.4658 81.333,99.3252 23.8542,39.8594 39.8752,91.8859 53.8306,135.7357 13.9554,43.8497 25.8456,79.5203 31.7981,154.8098 5.9525,75.2895 5.9525,190.2278 2.0114,255.6162 -3.9411,65.3884 -11.8679,81.242 -21.9645,117.4854 -10.0967,36.2433 -22.3374,92.8736 -36.3652,133.0793 -14.0279,40.2056 -29.8815,63.986 -43.7686,95.6917 -13.8871,31.7056 -25.7773,71.3394 -47.5606,114.9381 -21.7834,43.5987 -53.4906,91.1595 -75.2986,128.8096 -21.8079,37.6502 -33.6981,65.394 -68.1725,103.8789 -34.4743,38.4849 -91.5736,87.6897 -121.9791,112.3262 -30.4055,24.6366 -34.1122,24.6366 -39.8004,24.6366 -5.6883,0 -13.3581,0 -32.2261,6.9611 -18.8679,6.961 -48.9488,20.9246 -134.3478,-2.8896 z"
         id="path1861"
         inkscape:path-effect="#path-effect1863"
         inkscape:original-d="m 1346.87,4958.8098 c -140.5878,-61.7233 -281.25,-123.3723 -421.98648,-184.947 -62.81702,-29.3642 -125.70837,-58.654 -188.67396,-87.8696 -51.4498,-27.818 -102.97383,-55.5617 -154.57213,-83.2311 -76.03712,-64.2587 -152.14848,-128.4432 -228.33414,-192.5534 -67.71867,-118.3824 -135.51162,-236.6905 -203.37886,-354.9244 -15.77926,-19.8911 -31.63281,-39.7081 -47.56065,-59.4508 -7.85249,-31.7814 -15.77928,-63.4885 -23.780332,-95.1213 -15.77927,-35.7448 -31.63283,-71.4152 -47.560664,-107.0116 0.0742,-19.792 0.0742,-39.5099 0,-59.1535 0.0742,-51.5983 0.0742,-103.1224 0,-154.5721 43.671554,-75.3786 87.268836,-150.683 130.791826,-225.9133 11.96443,-15.9277 23.8546,-31.7813 35.67048,-47.5605 8.00106,-15.9278 15.92784,-31.7814 23.78033,-47.5607 32.54109,-32.3687 65.00791,-64.6632 97.40043,-96.8834 16.81394,-25.1836 33.5536,-50.293 50.21896,-75.3281 63.74141,-47.8445 127.40853,-95.6148 191.00138,-143.3108 31.78136,-0.074 63.48847,-0.074 95.12131,0 23.85751,-8.0019 47.64074,-15.9295 71.34969,-23.7828 75.38051,-0.074 150.6867,-0.074 225.91859,0 75.37862,-0.074 150.68302,-0.074 225.91302,0 99.4587,71.5664 198.843,143.2068 298.153,214.9218 4.1329,12.102 8.1916,24.2784 12.1761,36.529 15.9278,15.7792 31.7814,31.6328 47.5606,47.5605 47.635,39.5597 95.1956,79.1936 142.6821,118.9017 19.8911,35.5962 39.7081,71.2668 59.4508,107.0115 31.7814,27.6695 63.4884,55.4133 95.1213,83.2312 16.0954,51.9523 32.1164,103.9789 48.0631,156.0799 11.9644,35.5961 23.8547,71.2667 35.6705,107.0114 0.074,114.864 0.074,229.8023 0,344.8148 -7.8524,15.7792 -15.7792,31.6328 -23.7803,47.5606 -12.1664,56.556 -24.4071,113.1863 -36.722,169.891 -15.7792,23.7061 -31.6329,47.4864 -47.5606,71.341 -11.816,39.5596 -23.7062,79.1934 -35.6706,118.9017 -31.6327,47.4863 -63.3399,95.047 -95.1213,142.6819 -11.8159,27.6694 -23.7061,55.4132 -35.6705,83.2311 -57.0252,49.1306 -114.1245,98.3354 -171.2981,147.6144 -3.6323,-0.074 -7.339,-0.074 -11.1198,0 -7.5957,-0.074 -15.2655,-0.074 -23.0097,0 -30.0069,13.8894 -60.0878,27.853 -90.2434,41.8909 z" /><path
         inkscape:original-d="m 2932.8677,3028.3979 c 16.1603,61.2795 32.3637,122.5639 48.6102,183.8532 6.6438,27.8393 13.3308,55.6833 20.0607,83.5323 4.2243,23.769 8.4915,47.543 12.8019,71.3218 -1.2366,41.0723 -2.43,82.1496 -3.5804,123.2318 -20.8618,52.2842 -41.6804,104.5733 -62.4562,156.8672 -2.375,10.2072 -4.7071,20.4191 -6.9959,30.636 -8.2529,10.6993 -16.4628,21.4036 -24.6295,32.1127 -7.4978,14.2785 -14.9526,28.5619 -22.3643,42.8502 -6.4143,5.0592 -12.7857,10.123 -19.1143,15.1915 -16.6918,13.2274 -33.3407,26.4595 -49.9468,39.6962 -35.5726,5.2468 -71.102,10.4984 -106.5884,15.755 -8.2193,0.2244 -16.3957,0.4538 -24.5289,0.688 -7.2015,1.505 -14.36,3.0152 -21.4753,4.5301 -18.8164,-2.2022 -37.5896,-4.3996 -56.3197,-6.592 -12.4557,1.0345 -24.8682,2.0738 -37.2377,3.1181 -31.8297,-8.3096 -63.6162,-16.6142 -95.3598,-24.914 -8.1856,-10.2507 -16.3285,-20.4962 -24.4285,-30.7365 -8.7125,-5.6541 -17.382,-11.3032 -26.0084,-16.9475 -19.3825,-24.3389 -38.7221,-48.6725 -58.019,-73.0011 -19.382,-24.3381 -38.7212,-48.6712 -58.0176,-72.999 -2.4172,-50.5174 -4.7912,-101.0296 -7.1223,-151.537 2.8492,-4.4435 5.7414,-8.882 8.6767,-13.3156 1.0082,-9.1991 2.0596,-18.3932 3.1541,-27.5825 0.5495,-25.5516 1.1421,-51.0985 1.7778,-76.6404 6.3938,-15.569 12.8308,-31.1331 19.3108,-46.6923 0.779,-17.3754 1.6009,-34.7459 2.466,-52.1114 12.6539,-18.543 25.3508,-37.081 38.0908,-55.6141 8.4296,-13.0076 16.9022,-26.0105 25.4179,-39.0082 37.0965,-29.523 74.2365,-59.0407 111.4198,-88.5531 7.1154,-1.5151 14.2738,-3.0251 21.4754,-4.5302 21.3994,-10.593 42.8419,-21.1811 64.3274,-31.7643 11.7126,-0.9894 23.4681,-1.9738 35.2668,-2.9532 15.8173,-6.3414 31.6777,-12.6778 47.5813,-19.0094 23.4679,-1.9736 46.979,-3.9423 70.5332,-5.9062 11.9753,-3.2877 23.9937,-6.5706 36.0551,-9.8486 30.5204,5.8091 61.0838,11.6231 91.6902,17.4421 0.9092,1.1926 1.8611,2.3903 2.8558,3.5931 1.9269,2.4733 3.8966,4.9516 5.9091,7.4351 12.1943,6.1291 24.4316,12.2632 36.712,18.4022 z"
         inkscape:path-effect="#path-effect1882"
         id="path1861-3"
         d="m 2934.8305,3055.9563 c 14.2366,33.7108 30.44,94.9952 41.8854,139.5599 11.4455,44.5647 18.1323,72.4087 23.6101,98.2188 5.4777,25.8101 9.745,49.5841 11.2831,82.0139 1.538,32.4299 0.3446,73.5072 -10.6637,120.1975 -11.0083,46.6903 -31.827,98.9793 -43.4008,130.2269 -11.5738,31.2477 -13.9057,41.4596 -19.1829,51.9242 -5.2771,10.4646 -13.487,21.1689 -21.3161,33.6608 -7.8291,12.4918 -15.2838,26.7752 -22.2053,36.4515 -6.9215,9.6762 -13.2929,14.74 -24.8031,23.888 -11.5102,9.1479 -28.1592,22.38 -54.2571,31.6154 -26.098,9.2354 -61.6274,14.4871 -83.4809,17.2251 -21.8536,2.738 -30.03,2.9674 -37.696,3.8407 -7.666,0.8733 -14.8246,2.3834 -27.7918,2.0329 -12.9673,-0.3504 -31.7405,-2.5477 -47.333,-3.1224 -15.5926,-0.5747 -28.0051,0.4647 -50.1043,-3.1752 -22.0992,-3.6398 -53.8856,-11.9445 -73.8392,-21.2261 -19.9535,-9.2817 -28.0964,-19.5273 -36.5092,-27.4731 -8.4128,-7.9459 -17.0823,-13.5951 -31.0802,-28.588 -13.9979,-14.9929 -33.3375,-39.3265 -52.6769,-63.6598 -19.3395,-24.3334 -38.6787,-48.6664 -49.526,-86.0806 -10.8472,-37.4142 -13.2213,-87.9264 -12.9674,-115.3903 0.254,-27.4638 3.1462,-31.9023 5.1233,-38.7268 1.9771,-6.8245 3.0284,-16.0186 3.8505,-33.391 0.822,-17.3724 1.4146,-42.9193 4.927,-63.4673 3.5125,-20.548 9.9494,-36.1121 13.5812,-52.5863 3.6318,-16.4743 4.4538,-33.8448 11.2075,-51.7892 6.7537,-17.9445 19.4506,-36.4824 30.0358,-52.2531 10.5852,-15.7706 19.0579,-28.7734 41.8575,-50.0321 22.7995,-21.2588 59.9395,-50.7765 82.0806,-66.2957 22.1411,-15.5192 29.2994,-17.0292 43.6037,-23.0745 14.3043,-6.0453 35.7468,-16.6334 52.341,-22.4259 16.5942,-5.7926 28.3497,-6.777 42.1612,-10.4321 13.8114,-3.6551 29.6718,-9.9915 49.3541,-14.1495 19.6823,-4.1579 43.1934,-6.1266 60.9599,-8.7489 17.7665,-2.6223 29.7849,-5.9051 51.074,-4.6489 21.2891,1.2563 51.8525,7.0703 67.6218,10.5682 15.7694,3.498 16.7213,4.6956 18.1821,6.5337 1.4609,1.838 3.4305,4.3163 10.5254,8.6254 7.0949,4.3091 19.3322,10.4432 33.5687,44.1539 z"
         style="fill:#e5e500;fill-opacity:0.1394;stroke:none;stroke-width:3.066px;stroke-linecap:butt;stroke-linejoin:miter;stroke-opacity:1" /></g></g></svg>
