<?xml version="1.0" encoding="UTF-8"?>
<svg width="1200" height="800" version="1.1" viewBox="0 0 1200 800" xml:space="preserve" xmlns="http://www.w3.org/2000/svg" xmlns:cc="http://creativecommons.org/ns#" xmlns:dc="http://purl.org/dc/elements/1.1/" xmlns:rdf="http://www.w3.org/1999/02/22-rdf-syntax-ns#"><metadata><rdf:RDF><cc:Work rdf:about=""><dc:format>image/svg+xml</dc:format><dc:type rdf:resource="http://purl.org/dc/dcmitype/StillImage"/><dc:title/></cc:Work></rdf:RDF></metadata><g transform="matrix(1.3333 0 0 -1.3333 0 496.81)"><g transform="scale(.1)"><g fill="#e7e8e5"><path d="m9350-750.87h-5e3v2.5h5e3v-2.5" opacity=".5"/><path d="m5205.8-846.1h-331.22v2.5h331.22v-2.5" opacity=".5"/><path d="m6486.7-818.97h-425.27v2.5h425.27v-2.5" opacity=".5"/><path d="m5476.7-881.19h-191.93v2.5h191.93v-2.5" opacity=".5"/><path d="m8849-922.16h-152.34v2.5h152.34v-2.5" opacity=".5"/><path d="m8607.6-922.16h-342.92v2.5h342.92v-2.5" opacity=".5"/><path d="m7668.3-850.22h-238.33v2.5h238.33v-2.5" opacity=".5"/><path d="m4789.2 2523.6c-30.101 0-54.582-24.48-54.582-54.57v-2714.3c0-30.097 24.481-54.578 54.582-54.578h1931c30.09 0 54.57 24.481 54.57 54.578v2714.3c0 30.09-24.48 54.57-54.57 54.57h-1931m1931-2826h-1931c-31.476 0-57.082 25.598-57.082 57.078v2714.3c0 31.46 25.606 57.07 57.082 57.07h1931c31.46 0 57.07-25.61 57.07-57.07v-2714.3c0-31.48-25.61-57.078-57.07-57.078" opacity=".5"/><path d="m6952.1 2523.6c-30.09 0-54.57-24.48-54.57-54.57v-2714.3c0-30.097 24.48-54.578 54.57-54.578h1931c30.1 0 54.59 24.481 54.59 54.578v2714.3c0 30.09-24.49 54.57-54.59 54.57h-1931m1931-2826h-1931c-31.47 0-57.07 25.598-57.07 57.078v2714.3c0 31.46 25.6 57.07 57.07 57.07h1931c31.48 0 57.09-25.61 57.09-57.07v-2714.3c0-31.48-25.61-57.078-57.09-57.078" opacity=".5"/></g><path d="m5496.7-506.47h3184.4v2805.4h-3184.4z" fill="#dadbd8" opacity=".5"/><path d="m5438.9-506.47h3184.4v2565.4h-3184.4z" fill="#f3f2f1" opacity=".5"/><path d="m5863.3-75.36h2288.9v1703.2h-2288.9z" fill="#fff" opacity=".5"/><path d="m5018.9-506.47h420v2565.4h-420v-2565.4" fill="#ededeb" opacity=".5"/><path d="m5018.9 1895.6h420v163.33h-420v-163.33" fill="#e7e8e5" opacity=".5"/><path d="m5018.9 2299h3604.4v-240h-3604.4v240" fill="#e2e2e0" opacity=".5"/><path d="m5438.9 2059h970v-100h-970v100" fill="#fafaf9" opacity=".5"/><path d="m7378.9 2059h-970v-100h970v100" fill="#e7e8e5" opacity=".5"/><g fill="#e2e2e0"><path d="m5197.4 1715.3h-147v147h147v-147" opacity=".5"/><path d="m5407.4 1715.3h-147v147h147v-147" opacity=".5"/><path d="m5260.4 1652.3h147v-147.01h-147v147.01" opacity=".5"/><path d="m5050.4 1652.3h147v-147.01h-147v147.01" opacity=".5"/><path d="m5197.4 1295.3h-147v147h147v-147" opacity=".5"/><path d="m5407.4 1295.3h-147v147h147v-147" opacity=".5"/><path d="m5260.4 1232.3h147v-147h-147v147" opacity=".5"/><path d="m5050.4 1232.3h147v-147h-147v147" opacity=".5"/><path d="m5197.4 875.28h-147v147h147v-147" opacity=".5"/><path d="m5407.4 875.28h-147v147h147v-147" opacity=".5"/><path d="m5260.4 812.28h147v-147h-147v147" opacity=".5"/><path d="m5050.4 812.28h147v-147h-147v147" opacity=".5"/><path d="m5050.4 182.28h90.082v-90.08h-90.082v90.08" opacity=".5"/><path d="m5317.3 182.28h90.082v-90.08h-90.082v90.08" opacity=".5"/><path d="m5183.9 182.28h90.082v-90.08h-90.082v90.08" opacity=".5"/><path d="m5188 464.7h218.5v-218.5h-218.5v218.5" opacity=".5"/></g><path d="m5050.4 602.28h218.5v-218.5h-218.5v218.5" fill="#fff" opacity=".5"/><g fill="#f3f2f1"><path d="m7503.7 689.83c-202.5 0-366.66 164.16-366.66 366.67 0 202.5 164.16 366.66 366.66 366.66 202.51 0 366.67-164.16 366.67-366.66 0-202.51-164.16-366.67-366.67-366.67" opacity=".5"/><path d="m7383.3 182.28h240.69v630h-240.69z" opacity=".5"/><path d="m8788.9-1086.8c0-62.539-868.07-113.24-1938.9-113.24s-1938.9 50.699-1938.9 113.24c0 62.532 868.07 113.23 1938.9 113.23s1938.9-50.699 1938.9-113.23" opacity=".5"/></g><path d="m7182.8 646.59-283.15-283.16s-174.54 195.68-405.57 173.57c-85.45 187.57-183.08 587.26-209.99 701.33l385.58-385.59c-12.38-22.64-8.96-51.48 10.16-70.6 23.29-23.29 60.88-23.29 84.17 0 23.28 23.28 23.39 60.98 0.1 84.27-19.12 19.12-48.06 22.43-70.71 10.05l-385.59 385.58c114.07-26.91 513.76-124.54 701.33-209.99-22-230.92 173.67-405.46 173.67-405.46" fill="#406fbf" opacity=".5"/><path d="m7136.6 695.87c-56.37 67.59-142.48 198.78-127.5 356.16 0.01-0.01 0.01-0.01 0.02-0.01-15.01-157.39 71.12-288.57 127.49-356.14l-0.01-0.01m-372.64 86.27c12.94 12.95 18.73 30.38 17.31 47.31 1.43-16.92-4.35-34.35-17.3-47.31m17.3 47.31h-0.01 0.01m-87.98 47-385.58 385.58c0.03-0.01 0.06-0.01 0.09-0.02l385.54-385.53c-0.02-0.01-0.03-0.02-0.05-0.03" fill="#c3c5c2" opacity=".5"/><path d="m6993.2 552.88-229.27 229.26h0.01c12.95 12.96 18.73 30.39 17.3 47.31h-0.01c-1.13 13.48-6.84 26.64-17.14 36.95-11.62 11.62-26.81 17.41-42.04 17.41-9.89 0-19.8-2.45-28.74-7.33l-385.54 385.53c114.24-26.96 513.81-124.53 701.3-209.98-14.98-157.38 71.13-288.57 127.5-356.16-1.13-0.88-2.21-1.83-3.25-2.87l-140.12-140.12" fill="#3563b7" opacity=".5"/><path d="m7964-417.96c-49.68-49.68-130.97-49.68-180.65 0l-830.42 830.42 180.65 180.65 830.42-830.42c49.68-49.679 49.68-130.97 0-180.65" fill="#406fbf" opacity=".5"/><path d="m7873.7-455.22c-32.74 0-65.48 12.418-90.32 37.258l-738.94 738.94 180.65 180.65 738.94-738.94c24.84-24.839 37.26-57.582 37.26-90.332 0-32.738-12.42-65.48-37.26-90.32s-57.58-37.258-90.33-37.258" fill="#b8d2ef" opacity=".5"/><path d="m7233.8 510.31-198.01-198.01c-11.38-11.38-30-11.38-41.38 0l-50.1 50.1c-11.38 11.38-11.38 30 0 41.38l198.01 198.01c11.38 11.38 30.01 11.38 41.38 0l50.1-50.1c11.38-11.38 11.38-30 0-41.38" fill="#406fbf" opacity=".5"/><path d="m7229.2 597.17-280.26-280.25c-13.67-13.68-36.05-13.68-49.72 0l-46.11 46.1c-13.68 13.68-13.68 36.05 0 49.73l280.25 280.25c13.68 13.68 36.05 13.68 49.73 0l46.11-46.11c13.67-13.67 13.67-36.05 0-49.72" fill="#406fbf" opacity=".5"/><path d="m6924 306.66c-9.01 0-18.03 3.42-24.86 10.26l-46.11 46.1c-6.84 6.84-10.26 15.85-10.26 24.87 0 9.01 3.42 18.02 10.26 24.86l280.25 280.25c6.84 6.84 15.85 10.26 24.87 10.26 9.01 0 18.02-3.42 24.86-10.26l46.11-46.11c6.83-6.83 10.25-15.85 10.25-24.86s-3.42-18.02-10.25-24.86l-20.44-20.43-259.82-259.82c-6.84-6.84-15.85-10.26-24.86-10.26" fill="#2251aa" opacity=".5"/><path d="m7028.8 396.81-40.34-40.34-95.83 95.84 40.33 40.33 95.84-95.83" fill="#fff" opacity=".5"/><path d="m7056 424.01 16.55 16.55-95.84 95.83-16.55-16.55 95.84-95.83" fill="#fff" opacity=".5"/><path d="m6218.8-547.04c-516.76 516.76-516.76 1357.6 0 1874.3s1357.6 516.76 1874.4 0l-15.35-15.34c-508.29 508.3-1335.4 508.3-1843.7 0-508.29-508.3-508.29-1335.4 0-1843.7l-15.34-15.348" fill="#406fbf" opacity=".5"/><path d="m5304.6 382.46-15.347 15.35 1859 1859 15.35-15.35-1859-1859" fill="#406fbf" opacity=".5"/><path d="m6365.4 1319.6-138.91-138.9-138.9 138.9 138.9 138.9 138.91-138.9" fill="#fff" opacity=".5"/><path d="m6102.9 1319.6 123.56-123.56 123.56 123.56-123.56 123.56zm123.56-154.25-154.25 154.25 154.25 154.25 154.25-154.25-154.25-154.25" fill="#406fbf" opacity=".5"/><path d="m6365.4-539.36-138.91-138.91-138.9 138.91 138.9 138.9 138.91-138.9" fill="#fff" opacity=".5"/><path d="m6102.9-539.36 123.56-123.56 123.56 123.56-123.56 123.56zm123.56-154.25-154.25 154.25 154.25 154.25 154.25-154.25-154.25-154.25" fill="#406fbf" opacity=".5"/><path d="m8228.4 1323.7-138.91-138.91-138.9 138.91 138.9 138.9 138.91-138.9" fill="#fff" opacity=".5"/><path d="m7965.9 1323.7 123.56-123.56 123.56 123.56-123.56 123.56zm123.56-154.25-154.25 154.25 154.25 154.25 154.25-154.25-154.25-154.25" fill="#406fbf" opacity=".5"/><path d="m7229.4 2322.6c38.36-38.36 38.36-100.54 0-138.9s-100.55-38.36-138.9 0c-38.36 38.36-38.36 100.54 0 138.9 38.35 38.36 100.54 38.36 138.9 0" fill="#fff" opacity=".5"/><path d="m7160 2340.6c-23.34 0-45.28-9.09-61.78-25.59-34.06-34.07-34.06-89.5 0-123.56 34.07-34.07 89.5-34.06 123.56 0 16.5 16.5 25.59 38.44 25.59 61.78s-9.09 45.28-25.59 61.78-38.44 25.59-61.78 25.59zm0-196.44c-29.14 0-56.53 11.34-77.13 31.94-42.52 42.53-42.52 111.73 0 154.25 20.6 20.61 47.99 31.95 77.13 31.95 29.13 0 56.52-11.34 77.12-31.95 20.61-20.6 31.95-47.99 31.95-77.12s-11.34-56.52-31.95-77.13c-20.6-20.6-47.99-31.94-77.12-31.94" fill="#406fbf" opacity=".5"/><path d="m5366.4 459.59c38.36-38.36 38.36-100.55 0-138.9-38.355-38.36-100.55-38.36-138.91 0-38.355 38.35-38.355 100.54 0 138.9 38.36 38.36 100.55 38.36 138.91 0" fill="#fff" opacity=".5"/><path d="m5296.9 477.47c-22.375 0-44.743-8.52-61.778-25.55-34.066-34.07-34.066-89.5 0-123.56 34.07-34.07 89.496-34.06 123.56 0 34.06 34.06 34.06 89.49 0 123.56-17.032 17.03-39.411 25.55-61.782 25.55zm0-196.35c-27.93 0-55.86 10.63-77.125 31.89-42.528 42.53-42.528 111.73 0 154.25 42.527 42.53 111.73 42.53 154.25 0 42.53-42.52 42.53-111.72 0-154.25-21.26-21.26-49.189-31.89-77.122-31.89" fill="#406fbf" opacity=".5"/></g></g></svg>
