<?xml version="1.0" encoding="UTF-8" standalone="no"?>
<svg
   xmlns:dc="http://purl.org/dc/elements/1.1/"
   xmlns:cc="http://creativecommons.org/ns#"
   xmlns:rdf="http://www.w3.org/1999/02/22-rdf-syntax-ns#"
   xmlns:svg="http://www.w3.org/2000/svg"
   xmlns="http://www.w3.org/2000/svg"
   xmlns:sodipodi="http://sodipodi.sourceforge.net/DTD/sodipodi-0.dtd"
   xmlns:inkscape="http://www.inkscape.org/namespaces/inkscape"
   inkscape:version="1.0 (4035a4fb49, 2020-05-01)"
   sodipodi:docname="more-about-withBK.svg"
   id="svg20"
   version="1.1"
   height="250"
   width="250">
  <metadata
     id="metadata26">
    <rdf:RDF>
      <cc:Work
         rdf:about="">
        <dc:format>image/svg+xml</dc:format>
        <dc:type
           rdf:resource="http://purl.org/dc/dcmitype/StillImage" />
        <dc:title></dc:title>
      </cc:Work>
    </rdf:RDF>
  </metadata>
  <defs
     id="defs24" />
  <sodipodi:namedview
     inkscape:current-layer="svg20"
     inkscape:window-maximized="1"
     inkscape:window-y="24"
     inkscape:window-x="0"
     inkscape:cy="174.84137"
     inkscape:cx="91.757935"
     inkscape:zoom="1.178"
     showgrid="false"
     id="namedview22"
     inkscape:window-height="717"
     inkscape:window-width="1366"
     inkscape:pageshadow="2"
     inkscape:pageopacity="0"
     guidetolerance="10"
     gridtolerance="10"
     objecttolerance="10"
     borderopacity="1"
     bordercolor="#666666"
     pagecolor="#ffffff" />
  <path
     style="stroke-width:0.794267;fill:#ffffff;fill-opacity:0.05075677"
     id="path2"
     fill-opacity="0.322"
     fill="#ffffff"
     d="M 230.33519,212.44785 H 22.560596 V 4.673248 H 230.33519 V 212.44785" />
  <path
     style="stroke-width:0.819541"
     id="path4"
     fill="#f0ede2"
     d="M 178.94342,68.299436 H 77.741626 a 5.7785814,5.7785814 0 0 0 -5.775303,5.78104 v 73.985674 a 5.7785814,5.7785814 0 0 0 5.775303,5.78186 H 178.94342 a 5.7785814,5.7785814 0 0 0 5.7753,-5.78186 V 74.080476 a 5.7785814,5.7785814 0 0 0 -5.7753,-5.78104" />
  <path
     style="stroke-width:0.819541"
     id="path6"
     fill="#dddbd0"
     d="m 175.31204,150.33546 c 2.98313,0 5.40077,-2.40536 5.40077,-5.37291 V 76.203087 c 0,-2.966738 -2.41764,-5.37291 -5.40077,-5.37291 h -47.30798 v 79.505283 h 47.3088" />
  <path
     style="stroke-width:0.819541"
     id="path8"
     fill="#6da1a1"
     d="M 125.94455,132.66288 114.22266,118.7856 c -1.51451,-1.79233 -5.29915,-1.79233 -6.81284,0 l -34.714105,27.75539 c -1.513693,1.79234 0.378627,4.03213 3.40601,4.03213 h 52.312915 v -14.98529 l -2.47009,-2.92495" />
  <path
     style="stroke-width:0.819541"
     id="path10"
     fill="#588281"
     d="m 183.72462,144.96747 -21.3228,-38.58562 c -2.10459,-2.4914 -7.36522,-2.4914 -9.47062,0 l -16.29575,19.29281 -8.42733,9.97627 -0.007,-0.007 -0.0467,-0.0565 v 14.98612 h 51.45978 c 4.20916,0 6.21539,-3.11425 4.11081,-5.60648" />
  <path
     style="stroke-width:0.819541"
     id="path12"
     fill="#e6ba59"
     d="m 93.48992,99.91813 c 0,4.48945 3.63958,8.12821 8.12902,8.12821 V 91.78993 c -4.48944,0 -8.12902,3.63876 -8.12902,8.12902" />
  <path
     style="stroke-width:0.819541"
     id="path14"
     fill="#c7a24f"
     d="m 101.61894,91.78993 v 16.25641 c 4.48863,0 8.12821,-3.63876 8.12821,-8.12821 0,-4.48944 -3.63876,-8.129021 -8.12821,-8.129021" />
  <path
     style="stroke-width:0.819541"
     id="path16"
     fill="#4e4f51"
     d="m 81.187795,150.33546 a 5.3729087,5.3729087 0 0 1 -5.372909,-5.37291 V 76.203087 a 5.3729087,5.3729087 0 0 1 5.372909,-5.37291 h 47.075225 v -3.17408 H 76.883567 a 5.8646331,5.8646331 0 0 0 -5.864633,5.863813 v 75.04616 a 5.8646331,5.8646331 0 0 0 5.864633,5.86464 h 51.379453 v -4.09525 H 81.188614" />
  <path
     style="stroke-width:0.819541"
     id="path18"
     fill="#404042"
     d="m 179.46055,67.656097 h -51.37946 v 3.17408 h 47.07523 a 5.3729087,5.3729087 0 0 1 5.37373,5.37291 v 68.759463 a 5.3729087,5.3729087 0 0 1 -5.37373,5.37291 H 128.0819 v 4.09525 h 51.37865 a 5.8646331,5.8646331 0 0 0 5.86464,-5.86464 V 73.52073 a 5.8638136,5.8638136 0 0 0 -5.86464,-5.864633" />
</svg>
