<svg xmlns="http://www.w3.org/2000/svg" height="250" width="250"><path d="M190.646 70.027H67.16a7.051 7.051 0 00-7.047 7.054v90.277a7.051 7.051 0 007.047 7.055h123.486a7.051 7.051 0 007.047-7.055V77.081a7.051 7.051 0 00-7.047-7.054" fill="#f0ede2"/><path d="M186.215 170.127c3.64 0 6.59-2.935 6.59-6.556v-83.9c0-3.62-2.95-6.556-6.59-6.556H128.49v97.012h57.726" fill="#dddbd0"/><path d="M125.977 148.563l-14.303-16.933c-1.848-2.187-6.466-2.187-8.313 0l-42.358 33.867c-1.847 2.187.462 4.92 4.156 4.92h63.832v-18.285l-3.014-3.569" fill="#6da1a1"/><path d="M196.48 163.577l-26.018-47.082c-2.568-3.04-8.987-3.04-11.556 0l-19.884 23.541-10.283 12.173-.008-.008-.057-.069v18.286H191.465c5.136 0 7.584-3.8 5.016-6.841" fill="#588281"/><path d="M86.376 108.608c0 5.478 4.441 9.918 9.919 9.918V98.69c-5.478 0-9.919 4.44-9.919 9.919" fill="#e6ba59"/><path d="M96.295 98.69v19.836c5.477 0 9.918-4.44 9.918-9.918 0-5.478-4.44-9.919-9.918-9.919" fill="#c7a24f"/><path d="M71.365 170.127a6.556 6.556 0 01-6.556-6.556v-83.9a6.556 6.556 0 016.556-6.556h57.441v-3.873H66.113a7.156 7.156 0 00-7.156 7.155v91.571a7.156 7.156 0 007.156 7.156h62.693v-4.997h-57.44" fill="#4e4f51"/><path d="M191.277 69.242h-62.693v3.873h57.441a6.556 6.556 0 016.557 6.556v83.9a6.556 6.556 0 01-6.557 6.556h-57.44v4.997h62.692a7.156 7.156 0 007.156-7.156v-91.57a7.155 7.155 0 00-7.156-7.156" fill="#404042"/></svg>