<?xml version="1.0" encoding="UTF-8" standalone="no"?>
<svg
   xmlns:dc="http://purl.org/dc/elements/1.1/"
   xmlns:cc="http://creativecommons.org/ns#"
   xmlns:rdf="http://www.w3.org/1999/02/22-rdf-syntax-ns#"
   xmlns:svg="http://www.w3.org/2000/svg"
   xmlns="http://www.w3.org/2000/svg"
   xmlns:sodipodi="http://sodipodi.sourceforge.net/DTD/sodipodi-0.dtd"
   xmlns:inkscape="http://www.inkscape.org/namespaces/inkscape"
   inkscape:version="1.0 (4035a4fb49, 2020-05-01)"
   sodipodi:docname="lightning.svg"
   id="svg11"
   version="1.1"
   viewBox="0 0 511.996 511.996">
  <metadata
     id="metadata15">
    <rdf:RDF>
      <cc:Work
         rdf:about="">
        <dc:format>image/svg+xml</dc:format>
        <dc:type
           rdf:resource="http://purl.org/dc/dcmitype/StillImage" />
      </cc:Work>
    </rdf:RDF>
  </metadata>
  <sodipodi:namedview
     inkscape:current-layer="svg11"
     inkscape:window-maximized="1"
     inkscape:window-y="24"
     inkscape:window-x="0"
     inkscape:cy="-32.803683"
     inkscape:cx="150.85523"
     inkscape:zoom="0.40672768"
     showgrid="false"
     id="namedview13"
     inkscape:window-height="717"
     inkscape:window-width="1366"
     inkscape:pageshadow="2"
     inkscape:pageopacity="0"
     guidetolerance="10"
     gridtolerance="10"
     objecttolerance="10"
     borderopacity="1"
     bordercolor="#666666"
     pagecolor="#ffffff" />
  <defs
     id="defs7">
    <linearGradient
       id="a">
      <stop
         id="stop2"
         offset="0" />
      <stop
         id="stop4"
         stop-opacity="0"
         offset="1" />
    </linearGradient>
  </defs>
  <path
     style="fill:#ffa571;fill-opacity:1;stroke:#ff6309;stroke-opacity:1"
     id="path9"
     stroke="#189a70"
     fill="#6cc7a9"
     d="M383.164 235.248a8.534 8.534 0 00-7.697-4.847H301.16L358.111 10.68a8.524 8.524 0 00-4.42-9.762 8.511 8.511 0 00-10.479 2.261l-213.33 264.529a8.542 8.542 0 00-1.058 9.045 8.534 8.534 0 007.697 4.847h74.307l-56.951 219.721a8.524 8.524 0 004.42 9.762 8.524 8.524 0 0010.478-2.261l213.33-264.529a8.54 8.54 0 001.059-9.045zM180.33 467.316l49.8-192.108c.666-2.56.102-5.273-1.51-7.364s-4.104-3.311-6.75-3.311h-67.489L331.675 44.685l-49.8 192.108a8.535 8.535 0 001.51 7.364 8.516 8.516 0 006.75 3.311h67.489L180.33 467.316zM152.776 132.901a8.525 8.525 0 00-7.714-4.89h-40.089l31.274-117.263A8.537 8.537 0 00131.904.96c-3.567-1.843-7.936-.93-10.487 2.159L1.952 148.184a8.526 8.526 0 00-1.126 9.062 8.524 8.524 0 007.714 4.889h40.089L17.355 279.399a8.537 8.537 0 008.243 10.735 8.512 8.512 0 006.588-3.106L151.65 141.963a8.526 8.526 0 001.126-9.062zM43.961 245.889l24.021-90.085a8.545 8.545 0 00-1.476-7.398 8.537 8.537 0 00-6.767-3.336H26.622L109.65 44.25l-24.021 90.085a8.545 8.545 0 001.476 7.398 8.537 8.537 0 006.767 3.336h33.117l-83.028 100.82zM511.17 354.764a8.525 8.525 0 00-7.714-4.89h-40.089l31.274-117.263a8.536 8.536 0 00-4.343-9.788 8.521 8.521 0 00-10.487 2.159L360.346 370.047a8.526 8.526 0 00-1.126 9.062 8.525 8.525 0 007.714 4.89h40.089l-31.274 117.263a8.535 8.535 0 004.343 9.788 8.48 8.48 0 003.9.947 8.512 8.512 0 006.588-3.106l119.465-145.064a8.53 8.53 0 001.125-9.063zM402.355 467.752l24.021-90.085a8.545 8.545 0 00-1.476-7.398 8.537 8.537 0 00-6.767-3.336h-33.117l83.028-100.82-24.021 90.085a8.545 8.545 0 001.476 7.398 8.537 8.537 0 006.767 3.336h33.117l-83.028 100.82z" />
</svg>
