<?xml version="1.0" encoding="UTF-8" standalone="no"?>
<svg
   xmlns:dc="http://purl.org/dc/elements/1.1/"
   xmlns:cc="http://creativecommons.org/ns#"
   xmlns:rdf="http://www.w3.org/1999/02/22-rdf-syntax-ns#"
   xmlns:svg="http://www.w3.org/2000/svg"
   xmlns="http://www.w3.org/2000/svg"
   xmlns:sodipodi="http://sodipodi.sourceforge.net/DTD/sodipodi-0.dtd"
   xmlns:inkscape="http://www.inkscape.org/namespaces/inkscape"
   inkscape:version="1.0 (4035a4fb49, 2020-05-01)"
   sodipodi:docname="video-camera.svg"
   id="svg4"
   version="1.1"
   width="472pt"
   viewBox="0 -87 472 472"
   height="472pt">
  <metadata
     id="metadata10">
    <rdf:RDF>
      <cc:Work
         rdf:about="">
        <dc:format>image/svg+xml</dc:format>
        <dc:type
           rdf:resource="http://purl.org/dc/dcmitype/StillImage" />
      </cc:Work>
    </rdf:RDF>
  </metadata>
  <defs
     id="defs8" />
  <sodipodi:namedview
     inkscape:current-layer="svg4"
     inkscape:window-maximized="1"
     inkscape:window-y="24"
     inkscape:window-x="0"
     inkscape:cy="287.0724"
     inkscape:cx="-103.29111"
     inkscape:zoom="0.23397775"
     showgrid="false"
     id="namedview6"
     inkscape:window-height="717"
     inkscape:window-width="1366"
     inkscape:pageshadow="2"
     inkscape:pageopacity="0"
     guidetolerance="10"
     gridtolerance="10"
     objecttolerance="10"
     borderopacity="1"
     bordercolor="#666666"
     pagecolor="#ffffff" />
  <path
     style="fill:#58bf9d;fill-opacity:1;stroke:#339072;stroke-opacity:1"
     id="path2"
     d="m467.101562 26.527344c-3.039062-1.800782-6.796874-1.871094-9.898437-.179688l-108.296875 59.132813v-35.480469c-.03125-27.601562-22.398438-49.96875-50-50h-248.90625c-27.601562.03125-49.96875 22.398438-50 50v197.421875c.03125 27.601563 22.398438 49.96875 50 50h248.90625c27.601562-.03125 49.96875-22.398437 50-50v-34.835937l108.300781 59.132812c3.097657 1.691406 6.859375 1.625 9.894531-.175781 3.039063-1.804688 4.898438-5.074219 4.898438-8.601563v-227.816406c0-3.53125-1.863281-6.796875-4.898438-8.597656zm-138.203124 220.898437c-.015626 16.5625-13.4375 29.980469-30 30h-248.898438c-16.5625-.019531-29.980469-13.4375-30-30v-197.425781c.019531-16.558594 13.4375-29.980469 30-30h248.90625c16.558594.019531 29.980469 13.441406 30 30zm123.101562-1.335937-103.09375-56.289063v-81.535156l103.09375-56.285156zm0 0" />
</svg>
